<svg width="352" height="351" viewBox="0 0 352 351" fill="none" xmlns="http://www.w3.org/2000/svg">
<path d="M350.83 135.469C351.325 144.986 349.054 155.338 346.644 165.649C343.235 180.231 338.465 194.341 331.468 207.634C329.386 211.59 327.103 215.43 324.604 219.134C324.143 219.818 324.167 220.244 324.648 220.911C326.067 222.881 326.571 225.239 327.127 227.537C328.582 233.557 328.357 239.655 328.035 245.791C327.742 251.376 326.115 256.605 324.683 261.927C323.346 266.902 322.06 271.88 320.305 276.732C319.554 278.808 319.099 280.99 318.451 283.105C313.378 299.68 304.043 313.371 290.613 324.312C288.374 326.137 286.524 328.391 284.239 330.201C270.569 341.022 255.259 348.113 237.843 349.912C216.337 352.134 197.173 346.498 181.323 331.392C170.443 321.024 164.115 308.114 161.396 293.411C158.95 280.182 159.757 267.081 163.587 254.22C170.946 229.501 185.678 210.324 207.653 196.867C220.921 188.742 235.393 184.299 251.05 184.119C256.465 184.057 261.823 184.64 267.12 185.758C267.868 185.915 268.349 185.848 268.858 185.165C279.495 170.883 287.161 155.104 292.436 138.149C296.491 125.12 298.727 111.774 298.547 98.0979C298.473 92.4985 297.795 86.9183 296.385 81.4935C294.482 74.1736 292.239 66.9724 287.611 60.7722C282.391 53.7802 275.716 48.6958 267.655 45.4702C264.922 44.3764 261.913 44.2462 259.001 44.0156C249.495 43.2627 239.995 43.7043 230.576 44.9947C226.296 45.5806 221.934 45.9809 217.757 47.1972C211.588 48.994 205.592 51.2981 199.628 53.6879C193.901 55.9822 188.999 59.6827 183.835 62.9132C176.78 67.3277 170.693 72.9688 164.861 78.8769C160.39 83.4055 155.961 87.9704 152.311 93.2151C150.173 96.2875 148.163 99.4389 146.443 102.771C144.557 106.423 144.935 109.923 147.46 113.039C161.163 129.955 165.629 149.456 163.385 170.699C160.958 193.687 151.635 213.729 136.427 231.027C125.004 244.019 111.275 253.73 94.6018 258.798C79.2571 263.464 64.0951 263.106 49.3906 256.126C44.1053 253.617 39.4268 250.221 35.2177 246.171C34.6516 245.627 34.0601 245.203 33.2782 245.026C32.2442 244.792 31.3442 244.244 30.4496 243.695C19.5511 236.998 12.1099 227.404 7.21062 215.744C2.00326 203.35 0.366863 190.371 1.45359 177.048C2.97247 158.426 9.19022 141.489 20.3133 126.448C28.7331 115.062 39.206 106.136 52.3982 100.662C58.89 97.9678 65.647 96.1837 72.6989 96.3396C76.0002 96.4132 79.1709 95.925 82.3926 95.5615C83.1158 95.4802 83.5062 95.1579 83.8439 94.5237C94.2927 74.9061 108.756 58.618 125.598 44.3193C134.484 36.7765 143.824 29.852 153.903 23.9687C170.284 14.4067 187.6 7.17531 206.216 3.27816C218.553 0.696174 231.014 -0.107747 243.573 1.17776C252.853 2.12774 261.726 4.55323 270.294 8.30157C279.365 12.2706 287.865 17.104 295.903 22.9083C301.682 27.0811 306.504 32.183 311.336 37.274C323.855 50.4601 333.439 65.6457 340.349 82.4083C344.722 93.0147 347.702 104.105 349.333 115.511C350.224 121.737 350.774 127.986 350.83 135.469ZM26.6771 195.112C26.6447 198.988 26.9061 202.838 27.5195 206.664C29.0873 216.442 32.41 225.494 38.5871 233.357C47.5247 244.734 59.3611 250.323 73.7005 250.765C80.2427 250.967 86.6143 249.791 92.8128 247.752C107.295 242.989 119.112 234.257 128.939 222.815C142.453 207.082 150.551 188.917 152.526 168.168C153.56 157.311 152.421 146.706 148.506 136.473C145.291 128.07 140.391 120.839 133.298 115.224C124.533 108.285 114.441 105.268 103.353 105.609C91.1967 105.984 80.156 110.006 70.0422 116.567C53.8649 127.061 42.28 141.468 34.5423 159.034C29.4843 170.519 26.7623 182.535 26.6771 195.112ZM221.254 294.556C221.189 298.121 221.612 301.626 222.519 305.065C224.594 312.932 228.558 319.504 235.667 323.841C242.919 328.265 250.817 329.005 258.959 327.476C270.292 325.346 279.827 319.679 288.106 311.834C295.341 304.977 301.039 296.982 304.973 287.798C308.876 278.686 310.965 269.235 309.998 259.247C309.495 254.053 308.103 249.141 305.531 244.594C302.66 239.516 298.63 235.61 293.354 233.094C286.592 229.87 279.459 229.497 272.239 230.895C260.997 233.071 251.567 238.758 243.347 246.532C236.253 253.24 230.699 261.086 226.744 270.031C223.29 277.84 221.263 285.976 221.254 294.556ZM312.329 55.0047C312.229 55.1749 312.149 55.2496 312.161 55.3018C312.225 55.5725 312.296 55.8443 312.397 56.103C316.459 66.4551 319.183 77.1471 320.287 88.2142C321.094 96.3078 321.222 104.423 320.648 112.554C320.152 119.585 319.2 126.548 317.821 133.447C314.895 148.077 310.065 162.079 303.598 175.517C300.09 182.806 296.089 189.806 291.626 196.562C287.813 202.333 284.245 208.265 279.865 213.646C278.633 215.16 277.413 216.684 276.17 218.227C276.623 218.511 276.983 218.388 277.323 218.343C280.137 217.974 282.981 217.941 285.739 218.495C293.078 219.971 300.127 222.283 306.4 226.53C306.954 226.905 307.294 226.878 307.709 226.375C308.965 224.854 310.271 223.376 311.516 221.848C320.558 210.737 327.603 198.463 332.862 185.152C336.748 175.315 339.46 165.159 341.063 154.707C342.059 148.215 342.511 141.672 342.483 135.117C342.458 129.25 342.055 123.394 341.173 117.574C339.86 108.908 337.772 100.445 334.361 92.3733C329.236 80.2497 322.952 68.7548 315.006 58.2198C314.177 57.1216 313.449 55.9108 312.329 55.0047ZM313.131 101.984C313.215 97.5801 312.8 92.415 312.16 87.2593C311.346 80.7055 310.193 74.2175 308.222 67.9086C303.31 52.1882 295.498 38.2229 283.189 27.0284C281.287 25.2992 279.412 23.5233 277.148 22.2411C272.792 19.7744 268.2 17.8393 263.501 16.1365C251.459 11.7726 239.034 10.1883 226.265 10.8028C218.769 11.1636 211.384 12.219 204.092 13.9147C189.606 17.2836 175.946 22.7276 163.114 30.2726C151.175 37.2926 140.02 45.3626 129.904 54.8339C122.165 62.0808 115.032 69.8767 108.67 78.3788C104.907 83.4083 101.348 88.57 97.9856 93.8713C97.8214 94.1299 97.4963 94.3628 97.6583 94.7224C97.7813 94.9959 98.0712 94.8927 98.3019 94.8751C99.9437 94.7521 101.584 94.5967 103.228 94.5143C103.808 94.4852 104.051 94.2123 104.301 93.7401C108.387 86.01 112.891 78.6056 119.235 72.4159C124.537 67.242 129.811 62.0533 135.521 57.322C145.968 48.6651 157.182 41.1618 169.148 34.7689C179.438 29.2716 190.268 25.0598 201.279 21.3015C209.558 18.4752 218.045 16.5401 226.8 15.8855C232.928 15.4281 239.009 15.5615 245.034 16.9074C249.153 17.8283 252.87 19.809 256.769 21.3032C261.927 23.2795 266.931 25.6748 271.514 28.7263C276.956 32.3494 281.592 36.9599 285.864 41.9229C294.126 51.5227 299.607 62.5678 302.951 74.7156C305.82 85.1369 306.878 95.7729 306.645 106.569C306.541 111.361 306.186 116.132 305.54 120.867C304.235 130.444 302.092 139.831 298.94 148.991C295.792 158.144 292.001 167 287.452 175.543C280.996 187.667 273.257 198.904 264.3 209.307C263.782 209.91 263.922 210.221 264.408 210.682C265.546 211.762 266.689 212.845 267.75 214C268.421 214.732 268.849 214.538 269.373 213.88C272.898 209.464 276.805 205.355 279.702 200.436C281.765 196.933 284.523 193.864 286.704 190.459C296.967 174.434 304.158 157.062 308.726 138.595C311.636 126.831 313.171 114.903 313.131 101.984ZM241.532 338.146C240.724 337.902 239.907 337.744 239.051 337.775C236.433 337.87 233.821 337.84 231.211 337.565C219.935 336.373 209.904 332.274 201.613 324.457C190.33 313.819 185.274 300.414 184.807 285.128C184.615 278.827 185.375 272.618 186.868 266.47C188.321 260.487 190.412 254.767 193.172 249.284C199.728 236.262 208.968 225.543 220.941 217.217C230.548 210.539 241.102 206.195 252.733 204.598C253.539 204.487 254.164 204.174 254.683 203.544C256.525 201.308 258.395 199.094 260.246 196.865C260.447 196.624 260.776 196.369 260.673 196.041C260.539 195.606 260.068 195.735 259.732 195.695C255.485 195.196 251.235 195.111 246.961 195.404C237.85 196.03 229.197 198.373 220.963 202.252C209.084 207.848 199.004 215.78 190.713 225.963C182.778 235.709 177.024 246.59 173.808 258.768C170.477 271.383 170.035 284.039 173.484 296.705C177.019 309.686 183.945 320.47 194.891 328.396C208.937 338.565 224.711 340.978 241.532 338.146ZM265.266 34.4949C265.032 33.815 264.531 33.6712 264.124 33.4592C257.16 29.8306 250.129 26.4897 242.229 25.2108C235.313 24.0911 228.44 23.503 221.474 24.4288C215.849 25.1762 210.349 26.51 204.856 27.8883C200.941 28.8707 197.3 30.6032 193.516 31.9387C186.595 34.3812 179.878 37.2317 173.399 40.6863C161.54 47.01 150.842 54.9333 140.976 64.0142C135.763 68.8125 130.711 73.7711 126.066 79.1328C122.089 83.7235 118.229 88.4081 114.516 93.2146C113.945 93.9542 113.704 94.4506 114.997 94.4995C115.591 94.5215 116.183 94.7087 116.765 94.863C122.213 96.3078 127.537 98.1172 132.684 100.417C133.679 100.862 134.219 100.795 134.708 99.7113C135.534 97.881 136.455 96.081 137.768 94.5286C138.839 93.2618 139.672 91.8549 140.444 90.386C145.308 81.1327 151.543 72.9727 159.738 66.3903C163.604 63.2844 167.896 60.7941 171.933 57.9359C182.117 50.7237 193.153 45.1408 204.916 41.0525C212.461 38.4299 220.115 36.2328 228.16 35.4432C232.821 34.9863 237.469 34.2302 242.144 33.7541C245.492 33.4131 248.814 33.8343 252.149 33.831C256.351 33.8266 260.548 33.9452 264.717 34.5432C264.866 34.564 265.024 34.5179 265.266 34.4949ZM217.828 322.359C217.975 321.748 217.703 321.523 217.535 321.259C215.7 318.358 214.18 315.303 213.065 312.05C210.304 303.995 209.658 295.751 210.584 287.305C211.499 278.965 213.958 271.115 217.537 263.578C222.182 253.797 228.474 245.238 236.432 237.875C240.349 234.25 244.574 231.073 249.108 228.281C252.477 226.207 256.046 224.537 259.689 223.016C260.364 222.735 260.617 222.495 259.966 221.865C258.055 220.018 256.178 218.136 254.311 216.244C253.858 215.786 253.364 215.699 252.774 215.793C247.463 216.643 242.357 218.152 237.48 220.444C227.706 225.037 219.401 231.509 212.515 239.82C205.666 248.084 200.689 257.319 197.955 267.732C195.579 276.785 195.049 285.898 197.154 295.065C199.302 304.421 203.881 312.333 211.461 318.363C213.403 319.907 215.472 321.276 217.828 322.359ZM60.0882 109.906C60.0168 109.827 59.9459 109.749 59.8746 109.671C59.4616 109.805 59.0443 109.926 58.6368 110.075C48.0008 113.963 39.4086 120.703 32.1541 129.238C27.151 135.124 23.1655 141.674 19.9751 148.713C15.5436 158.49 13.0077 168.746 12.3598 179.438C11.898 187.055 12.3894 194.634 14.2735 202.07C14.8676 204.416 15.5156 206.752 16.5721 208.964C13.8034 189.685 16.945 171.296 24.848 153.653C32.7505 136.012 44.4298 121.354 60.0882 109.906ZM317.781 229.398C316.469 230.907 315.212 232.346 313.967 233.794C313.653 234.159 313.89 234.459 314.132 234.749C317 238.205 319.23 241.98 320.059 246.493C320.324 240.703 320.424 234.949 317.781 229.398ZM312.015 54.7845L312.057 54.7054L311.985 54.6994L312.015 54.7845Z" fill="#222222"/>
<path d="M26.6774 195.112C26.762 182.535 29.4845 170.519 34.5431 159.035C42.2808 141.469 53.8657 127.061 70.0424 116.568C80.1568 110.007 91.1975 105.985 103.354 105.61C114.442 105.268 124.533 108.285 133.298 115.224C140.392 120.84 145.291 128.071 148.507 136.473C152.422 146.707 153.561 157.311 152.527 168.168C150.551 188.917 142.454 207.082 128.94 222.816C119.112 234.258 107.296 242.989 92.8136 247.753C86.6145 249.792 80.243 250.967 73.7013 250.766C59.3619 250.324 47.5255 244.734 38.5879 233.358C32.4108 225.496 29.0875 216.442 27.5203 206.664C26.9069 202.838 26.6455 198.988 26.6774 195.112ZM127.964 167.472C128.022 162.621 127.385 157.781 125.719 153.239C123.196 146.36 118.102 140.227 111.298 137.505C97.0896 131.822 82.5576 141.743 73.6974 152.218C66.1365 161.157 61.1136 172.199 58.9089 183.671C57.4026 191.511 57.1231 199.767 59.6129 207.352C62.1026 214.938 67.6686 221.772 75.1927 224.441C81.0068 226.503 87.5486 225.946 93.2924 223.696C99.0363 221.445 104.044 217.6 108.376 213.208C118.549 202.897 125.308 189.273 127.365 174.936C127.719 172.471 127.934 169.97 127.964 167.472Z" fill="#F0DADA"/>
<path d="M221.254 294.556C221.264 285.976 223.29 277.84 226.744 270.031C230.699 261.085 236.254 253.24 243.348 246.531C251.568 238.758 260.998 233.071 272.239 230.894C279.459 229.497 286.594 229.87 293.354 233.094C298.629 235.609 302.66 239.516 305.532 244.594C308.102 249.14 309.496 254.053 309.998 259.246C310.965 269.235 308.877 278.685 304.973 287.798C301.039 296.982 295.341 304.977 288.106 311.834C279.827 319.679 270.292 325.346 258.958 327.476C250.816 329.005 242.919 328.264 235.667 323.841C228.558 319.504 224.593 312.932 222.52 305.064C221.613 301.626 221.188 298.121 221.254 294.556ZM245.321 288.81C245.42 290.108 245.5 291.346 245.632 292.59C246.681 302.54 253.134 309.282 263.018 310.73C263.861 310.854 264.749 311.1 265.504 310.686C266.727 310.018 267.913 310.346 269.131 310.529C269.685 310.612 270.246 310.693 270.805 310.701C276.417 310.773 281.212 308.636 285.196 304.864C291.62 298.782 296.19 291.642 296.772 282.502C297.055 278.063 296.073 273.979 293.272 270.4C292.403 269.29 291.252 268.471 290.48 267.255C284.595 257.986 273.821 254.672 263.956 259.459C251.781 265.369 246.231 275.679 245.321 288.81Z" fill="#F64068"/>
<path d="M312.33 55.0049C313.45 55.911 314.176 57.1218 315.005 58.2195C322.951 68.755 329.236 80.2494 334.36 92.373C337.772 100.445 339.86 108.908 341.172 117.574C342.054 123.393 342.456 129.25 342.482 135.117C342.511 141.671 342.058 148.215 341.062 154.707C339.46 165.159 336.748 175.314 332.861 185.151C327.602 198.462 320.557 210.737 311.515 221.847C310.271 223.375 308.964 224.854 307.709 226.374C307.294 226.877 306.954 226.904 306.4 226.529C300.126 222.283 293.077 219.97 285.738 218.494C282.979 217.94 280.136 217.974 277.322 218.342C276.983 218.387 276.623 218.51 276.168 218.226C277.413 216.684 278.632 215.159 279.865 213.645C284.244 208.265 287.812 202.333 291.625 196.561C296.089 189.805 300.09 182.805 303.597 175.516C310.064 162.078 314.894 148.076 317.82 133.446C319.2 126.547 320.151 119.583 320.647 112.552C321.221 104.422 321.094 96.3069 320.286 88.2133C319.182 77.1468 316.458 66.4548 312.396 56.1026C312.294 55.844 312.225 55.5716 312.16 55.3009C312.149 55.2493 312.23 55.1752 312.33 55.0049Z" fill="#F64068"/>
<path d="M313.131 101.985C313.171 114.903 311.636 126.831 308.727 138.594C304.159 157.062 296.969 174.434 286.705 190.459C284.524 193.863 281.766 196.933 279.703 200.436C276.806 205.355 272.899 209.463 269.374 213.88C268.85 214.537 268.422 214.731 267.75 213.999C266.689 212.844 265.547 211.761 264.408 210.681C263.923 210.22 263.782 209.91 264.301 209.307C273.259 198.904 280.997 187.666 287.453 175.543C292.001 167 295.793 158.143 298.941 148.99C302.093 139.83 304.235 130.442 305.541 120.866C306.187 116.131 306.542 111.36 306.646 106.568C306.879 95.7732 305.821 85.1372 302.952 74.7159C299.607 62.5676 294.127 51.523 285.864 41.9232C281.593 36.9596 276.957 32.3497 271.515 28.7266C265.701 24.8547 259.044 22.0141 252.531 19.5243C244.157 16.3229 235.701 15.2208 226.802 15.8858C218.046 16.5398 209.559 18.4755 201.28 21.3013C190.269 25.0601 179.439 29.2719 169.149 34.7692C157.183 41.1621 145.97 48.6653 135.523 57.3223C129.812 62.0536 124.538 67.2417 119.236 72.4161C112.893 78.6053 108.388 86.0098 104.303 93.7404C104.053 94.2121 103.81 94.4855 103.23 94.5141C101.585 94.597 99.9452 94.7518 98.3033 94.8754C98.0727 94.893 97.7828 94.9962 97.6598 94.7222C97.4978 94.3631 97.8228 94.1297 97.987 93.8711C101.35 88.5703 104.909 83.4085 108.672 78.3791C115.033 69.877 122.167 62.0805 129.906 54.8342C140.021 45.3629 151.176 37.2929 163.116 30.2724C175.947 22.7279 189.608 17.2839 204.094 13.915C211.386 12.2187 218.771 11.1633 226.267 10.8031C239.036 10.1886 251.461 11.7723 263.504 16.1368C268.201 17.839 272.794 19.7747 277.15 22.2414C279.413 23.5236 281.289 25.2989 283.191 27.0281C295.5 38.2226 303.312 52.1885 308.224 67.9084C310.195 74.2178 311.348 80.7057 312.162 87.2596C312.801 92.4153 313.216 97.5809 313.131 101.985Z" fill="#F64068"/>
<path d="M241.532 338.146C224.711 340.978 208.938 338.566 194.892 328.396C183.945 320.47 177.02 309.686 173.485 296.705C170.037 284.04 170.478 271.383 173.809 258.768C177.025 246.589 182.778 235.709 190.714 225.963C199.006 215.78 209.084 207.849 220.964 202.252C229.197 198.373 237.85 196.03 246.961 195.404C251.236 195.111 255.486 195.196 259.733 195.695C260.069 195.735 260.54 195.606 260.675 196.041C260.776 196.369 260.447 196.624 260.247 196.865C258.396 199.094 256.527 201.308 254.684 203.544C254.165 204.174 253.54 204.487 252.733 204.598C241.102 206.195 230.549 210.539 220.942 217.218C208.968 225.542 199.728 236.262 193.172 249.284C190.412 254.766 188.321 260.486 186.869 266.47C185.376 272.618 184.615 278.827 184.808 285.128C185.274 300.414 190.331 313.819 201.614 324.457C209.905 332.274 219.936 336.374 231.212 337.565C233.821 337.84 236.435 337.87 239.051 337.775C239.907 337.744 240.724 337.902 241.532 338.146Z" fill="#F0DADA"/>
<path d="M265.267 34.4947C265.024 34.5183 259.415 34.0527 255.213 34.0565C251.878 34.0598 246.529 33.7155 243.181 34.0565C238.506 34.5326 232.821 34.9862 228.16 35.4436C220.115 36.2327 212.462 38.4297 204.916 41.0524C193.153 45.1406 182.117 50.7236 171.933 57.9358C167.897 60.794 164.745 63.9745 160.878 67.0804C152.683 73.6628 135.534 97.8809 134.708 99.7111C134.219 100.794 133.68 100.862 132.685 100.417C127.538 98.117 122.213 96.3076 116.765 94.8629C116.184 94.7086 115.591 94.5213 114.998 94.4994C113.704 94.4505 113.946 93.9541 114.517 93.2144C118.23 88.4085 122.09 83.7233 126.066 79.1326C130.711 73.771 135.764 68.8123 140.977 64.0141C150.843 54.9332 161.541 47.0098 173.4 40.6861C179.878 37.2316 186.596 34.3816 193.517 31.9385C197.301 30.603 200.941 28.8706 204.856 27.8882C210.35 26.5099 215.85 25.176 221.474 24.4287C228.441 23.5028 235.313 24.091 242.23 25.2106C250.129 26.4895 257.16 29.8304 264.125 33.4591C264.531 33.6716 265.032 33.8149 265.267 34.4947Z" fill="#F64068"/>
<path d="M217.828 322.359C215.471 321.276 213.402 319.907 211.462 318.364C203.882 312.333 199.302 304.421 197.155 295.066C195.049 285.899 195.579 276.785 197.956 267.733C200.69 257.32 205.667 248.085 212.515 239.82C219.402 231.51 227.706 225.037 237.48 220.444C242.357 218.152 247.462 216.643 252.774 215.794C253.364 215.7 253.859 215.786 254.312 216.245C256.178 218.136 258.055 220.018 259.967 221.865C260.618 222.495 260.365 222.735 259.69 223.017C256.047 224.538 252.478 226.208 249.108 228.282C244.575 231.073 240.349 234.251 236.432 237.876C228.474 245.238 222.182 253.797 217.538 263.579C213.958 271.116 211.5 278.966 210.585 287.305C209.658 295.751 210.304 303.996 213.065 312.051C214.179 315.303 215.7 318.357 217.536 321.26C217.702 321.523 217.975 321.748 217.828 322.359Z" fill="#F64068"/>
<path d="M60.0877 109.906C44.4299 121.354 32.7505 136.012 24.8475 153.653C16.9445 171.296 13.8035 189.685 16.5716 208.964C15.5151 206.752 14.8677 204.416 14.273 202.069C12.3889 194.633 11.8975 187.055 12.3593 179.437C13.0073 168.746 15.5437 158.49 19.9746 148.713C23.165 141.674 27.1505 135.124 32.1536 129.238C39.4087 120.703 48.0003 113.963 58.6363 110.075C59.0438 109.925 59.4617 109.805 59.8746 109.67C59.9455 109.749 60.0168 109.827 60.0877 109.906Z" fill="#F64068"/>
<path d="M317.782 229.398C320.425 234.948 320.324 240.703 320.059 246.494C319.23 241.98 317 238.205 314.132 234.75C313.891 234.459 313.653 234.159 313.967 233.794C315.213 232.346 316.47 230.908 317.782 229.398Z" fill="#F0DADA"/>
<path d="M312.015 54.7847L311.985 54.7002L312.057 54.7062L312.015 54.7847Z" fill="#C84140"/>
<path d="M127.898 167.471C127.526 182.696 122.34 196.175 113.031 208.126C108.268 214.24 102.524 219.217 95.4999 222.622C93.762 223.464 91.8817 223.983 90.2102 224.978C89.9763 225.118 89.6814 225.2 89.4079 225.222C84.7969 225.6 80.1826 226.114 75.6518 224.594C68.774 222.286 64.1207 217.577 61.14 211.107C58.4378 205.242 57.5575 199.012 57.8271 192.617C58.4652 177.471 63.99 164.17 73.4553 152.485C78.5825 146.156 84.6574 140.89 92.4369 137.999C98.8518 135.616 105.357 134.954 111.866 137.715C118.319 140.452 122.474 145.394 125.086 151.748C127.154 156.776 127.903 162.052 127.898 167.471ZM97.2917 185.81C99.8391 185.429 102.301 185.058 104.763 184.693C105.445 184.592 105.349 184.208 105.154 183.738C103.922 180.77 102.692 177.802 101.486 174.824C101.254 174.249 100.907 174.159 100.354 174.28C98.1577 174.762 95.9596 175.235 93.7532 175.666C93.0849 175.796 93.0042 176.057 93.2342 176.65C94.3391 179.495 95.4148 182.351 96.4928 185.207C96.6526 185.63 96.8711 185.916 97.2917 185.81ZM85.4828 177.432C82.9502 177.976 80.5148 178.51 78.0751 179.02C77.566 179.127 77.5408 179.36 77.7011 179.79C78.6978 182.467 79.684 185.146 80.6521 187.833C80.8207 188.302 81.0733 188.454 81.556 188.372C83.9348 187.97 86.3158 187.577 88.6985 187.199C89.2926 187.105 89.4178 186.86 89.2042 186.295C88.1647 183.549 87.1571 180.791 86.1324 178.039C86.0072 177.702 85.899 177.315 85.4828 177.432ZM116.631 163.505C116.378 161.303 115.927 159.142 115.231 157.031C115.052 156.49 114.79 156.391 114.243 156.517C111.107 157.24 107.962 157.926 104.817 158.611C104.244 158.735 103.97 158.911 104.25 159.58C105.056 161.51 105.809 163.464 106.57 165.413C106.722 165.802 106.936 166.014 107.382 165.932C110.271 165.409 113.161 164.888 116.054 164.378C116.58 164.285 116.692 163.967 116.631 163.505ZM87.2658 204.1C89.694 203.705 92.1953 203.297 94.6966 202.89C95.4544 202.767 95.1617 202.292 95.0151 201.895C94.1639 199.593 93.2968 197.296 92.4462 194.994C92.2744 194.528 92.0811 194.279 91.4847 194.38C89.0647 194.786 86.6354 195.135 84.2072 195.486C83.697 195.559 83.4845 195.723 83.6855 196.268C84.5894 198.722 85.4778 201.182 86.363 203.643C86.5113 204.054 86.7705 204.218 87.2658 204.1ZM69.1402 198.781C69.4461 201.307 70.0754 203.793 71.0792 206.183C71.2791 206.658 71.552 206.885 72.0901 206.786C74.1845 206.4 76.2805 206.019 78.3809 205.663C78.9828 205.562 79.0899 205.293 78.9053 204.751C78.0635 202.276 77.2409 199.796 76.4167 197.315C76.2888 196.931 76.1218 196.698 75.6391 196.79C73.7046 197.158 71.7645 197.502 69.8239 197.838C69.294 197.93 69.0216 198.176 69.1402 198.781ZM90.7291 169.227C93.2211 168.732 95.5878 168.271 97.9501 167.787C98.4801 167.679 98.3636 167.281 98.2263 166.928C97.496 165.055 96.7437 163.191 96.0342 161.31C95.8124 160.722 95.461 160.641 94.9085 160.768C92.7938 161.253 90.6753 161.725 88.5518 162.173C87.9127 162.308 87.7732 162.595 88.011 163.187C88.7451 165.015 89.4513 166.854 90.174 168.687C90.2926 168.988 90.4145 169.312 90.7291 169.227ZM107.723 191.821C105.212 192.229 102.632 192.652 100.051 193.065C99.5459 193.145 99.6305 193.438 99.7562 193.765C100.788 196.473 101.82 199.178 102.85 201.885C103.021 202.336 103.195 202.643 103.659 202.11C105.73 199.732 107.491 197.136 109.008 194.381C109.465 193.552 108.562 191.821 107.723 191.821ZM116.624 171.535C116.752 170.907 116.446 170.699 115.745 170.871C113.833 171.342 111.923 171.821 109.999 172.235C109.271 172.392 109.319 172.762 109.517 173.275C110.765 176.499 112.009 179.723 113.262 182.943C113.358 183.19 113.404 183.548 113.78 183.497C114.057 183.459 114.097 183.157 114.166 182.937C115.334 179.25 116.205 175.498 116.624 171.535ZM80.2359 163.907C79.7049 164.124 78.8093 163.954 78.2925 164.614C76.7973 166.526 75.6935 168.678 74.71 170.881C74.3465 171.695 74.8473 172.346 75.6111 172.205C77.9823 171.767 80.3424 171.27 82.7113 170.82C83.2297 170.721 83.4021 170.525 83.2072 170.006C82.5016 168.124 81.8124 166.236 81.1238 164.348C80.9981 164.004 80.8092 163.792 80.2359 163.907ZM111.106 150.216C107.647 147.184 103.974 146.546 99.9396 147.304C99.3433 147.416 99.3751 147.711 99.5684 148.156C100.048 149.259 100.504 150.373 100.965 151.484C101.108 151.827 101.236 152.176 101.722 152.08C104.743 151.48 107.764 150.88 111.106 150.216ZM70.9024 180.957C69.8761 183.865 69.5125 186.647 69.1391 189.429C69.0705 189.941 69.2402 190.2 69.7932 190.121C70.9057 189.962 72.0188 189.803 73.1329 189.66C73.5327 189.608 73.7337 189.44 73.5964 189.027C72.7249 186.409 71.8502 183.793 70.9024 180.957ZM86.346 154.944C86.5278 154.987 86.5695 155.01 86.6057 155.003C88.0241 154.722 89.4398 154.426 90.8609 154.16C93.2573 153.71 93.259 153.718 92.2579 151.479C92.2414 151.443 92.2293 151.404 92.2184 151.365C92.0591 150.813 91.7791 150.83 91.3282 151.099C89.5611 152.153 87.9313 153.377 86.346 154.944ZM95.881 209.523C93.6186 209.949 91.6885 210.347 89.7451 210.661C89.0609 210.772 88.8616 211.066 89.2267 211.586C89.537 212.028 89.1817 213.276 90.3832 212.747C92.2228 211.937 93.9827 210.971 95.881 209.523ZM76.7149 213.025C78.4089 213.866 79.8153 214.41 81.3605 214.501C81.6455 214.517 82.0238 214.65 82.0744 214.129C82.1792 213.058 81.3056 212.215 80.2271 212.393C79.1706 212.567 78.1195 212.771 76.7149 213.025Z" fill="#222222"/>
<path d="M245.321 288.809C246.231 275.678 251.781 265.369 263.958 259.46C273.822 254.672 284.596 257.986 290.481 267.255C291.253 268.47 292.404 269.29 293.273 270.4C296.074 273.979 297.057 278.063 296.773 282.502C296.191 291.643 291.621 298.781 285.197 304.864C281.213 308.636 276.665 311.184 271.053 311.112C270.494 311.104 269.659 310.87 269.104 310.787C267.886 310.605 269.223 310.284 266.599 310.787C265.843 311.2 263.863 310.854 263.019 310.73C253.134 309.282 246.682 302.539 245.632 292.59C245.5 291.346 245.42 290.108 245.321 288.809ZM279.995 266.063C279.846 265.863 279.796 265.744 279.706 265.685C279.47 265.533 279.225 265.391 278.969 265.276C274.742 263.368 270.509 263.77 266.49 265.693C258.686 269.429 254.246 275.855 252.478 284.207C251.329 289.636 252.345 294.664 255.536 299.228C256.223 300.21 257.095 301 258.204 301.899C252.907 286.295 267.511 267.737 279.995 266.063Z" fill="#222222"/>
<path d="M97.2923 185.81C96.8711 185.916 96.6525 185.63 96.4927 185.206C95.4148 182.351 94.3391 179.495 93.2348 176.649C93.0041 176.056 93.0854 175.796 93.7531 175.665C95.9595 175.234 98.1582 174.761 100.354 174.28C100.908 174.159 101.254 174.248 101.486 174.823C102.692 177.801 103.923 180.77 105.154 183.738C105.348 184.207 105.445 184.592 104.764 184.693C102.301 185.058 99.8397 185.428 97.2923 185.81Z" fill="#F0DADA"/>
<path d="M85.4829 177.432C85.8986 177.316 86.0073 177.703 86.1331 178.04C87.1572 180.791 88.1654 183.549 89.2043 186.295C89.4179 186.86 89.2933 187.106 88.6986 187.2C86.3159 187.578 83.9355 187.97 81.5566 188.372C81.0734 188.453 80.8208 188.301 80.6522 187.833C79.6841 185.146 78.6979 182.466 77.7012 179.79C77.5409 179.36 77.5661 179.127 78.0752 179.02C80.515 178.51 82.9503 177.977 85.4829 177.432Z" fill="#F0DADA"/>
<path d="M116.631 163.505C116.692 163.967 116.58 164.285 116.054 164.378C113.161 164.888 110.271 165.409 107.382 165.933C106.936 166.013 106.722 165.801 106.571 165.413C105.809 163.464 105.056 161.51 104.25 159.579C103.97 158.91 104.244 158.735 104.817 158.61C107.962 157.926 111.107 157.239 114.243 156.517C114.79 156.391 115.052 156.489 115.23 157.031C115.927 159.142 116.378 161.303 116.631 163.505Z" fill="#F0DADA"/>
<path d="M87.2662 204.1C86.7698 204.218 86.5117 204.055 86.3635 203.642C85.4783 201.182 84.5898 198.722 83.6854 196.268C83.4844 195.722 83.6969 195.559 84.207 195.485C86.6358 195.135 89.0652 194.786 91.4846 194.379C92.0815 194.279 92.2748 194.528 92.4467 194.993C93.2967 197.296 94.1638 199.592 95.0149 201.894C95.1616 202.291 95.4542 202.766 94.6964 202.89C92.1952 203.297 89.6945 203.705 87.2662 204.1Z" fill="#F0DADA"/>
<path d="M69.1405 198.781C69.0225 198.177 69.2948 197.931 69.8242 197.839C71.7648 197.502 73.7043 197.158 75.6394 196.79C76.1221 196.698 76.2891 196.931 76.4165 197.315C77.2407 199.796 78.0638 202.276 78.9051 204.751C79.0896 205.293 78.9825 205.562 78.3812 205.664C76.2808 206.019 74.1848 206.4 72.0899 206.786C71.5523 206.885 71.2788 206.658 71.0795 206.182C70.0752 203.793 69.4464 201.306 69.1405 198.781Z" fill="#F0DADA"/>
<path d="M90.7284 169.227C90.4143 169.312 90.2919 168.988 90.1733 168.687C89.4506 166.855 88.7444 165.015 88.0108 163.188C87.773 162.596 87.912 162.308 88.5511 162.173C90.6746 161.726 92.7931 161.254 94.9084 160.768C95.4603 160.641 95.8117 160.722 96.0341 161.31C96.7436 163.191 97.4953 165.056 98.2257 166.929C98.3635 167.282 98.4793 167.679 97.9494 167.787C95.5871 168.271 93.2209 168.732 90.7284 169.227Z" fill="#F0DADA"/>
<path d="M107.723 191.822C108.561 191.822 109.465 193.552 109.008 194.382C107.491 197.136 105.729 199.732 103.659 202.11C103.195 202.644 103.021 202.336 102.85 201.885C101.821 199.178 100.788 196.472 99.7561 193.766C99.6309 193.436 99.5457 193.145 100.05 193.065C102.632 192.652 105.212 192.229 107.723 191.822Z" fill="#F0DADA"/>
<path d="M116.624 171.534C116.205 175.498 115.334 179.25 114.167 182.938C114.098 183.156 114.057 183.459 113.781 183.496C113.404 183.548 113.358 183.19 113.262 182.944C112.01 179.722 110.765 176.498 109.518 173.275C109.32 172.762 109.271 172.391 110 172.235C111.924 171.821 113.834 171.342 115.745 170.871C116.446 170.698 116.753 170.907 116.624 171.534Z" fill="#F0DADA"/>
<path d="M80.2357 163.907C80.809 163.791 80.9984 164.003 81.1236 164.348C81.8123 166.235 82.5014 168.124 83.207 170.006C83.402 170.525 83.2295 170.721 82.7112 170.82C80.3422 171.27 77.9821 171.767 75.611 172.204C74.8471 172.346 74.3463 171.695 74.7098 170.88C75.6933 168.678 76.7971 166.526 78.2923 164.614C78.8091 163.954 79.7042 164.124 80.2357 163.907Z" fill="#F0DADA"/>
<path d="M111.106 150.216C107.764 150.88 104.743 151.48 101.722 152.08C101.237 152.176 101.108 151.828 100.966 151.484C100.504 150.373 100.048 149.26 99.5684 148.156C99.3757 147.712 99.3433 147.416 99.9402 147.304C103.973 146.546 107.647 147.184 111.106 150.216Z" fill="#F0DADA"/>
<path d="M70.9022 180.957C71.8494 183.793 72.7253 186.41 73.5962 189.027C73.7335 189.441 73.5325 189.608 73.1327 189.659C72.018 189.802 70.9055 189.962 69.7929 190.121C69.24 190.199 69.0703 189.941 69.1389 189.428C69.5123 186.648 69.8753 183.865 70.9022 180.957Z" fill="#F0DADA"/>
<path d="M86.3457 154.945C87.931 153.378 89.5608 152.154 91.3279 151.099C91.7788 150.83 92.0583 150.813 92.2181 151.366C92.229 151.404 92.2411 151.443 92.2576 151.479C93.2586 153.718 93.257 153.71 90.8606 154.16C89.4395 154.427 88.0238 154.722 86.6049 155.003C86.5692 155.01 86.5275 154.987 86.3457 154.945Z" fill="#F0DADA"/>
<path d="M95.8809 209.523C93.9825 210.97 92.2231 211.937 90.383 212.747C89.1815 213.276 89.5374 212.028 89.2271 211.586C88.8614 211.066 89.0613 210.773 89.7449 210.662C91.6883 210.347 93.6185 209.95 95.8809 209.523Z" fill="#F0DADA"/>
<path d="M76.7148 213.026C78.119 212.771 79.1705 212.568 80.2271 212.394C81.3055 212.215 82.1792 213.059 82.0743 214.129C82.0238 214.65 81.6455 214.518 81.3605 214.501C79.8152 214.411 78.4089 213.866 76.7148 213.026Z" fill="#F0DADA"/>
<path d="M279.995 266.063C267.512 267.737 252.908 286.295 258.204 301.899C257.095 300.999 256.223 300.21 255.536 299.228C252.345 294.664 251.33 289.636 252.479 284.207C254.247 275.855 258.687 269.429 266.491 265.693C270.509 263.77 274.742 263.368 278.97 265.276C279.226 265.391 279.47 265.533 279.707 265.685C279.796 265.744 279.847 265.863 279.995 266.063Z" fill="#F64068"/>
</svg>
