<svg width="422" height="350" viewBox="0 0 422 350" fill="none" xmlns="http://www.w3.org/2000/svg">
<g clip-path="url(#clip0_36_668)">
<path d="M313.941 337.561C312.912 338.076 312.054 338.934 311.196 339.792C308.88 342.022 306.392 343.909 303.561 345.539C298.071 348.713 291.894 346.826 288.892 341.164C288.034 339.62 287.519 337.99 286.833 336.274C286.576 336.36 286.318 336.446 286.147 336.532C277.912 341.421 268.904 344.338 259.64 346.311C245.228 349.399 230.644 350.343 215.975 349.571C203.88 348.97 191.87 347.341 180.118 344.167C174.799 342.708 169.652 340.993 164.676 338.762C163.733 338.333 163.132 338.419 162.36 339.105C160.13 340.993 157.47 341.85 154.554 341.765C151.894 341.765 149.321 341.164 146.747 340.478C145.804 340.22 145.203 340.392 144.603 341.078C141.858 344.167 138.255 344.681 134.394 343.995C132.679 343.738 131.135 343.137 129.505 342.537C123.757 340.392 118.439 337.39 113.72 333.444C113.377 333.186 113.034 332.843 112.605 332.586C109.345 330.613 107.029 327.782 104.799 324.865C104.37 324.865 104.198 325.122 104.027 325.38C101.625 328.039 98.6226 328.554 95.3628 327.696C93.0466 327.095 90.8162 326.152 88.7574 324.779C83.8677 321.519 79.3211 317.917 75.7182 313.284C74.0883 311.14 72.7157 308.823 71.2574 306.507C70.8285 305.821 70.4853 305.478 69.6275 305.821C65.5099 307.279 61.7354 306.25 58.5613 303.676C52.8996 299.13 48.2672 293.725 45.2648 287.034C44.0638 284.461 42.8628 281.973 42.0907 279.228C41.8334 278.198 41.2329 277.255 40.8898 276.311C40.7182 275.711 40.2893 275.453 39.7746 275.368C35.3996 274.595 32.2255 271.936 29.652 268.591C26.1349 263.958 23.6471 258.811 21.7599 253.321C20.4731 249.632 20.0442 245.772 19.3579 241.997C19.3579 241.569 19.1863 241.225 19.1005 240.796C19.0148 239.167 18.4143 238.137 16.4412 237.88C14.1251 237.537 12.5809 235.735 11.5515 233.676C10.5221 231.703 9.75009 229.559 9.06382 227.5C7.86284 223.468 6.49029 219.436 6.06137 215.233C5.03196 205.625 4.86039 196.017 6.57608 186.409C7.09078 183.407 7.86284 180.404 8.46333 177.488C8.80647 175.944 8.6349 175.944 7.5197 175.6C6.66186 175.343 5.8898 174.914 5.11774 174.485C2.54421 173.027 1.08588 170.882 1.0001 167.794C0.914314 163.419 1.77215 159.301 2.45843 155.012C3.48784 149.007 5.80402 143.431 8.37754 137.941C10.4363 133.48 12.4094 128.934 15.0687 124.73C18.2427 119.755 21.8456 115.037 25.7059 110.49C28.451 107.144 32.054 104.743 35.4854 102.169C36.2574 101.569 37.1153 100.968 37.9731 100.453C38.5736 100.11 38.7452 99.6812 38.402 98.995C34.8849 92.3038 32.826 85.0121 29.7378 78.2352C27.4216 73.1739 25.7059 67.9411 24.076 62.7082C23.3898 60.5636 22.9608 58.419 22.4461 56.1886C22.1888 55.0734 21.9314 53.8724 21.5025 52.7572C19.9584 48.0391 18.929 43.2352 18.3285 38.3455C17.9853 35.6862 17.3849 33.1126 17.2133 30.4533C16.9559 26.4214 16.7844 22.3896 17.3849 18.3577C17.728 16.1273 18.1569 13.9827 18.7574 11.8381C19.7868 8.14939 22.0172 5.49007 25.1912 3.60282C28.1937 1.80135 31.4535 0.600368 34.9706 0.4288C40.2035 0.171447 45.3505 0.686152 50.4976 2.14449C60.1912 4.88958 69.1128 9.35037 77.9486 13.9827C83.7819 16.9852 89.2721 20.5023 94.7623 24.0195C95.7059 24.62 96.7353 24.9631 97.9363 24.9631C100.252 24.9631 102.483 24.9631 104.799 24.8773C108.316 24.7058 111.919 24.9631 115.35 25.6494C120.497 26.6788 125.73 27.6224 130.792 29.3381C132.164 29.767 133.622 30.2817 134.909 30.7965C135.767 31.1396 136.539 31.1396 137.483 30.7965C147.519 27.0219 157.899 24.7915 168.451 23.3332C189.983 20.245 211.686 19.8161 233.39 20.9313C253.978 21.9607 274.394 24.4484 294.554 28.9092C299.272 29.9386 303.904 31.0538 308.537 32.5121C309.223 32.7695 309.909 32.7695 310.595 32.4264C311.368 32.0832 312.14 31.8259 312.826 31.3969C316.171 29.4239 319.946 28.7376 323.72 27.9656C325.779 27.5366 327.924 27.794 330.068 27.9656C331.098 27.9656 331.956 27.794 332.814 27.1935C338.99 22.4754 345.338 18.1004 352.029 14.0685C359.836 9.35037 367.985 5.23272 376.821 2.83076C382.397 1.28664 387.973 0.514585 393.72 1.45821C401.355 2.74498 406.845 6.94841 410.363 13.7254C412.936 18.7009 413.88 24.0195 414.137 29.5097C414.652 39.2891 413.279 48.8969 411.135 58.3332C407.789 73.3455 402.556 87.7572 396.723 101.997C396.122 103.542 396.037 103.627 397.323 104.571C401.269 107.659 404.186 111.605 407.189 115.551C410.706 120.184 413.537 125.159 416.368 130.22C419.627 136.225 421.171 142.659 421.343 149.522C421.343 152.01 420.828 154.326 419.713 156.47C418.941 158.015 417.912 159.387 416.282 160.159C415.51 160.502 415.424 160.931 415.767 161.703C416.882 164.706 417.483 167.794 418.255 170.882C419.198 174.914 420.056 178.946 420.657 182.978C421 184.779 421.171 186.581 421.086 188.382C420.828 191.642 421.086 194.988 420.571 198.247C420.142 200.907 419.198 203.48 417.997 205.882C417.225 207.341 416.024 208.37 414.566 209.056C413.794 209.399 413.622 209.828 413.794 210.6C413.794 210.686 413.794 210.858 413.794 210.944C414.909 215.147 414.909 219.522 415.424 223.897C416.11 229.559 416.024 235.135 415.081 240.796C414.738 243.113 413.88 245.343 412.679 247.402C411.821 248.86 410.792 250.147 409.162 250.747C408.218 251.091 408.046 251.777 408.046 252.635C408.046 258.983 406.674 265.073 404.872 271.164C404.358 272.88 403.671 274.595 402.814 276.225C400.154 280.944 397.495 285.662 394.836 290.294C393.549 292.61 391.662 294.497 389.689 296.299C387.801 298.015 385.485 298.529 382.912 298.358C381.453 298.358 381.368 298.358 380.939 299.644C380.424 301.017 379.652 302.132 378.88 303.333C374.848 309.338 369.701 314.485 364.468 319.461C363.439 320.49 362.323 321.519 361.208 322.377C357.434 325.38 353.23 325.809 348.684 324.436C347.74 324.179 347.225 324.265 346.539 324.951C343.365 328.211 340.363 331.556 337.017 334.644C334.015 337.39 330.755 339.792 327.066 341.593C323.892 343.137 320.718 342.794 317.544 341.593C316.772 341.25 316.086 340.821 315.485 340.22C314.97 339.706 314.456 339.105 313.941 338.505V337.561ZM26.8211 159.13C26.5638 159.988 26.3922 160.76 26.0491 161.532C24.4192 165.392 23.2182 169.424 21.8456 173.284C19.8726 178.946 19.4437 184.865 18.8432 190.784C18.5858 193.444 18.8432 196.103 18.3285 198.676C17.728 202.108 17.2991 205.539 16.7844 208.97C16.3554 212.23 16.0981 215.49 16.3554 218.836C16.527 221.323 18.1569 222.095 20.0442 220.723C21.1594 219.951 22.1888 219.093 23.0466 217.978C24.2476 216.348 25.9633 215.49 27.5932 214.375C28.1937 213.946 28.5368 214.203 28.88 214.718C29.2231 215.147 29.3947 215.662 29.3089 216.176C28.7942 219.694 28.7084 223.125 29.0515 226.728C29.3947 230.331 29.7378 233.848 30.4241 237.365C31.1103 240.968 31.9682 244.485 32.7403 248.002C33.5123 251.777 35.0564 255.294 37.201 258.468C37.8015 259.412 38.402 260.441 39.7746 260.269C41.1471 260.098 41.4903 258.983 41.8334 257.953C42.2623 256.581 42.8628 255.294 43.5491 254.093C43.8064 253.578 43.978 252.892 44.6643 252.892C45.4363 252.892 45.6079 253.664 45.951 254.179C46.0368 254.35 46.1226 254.522 46.1226 254.694C47.4094 257.439 48.0099 260.527 48.7819 263.444C50.2403 268.762 51.527 273.995 53.7574 279.056C55.3015 282.488 56.8456 285.919 58.8187 289.093C60.0197 291.066 61.5638 292.61 63.1079 294.24C63.9657 295.098 64.8236 295.012 65.7672 294.154C66.3677 293.554 66.8824 292.953 67.2255 292.181C68.255 290.122 68.9412 287.978 70.228 286.005C71.0001 284.804 71.6863 284.632 72.8873 285.319C73.402 285.576 73.7452 286.005 74.0025 286.348C74.603 287.12 75.0319 288.064 75.5466 288.921C77.0907 291.667 78.4633 294.583 80.3505 297.157C83.353 301.274 86.1839 305.392 89.1005 309.51C90.4731 311.483 91.9314 313.37 93.4755 315.257C94.2476 316.201 95.277 316.63 96.478 316.287C97.7648 315.944 98.451 315.086 98.7084 313.885C98.88 313.198 98.9657 312.512 98.9657 311.826C99.1373 310.11 99.2231 308.309 99.3947 306.593C99.7378 304.019 100.939 303.505 103.083 304.963C104.456 305.907 105.571 307.108 106.515 308.48C107.544 309.853 108.488 311.225 109.517 312.598C112.777 316.63 116.037 320.576 119.725 324.265C123.071 327.61 126.674 330.527 130.706 333.015C131.478 333.444 132.336 333.701 133.193 333.958C135.252 334.473 136.196 333.701 136.196 331.556C136.196 330.269 135.681 329.069 135.338 327.782C134.738 325.723 133.622 323.75 133.365 321.605C133.279 320.833 132.85 320.061 133.794 319.632C134.652 319.289 134.995 320.147 135.51 320.576C137.568 322.549 139.37 324.694 141.686 326.323C143.059 327.267 144.431 328.382 145.89 329.24C147.863 330.527 149.75 331.985 152.066 332.586C153.353 332.929 154.468 332.843 155.669 332.157C156.527 331.642 157.042 330.784 156.613 329.926C156.012 328.468 155.669 326.752 154.725 325.466C151.122 320.662 148.377 315.257 145.804 309.939C145.632 309.595 145.461 309.167 145.289 308.823C145.289 308.566 145.289 308.223 145.632 308.051C145.89 307.88 146.061 308.051 146.233 308.223C147.519 308.995 148.549 310.024 149.407 311.225C150.608 312.941 151.98 314.571 153.353 316.201C159.358 322.806 166.564 327.61 174.542 331.47C188.782 338.333 203.966 341.336 219.664 341.936C226.269 342.194 232.789 341.765 239.394 340.993C248.917 339.877 258.095 337.733 267.103 334.473C278.598 330.184 289.235 324.35 298.157 315.858C298.414 315.6 298.586 315.257 299.015 315.429C299.358 316.115 298.929 316.63 298.586 317.23C297.642 318.946 296.698 320.662 295.583 322.206C294.64 323.493 294.468 324.865 294.64 326.409C294.983 329.412 295.841 332.243 296.527 335.159C296.956 336.789 298.5 337.475 299.958 336.789C301.331 336.189 302.618 335.502 303.733 334.559C305.448 333.1 306.993 331.47 308.537 329.841C312.654 325.466 316.257 320.747 320.032 316.029C320.546 315.343 321.147 314.657 321.919 314.142C322.691 313.627 323.292 313.713 323.978 314.399C324.578 315.171 324.921 316.029 324.921 316.973C324.921 319.032 324.75 321.091 324.493 323.149C324.321 324.436 324.493 325.723 324.493 327.01C324.664 328.897 326.466 329.583 328.01 328.64C328.782 328.211 329.468 327.696 330.154 327.095C333.843 323.75 336.931 319.89 339.076 315.429C340.019 313.37 341.22 311.397 342.25 309.338C343.794 306.25 345.51 303.247 346.711 299.988C347.397 298.015 348.083 295.956 348.941 294.069C349.542 292.696 350.571 292.01 351.6 292.353C352.544 292.61 352.973 293.725 352.801 295.184C352.201 299.473 352.029 303.848 352.201 308.223C352.201 309.338 352.201 310.453 352.458 311.569C352.973 313.456 354.002 313.885 355.546 312.769C356.318 312.255 357.005 311.569 357.691 310.968C360.265 308.823 362.752 306.507 364.468 303.591C365.669 301.618 366.613 299.559 367.728 297.5C369.615 293.983 371.159 290.294 373.304 286.863C374.333 285.147 375.277 283.431 376.135 281.63C376.907 280.086 377.765 278.627 378.622 277.169C378.966 276.569 379.394 275.711 380.081 275.796C380.767 275.796 380.939 276.826 381.196 277.426C382.14 279.828 382.654 282.402 383.169 284.89C383.255 285.404 383.341 285.919 383.598 286.434C384.113 287.549 385.056 287.806 386 286.948C386.772 286.348 387.458 285.576 387.801 284.632C389.088 281.544 390.804 278.627 391.662 275.368C391.833 274.681 392.176 274.081 392.434 273.395C393.377 271.336 394.064 269.277 394.75 267.132C395.694 264.13 395.951 261.042 396.38 257.953C397.409 251.091 398.782 244.314 398.868 237.365C398.868 236.593 399.039 235.821 399.211 234.963C399.983 235.649 400.412 236.421 400.841 237.022C401.613 238.051 402.47 238.995 403.843 238.823C405.301 238.652 405.816 237.451 406.073 236.164C406.588 234.191 406.845 232.304 406.674 230.245C406.245 226.385 406.159 222.524 405.644 218.664C404.787 212.488 403.757 206.397 402.814 200.22C402.385 197.475 402.042 194.644 401.698 191.814C401.613 190.956 401.441 190.098 401.87 189.24C402.385 188.125 403.328 187.868 404.272 188.725C405.216 189.583 406.159 190.269 407.103 191.127C407.961 191.985 408.819 192.929 409.762 193.701C410.792 194.644 412.164 194.387 412.507 193.272C412.85 191.985 413.365 190.784 413.194 189.326C412.936 187.181 412.078 185.208 411.735 183.149C410.534 176.372 409.247 169.681 407.446 162.99C406.674 160.159 406.245 157.243 404.872 154.583C404.186 153.211 403.671 151.752 403.243 150.294C402.814 148.836 402.213 147.377 401.698 146.005C401.613 145.747 401.441 145.49 401.355 145.233C401.184 144.804 401.355 144.461 401.698 144.118C402.042 143.774 402.385 143.946 402.642 144.118C403.586 144.632 404.443 145.233 405.13 146.005C406.073 147.12 407.274 147.978 408.561 148.75C409.333 149.265 410.105 149.694 411.049 149.093C411.993 148.493 411.735 147.463 411.649 146.519C411.649 146.176 411.478 145.833 411.392 145.49C411.049 144.289 410.534 143.002 410.277 141.801C410.019 140.515 409.505 139.399 408.733 138.284C406.76 135.453 404.701 132.794 402.985 129.792C401.098 126.532 398.696 123.615 396.208 120.784C394.235 118.554 392.176 116.323 390.203 114.093C387.458 111.091 385.056 107.831 384.713 103.542C384.542 101.14 384.284 98.7376 385.056 96.3357C386.343 92.218 387.801 88.1004 389.946 84.2401C390.975 82.4386 391.662 80.5513 392.434 78.5783C393.12 76.6911 393.806 74.718 394.664 72.8308C398.095 65.2817 401.012 57.5612 403.157 49.4974C404.443 44.6935 405.301 39.718 405.73 34.7425C406.073 29.8528 405.216 25.0489 403.929 20.3308C403.071 17.4999 401.184 15.4411 398.439 14.3259C394.064 12.5244 389.517 12.0097 384.799 12.8675C378.966 13.9827 373.561 16.1273 368.328 18.8724C355.289 25.7352 343.966 34.8283 333.157 44.6935C328.353 49.0685 323.549 53.3577 319.431 58.419C318.745 59.1911 317.973 59.62 316.943 59.2768C315.914 59.0195 315.314 58.2474 315.056 57.1322C314.885 56.5317 314.885 55.9312 315.056 55.4165C315.228 53.9582 315.828 52.6714 316.515 51.4705C318.059 48.8969 320.118 46.8381 322.519 45.0366C324.578 43.4067 326.723 41.8626 328.782 40.2327C329.125 39.9754 329.64 39.8038 329.468 39.2891C329.296 38.6886 328.696 38.7744 328.267 38.8602C327.066 38.8602 325.951 39.1175 324.75 39.2033C322.948 39.2891 321.147 39.5464 319.345 39.9754C315.314 40.919 311.453 42.2058 307.679 43.9214C307.164 44.1788 306.735 44.3504 306.22 44.4362C304.505 44.6935 302.789 43.5783 302.617 41.8626C302.617 40.8332 302.017 40.4901 301.159 40.2327C300.473 40.0612 299.787 39.8038 299.1 39.6322C291.98 37.4876 284.689 35.9435 277.311 34.6567C263.242 32.0832 249.002 30.7964 234.762 30.1102C220.093 29.5097 205.338 29.6813 190.755 31.0538C181.747 31.8259 172.74 33.1126 163.904 34.9999C157.985 36.2866 152.152 37.9165 146.576 40.2327C145.89 40.5759 145.032 40.6616 144.431 41.4337C145.461 42.9778 146.061 44.6077 146.147 46.4092C146.233 48.2107 144.689 49.2401 143.059 48.5538C142.287 48.2107 141.686 47.6102 141.086 47.0955C139.97 46.2376 139.027 45.1224 137.74 44.5219C135.681 43.5783 133.537 42.7205 131.392 41.9484C127.274 40.5759 123.071 39.5465 118.782 38.517C112.863 37.1445 106.943 35.5146 101.024 34.0563C100.51 33.8847 99.9952 33.7989 99.4804 33.7989C98.88 33.7989 98.7942 34.142 98.9657 34.571C99.1373 35.2572 99.7378 35.6004 100.167 36.0293C104.97 40.4043 109.689 44.7793 113.892 49.669C117.152 53.5293 119.554 57.8185 122.042 62.1935C122.127 62.3651 122.299 62.6224 122.385 62.794C122.814 63.9092 122.385 65.3675 121.355 66.0538C120.497 66.6543 119.382 66.5685 118.439 65.7107C117.924 65.2817 117.409 64.767 116.98 64.1665C116.037 62.9656 115.179 61.7646 114.235 60.5636C111.576 57.1322 109.002 53.6151 106.086 50.3553C101.368 45.1224 96.3064 40.3185 91.2452 35.5146C84.3824 29.0808 77.1765 23.1616 69.1986 18.2719C63.7942 14.9263 58.2182 12.0097 51.9559 10.294C49.9829 9.77929 48.0099 9.26458 45.951 9.43615C52.6422 10.8945 58.5613 14.0685 64.3947 17.5857C68.9412 20.4165 73.3162 23.419 77.8628 26.3357C83.8677 30.196 89.1006 34.9999 93.9903 40.2327C96.9927 43.4067 99.7378 46.7523 102.74 49.9263C105.828 53.1862 108.745 56.5317 111.49 60.0489C112.777 61.6788 113.978 63.3087 115.436 64.767C115.779 65.1102 116.122 65.5391 116.38 65.968C117.323 67.5979 116.723 69.142 114.921 69.7425C113.463 70.1714 112.091 69.7425 110.89 68.1984C109.86 66.9974 109.088 65.5391 107.887 64.5097C104.198 61.1641 101.196 57.1322 97.5932 53.6151C95.6202 51.642 93.5613 49.669 91.6741 47.5244C85.5834 40.5759 78.7206 34.571 71.9437 28.3945C66.0246 22.9901 59.076 19.1298 51.527 16.5563C48.353 15.4411 45.179 14.8406 41.8334 15.3553C39.1741 15.7842 37.201 17.843 36.8579 20.5023C36.6863 21.8749 36.9437 23.1616 37.201 24.5342C37.9731 29.5097 38.4878 34.571 39.8604 39.4607C44.5785 56.1028 50.326 72.4018 57.7893 88.0146C59.9339 92.4754 61.8211 97.0219 65.7672 100.368C65.853 100.368 65.9388 100.539 66.0246 100.625C66.7108 101.654 66.8824 102.684 66.2819 103.799C65.6814 104.914 64.3947 105.515 63.1079 105.257C62.1643 105.086 61.3064 104.743 60.6202 104.056C59.4192 102.941 58.3898 101.74 57.6177 100.453C53.0711 92.9043 48.8677 85.1837 45.179 77.12C39.603 64.6813 34.8849 51.9852 32.1398 38.6886C31.1961 34.0563 30.5099 29.4239 30.5956 24.7058C30.5956 21.6175 31.1961 18.7009 32.9976 15.9558C33.8554 14.669 34.3702 13.2107 35.3138 12.0097C34.5417 12.1813 34.1128 12.6102 33.6839 13.0391C29.8236 16.642 28.2795 21.2744 27.8505 26.4214C27.3358 32.4264 28.1079 38.2597 29.3947 44.093C31.7108 54.3871 35.4853 64.0808 39.9461 73.517C44.4927 83.1249 49.8971 92.3038 55.5589 101.311C56.2452 102.341 56.9314 103.456 58.0466 103.97C60.277 105 60.0197 108.517 57.6177 109.632C56.6741 110.061 55.6447 110.233 54.5295 110.319C52.4706 110.319 50.4118 109.89 48.4388 109.461C47.5809 109.203 46.8089 109.461 46.0368 109.804C45.4363 110.147 44.9216 110.662 44.4069 111.176C39.5172 116.667 34.2844 121.814 29.9094 127.733C27.0785 131.593 24.2476 135.539 21.9314 139.743C19.701 143.774 17.3849 147.806 15.2402 151.924C14.0393 154.24 12.8383 156.556 12.152 159.044C11.7231 160.502 12.3236 161.446 13.8677 161.532C14.7255 161.532 15.5834 161.532 16.527 161.36C18.8432 160.76 21.2452 160.245 23.5613 159.73C24.7623 159.473 25.8775 158.872 27.2501 158.787L26.8211 159.13Z" fill="#1F2323"/>
<path d="M26.8212 159.13C25.3629 159.13 24.3335 159.816 23.1325 160.074C20.8163 160.588 18.4143 161.103 16.0982 161.704C15.2403 161.875 14.3825 161.961 13.4388 161.875C11.8947 161.789 11.2942 160.846 11.7232 159.387C12.4952 156.9 13.6104 154.583 14.8114 152.267C16.956 148.15 19.2722 144.118 21.5026 140.086C23.8187 135.882 26.6496 131.936 29.4805 128.076C33.8555 122.157 39.1741 117.01 43.9781 111.52C44.407 111.005 44.9217 110.49 45.608 110.147C46.38 109.718 47.0663 109.632 48.0099 109.804C49.983 110.319 52.0418 110.748 54.1006 110.662C55.2158 110.662 56.1594 110.405 57.1888 109.976C59.6766 108.946 59.9339 105.343 57.6178 104.314C56.4168 103.799 55.8163 102.684 55.13 101.655C49.4683 92.6475 44.0638 83.4684 39.5173 73.8606C35.0565 64.4243 31.282 54.6449 28.9658 44.4366C27.679 38.6032 26.907 32.7699 27.4217 26.765C27.8506 21.7037 29.3947 16.9856 33.255 13.3826C33.6839 12.9537 34.1986 12.439 34.8849 12.3532C33.9413 13.5542 33.4266 15.0126 32.5687 16.2994C30.7673 18.9587 30.2526 21.9612 30.1668 25.0494C30.081 29.7675 30.7673 34.3999 31.7109 39.0323C34.456 52.4146 39.1741 65.1107 44.7501 77.4636C48.3531 85.5274 52.6423 93.2478 57.1888 100.797C58.0467 102.169 59.0761 103.37 60.1913 104.4C60.8776 105.086 61.8212 105.429 62.679 105.601C63.88 105.858 65.1668 105.172 65.8531 104.142C66.4536 103.027 66.3678 101.998 65.5957 100.968C65.5957 100.882 65.4241 100.797 65.3384 100.711C61.3923 97.4514 59.505 92.819 57.3604 88.3582C49.8972 72.7455 44.1496 56.4465 39.4315 39.8043C38.0589 34.9146 37.63 29.8533 36.7722 24.8778C36.5148 23.5053 36.2575 22.2184 36.429 20.8459C36.7722 18.1866 38.7452 16.1277 41.4045 15.6988C44.7501 15.1841 47.9241 15.8704 51.0982 16.8998C58.6472 19.5591 65.5957 23.3337 71.5148 28.7381C78.2918 34.9146 85.2403 40.9194 91.2452 47.8679C93.1325 50.0125 95.1913 51.8998 97.1643 53.9586C100.681 57.4758 103.684 61.5076 107.458 64.8532C108.659 65.8826 109.431 67.341 110.461 68.542C111.662 70.0003 113.034 70.515 114.493 70.0861C116.294 69.4856 116.895 67.9415 115.951 66.3116C115.694 65.8826 115.35 65.4537 115.007 65.1106C113.463 63.738 112.262 62.0224 111.061 60.3924C108.402 56.8753 105.399 53.4439 102.311 50.2699C99.309 47.0959 96.5639 43.7503 93.5614 40.5763C88.6717 35.4292 83.4389 30.6254 77.4339 26.6793C72.9732 23.7626 68.5982 20.6744 63.9658 17.9293C58.2183 14.4122 52.2134 11.238 45.5222 9.77975C47.581 9.60818 49.554 10.1228 51.5271 10.6375C57.7035 12.2674 63.3653 15.2699 68.7697 18.6155C76.7477 23.591 83.9535 29.5101 90.8163 35.8581C95.8776 40.6621 101.024 45.466 105.657 50.6988C108.573 53.9586 111.061 57.4758 113.806 60.9072C114.75 62.1081 115.608 63.3092 116.551 64.5102C116.98 65.0249 117.495 65.5395 118.01 66.0542C118.953 66.9121 120.069 66.9978 120.926 66.3974C121.956 65.7111 122.385 64.2527 121.956 63.1375C121.956 62.8802 121.784 62.7086 121.613 62.5371C119.125 58.1621 116.723 53.8728 113.463 50.0125C109.26 45.0371 104.542 40.7479 99.7379 36.3729C99.2232 35.944 98.7085 35.6008 98.5369 34.9145C98.3653 34.4856 98.5369 34.0567 99.0516 34.1425C99.5663 34.1425 100.081 34.3141 100.596 34.3999C106.515 35.8582 112.434 37.4881 118.353 38.8607C122.556 39.8901 126.76 40.8336 130.963 42.292C133.108 43.064 135.252 43.9219 137.311 44.8655C138.598 45.466 139.627 46.4954 140.657 47.439C141.257 47.9537 141.858 48.5542 142.63 48.8973C144.26 49.5836 145.804 48.5542 145.718 46.7527C145.632 44.9513 145.032 43.3214 144.002 41.7772C144.517 41.091 145.375 40.9194 146.147 40.5763C151.723 38.2601 157.556 36.5445 163.475 35.3435C172.311 33.4563 181.319 32.1695 190.326 31.3974C204.995 30.1107 219.664 29.8533 234.333 30.4538C248.573 31.0543 262.814 32.4268 276.882 35.0003C284.26 36.2871 291.551 37.8313 298.671 39.9759C299.358 40.1474 300.044 40.4047 300.73 40.5763C301.588 40.8336 302.103 41.1768 302.189 42.2062C302.36 43.9219 304.076 45.0371 305.792 44.7797C306.306 44.6939 306.821 44.5223 307.25 44.265C311.024 42.5493 314.885 41.2625 318.917 40.3189C320.718 39.89 322.52 39.6326 324.321 39.5469C325.522 39.5469 326.637 39.2895 327.838 39.2037C328.267 39.2037 328.868 39.118 329.039 39.6327C329.211 40.1474 328.696 40.3189 328.353 40.5763C326.294 42.2062 324.149 43.7503 322.091 45.3802C319.774 47.1817 317.63 49.2405 316.086 51.814C315.399 53.015 314.799 54.3018 314.627 55.7601C314.627 56.3606 314.627 56.9611 314.627 57.4758C314.885 58.5052 315.485 59.2773 316.515 59.6204C317.544 59.8777 318.316 59.6204 319.002 58.7625C323.12 53.7871 327.924 49.4121 332.728 45.0371C343.537 35.1719 354.86 26.0787 367.899 19.216C373.132 16.4709 378.537 14.3263 384.37 13.2111C389.088 12.3532 393.635 12.8679 398.01 14.6694C400.841 15.7846 402.728 17.8435 403.5 20.6744C404.872 25.3925 405.73 30.1964 405.301 35.0861C404.872 40.0616 404.015 44.9513 402.728 49.841C400.583 57.8189 397.581 65.6254 394.235 73.1744C393.377 75.0617 392.691 77.0347 392.005 78.922C391.319 80.8092 390.546 82.7822 389.517 84.5836C387.372 88.4439 385.914 92.4759 384.627 96.6793C383.855 98.9955 384.113 101.397 384.284 103.885C384.627 108.174 387.029 111.434 389.774 114.436C391.747 116.667 393.806 118.897 395.779 121.128C398.267 123.958 400.669 126.789 402.556 130.135C404.272 133.137 406.331 135.797 408.304 138.628C409.076 139.743 409.591 140.858 409.848 142.145C410.105 143.431 410.62 144.632 410.963 145.833C411.049 146.177 411.221 146.52 411.221 146.863C411.306 147.806 411.564 148.836 410.62 149.436C409.762 149.951 408.99 149.522 408.132 149.093C406.845 148.321 405.645 147.463 404.701 146.348C404.015 145.576 403.071 144.976 402.213 144.461C401.87 144.289 401.613 144.118 401.27 144.461C401.012 144.718 400.755 145.061 400.926 145.576C401.012 145.833 401.184 146.091 401.27 146.348C401.87 147.721 402.471 149.179 402.814 150.637C403.243 152.096 403.757 153.554 404.444 154.927C405.73 157.586 406.245 160.503 407.017 163.333C408.819 169.939 410.105 176.716 411.306 183.493C411.649 185.552 412.507 187.525 412.765 189.669C412.936 191.128 412.507 192.329 412.078 193.615C411.735 194.816 410.448 194.988 409.333 194.044C408.39 193.272 407.618 192.329 406.674 191.471C405.816 190.613 404.787 189.927 403.843 189.069C402.899 188.211 402.042 188.468 401.441 189.583C401.012 190.441 401.184 191.299 401.27 192.157C401.613 194.988 401.956 197.733 402.385 200.564C403.328 206.74 404.444 212.831 405.216 219.007C405.73 222.868 405.816 226.728 406.245 230.588C406.502 232.647 406.245 234.534 405.645 236.507C405.301 237.708 404.872 238.995 403.414 239.167C402.042 239.253 401.184 238.395 400.412 237.365C399.897 236.679 399.554 235.993 398.782 235.306C398.696 236.164 398.439 236.936 398.439 237.708C398.439 244.657 397.066 251.52 395.951 258.297C395.436 261.385 395.265 264.473 394.321 267.476C393.635 269.62 392.948 271.679 392.005 273.738C391.747 274.338 391.404 275.025 391.233 275.711C390.375 278.971 388.659 281.887 387.372 284.976C386.944 285.919 386.343 286.691 385.571 287.292C384.627 288.064 383.684 287.892 383.169 286.777C382.997 286.262 382.826 285.748 382.74 285.233C382.225 282.745 381.796 280.172 380.767 277.77C380.51 277.169 380.338 276.226 379.652 276.14C378.88 276.14 378.537 276.912 378.194 277.512C377.336 278.971 376.392 280.429 375.706 281.973C374.848 283.775 373.904 285.576 372.875 287.206C370.73 290.637 369.186 294.326 367.299 297.843C366.184 299.816 365.24 301.961 364.039 303.934C362.323 306.851 359.836 309.081 357.262 311.311C356.576 311.912 355.804 312.512 355.118 313.113C353.573 314.228 352.544 313.799 352.029 311.912C351.772 310.797 351.858 309.681 351.772 308.566C351.6 304.191 351.772 299.902 352.372 295.527C352.544 294.069 352.115 292.954 351.171 292.696C350.142 292.353 349.198 293.039 348.512 294.412C347.654 296.299 346.968 298.358 346.282 300.331C345.167 303.591 343.451 306.593 341.821 309.681C340.792 311.74 339.676 313.713 338.647 315.772C336.502 320.319 333.414 324.093 329.725 327.439C329.039 328.039 328.353 328.554 327.581 328.983C326.037 329.841 324.235 329.24 324.064 327.353C323.978 326.066 323.892 324.78 324.064 323.493C324.321 321.434 324.493 319.375 324.493 317.316C324.493 316.287 324.235 315.429 323.549 314.743C322.948 314.056 322.348 313.971 321.49 314.485C320.718 315 320.203 315.686 319.603 316.373C315.828 321.091 312.225 325.809 308.108 330.184C306.564 331.814 305.02 333.444 303.304 334.902C302.189 335.846 300.816 336.532 299.529 337.132C297.985 337.819 296.441 337.132 296.098 335.503C295.412 332.586 294.554 329.755 294.211 326.753C294.039 325.294 294.211 323.922 295.154 322.549C296.27 321.005 297.127 319.204 298.157 317.574C298.5 317.059 298.843 316.458 298.586 315.772C298.157 315.601 297.899 315.944 297.728 316.201C288.806 324.78 278.169 330.613 266.674 334.816C257.752 338.162 248.488 340.221 238.966 341.336C232.446 342.108 225.841 342.451 219.235 342.28C203.537 341.679 188.353 338.677 174.113 331.814C166.135 327.954 158.929 323.064 152.924 316.544C151.466 315 150.179 313.37 148.978 311.569C148.12 310.368 147.091 309.338 145.804 308.566C145.632 308.48 145.375 308.309 145.203 308.395C144.946 308.566 144.774 308.909 144.86 309.167C144.946 309.596 145.118 309.939 145.375 310.282C148.034 315.686 150.694 321.005 154.296 325.809C155.326 327.181 155.583 328.811 156.184 330.27C156.527 331.128 156.098 331.985 155.24 332.5C154.125 333.186 152.924 333.272 151.637 332.929C149.321 332.329 147.434 330.87 145.461 329.583C144.002 328.64 142.716 327.61 141.257 326.667C138.941 325.037 137.14 322.892 135.081 320.919C134.566 320.49 134.223 319.632 133.365 319.976C132.421 320.405 132.85 321.262 132.936 321.949C133.279 324.093 134.309 326.066 134.909 328.125C135.252 329.326 135.767 330.527 135.767 331.9C135.767 333.958 134.738 334.73 132.765 334.302C131.907 334.13 131.049 333.873 130.277 333.358C126.245 330.87 122.642 327.954 119.296 324.608C115.608 320.919 112.262 316.973 109.088 312.941C108.059 311.569 107.029 310.196 106.086 308.824C105.142 307.451 104.027 306.25 102.654 305.306C100.51 303.848 99.2232 304.363 98.9658 306.936C98.7085 308.652 98.7085 310.454 98.5369 312.169C98.5369 312.855 98.3653 313.542 98.2795 314.228C98.0222 315.515 97.2501 316.373 96.0491 316.63C94.8482 316.973 93.8188 316.544 93.0467 315.601C91.5884 313.713 90.13 311.74 88.6717 309.853C85.755 305.735 82.9241 301.532 79.9217 297.5C78.0344 294.927 76.6619 292.096 75.1178 289.265C74.6031 288.407 74.1741 287.463 73.5737 286.691C73.2305 286.262 72.8874 285.833 72.4585 285.662C71.2575 285.061 70.5712 285.233 69.7991 286.348C68.5124 288.321 67.8261 290.466 66.7967 292.525C66.4536 293.297 65.9388 293.897 65.3384 294.498C64.3947 295.355 63.5369 295.441 62.679 294.583C61.1349 292.954 59.5908 291.409 58.3898 289.436C56.4168 286.177 54.8727 282.831 53.3285 279.4C51.0982 274.338 49.8114 269.105 48.3531 263.787C47.581 260.87 46.9805 257.868 45.6937 255.037C45.6937 254.865 45.608 254.694 45.5222 254.522C45.179 254.007 45.0075 253.235 44.2354 253.235C43.5491 253.235 43.3776 254.007 43.1202 254.436C42.3482 255.637 41.7477 256.924 41.4045 258.297C41.0614 259.326 40.7183 260.527 39.3457 260.613C37.9732 260.784 37.3727 259.755 36.7722 258.811C34.6276 255.552 33.1692 252.12 32.3114 248.346C31.5393 244.743 30.6815 241.226 29.9952 237.708C29.3089 234.191 28.9658 230.674 28.6227 227.071C28.2795 223.554 28.3653 220.037 28.88 216.52C28.88 215.919 28.88 215.49 28.4511 215.061C28.108 214.632 27.7648 214.289 27.1643 214.718C25.5344 215.748 23.9045 216.691 22.6178 218.321C21.8457 219.351 20.7305 220.208 19.6153 221.066C17.6423 222.439 16.0982 221.667 15.9266 219.179C15.6692 215.919 15.9266 212.574 16.3555 209.314C16.7844 205.882 17.2134 202.451 17.8996 199.02C18.3286 196.446 18.157 193.787 18.4143 191.128C19.0148 185.208 19.358 179.289 21.4168 173.628C22.7893 169.681 23.9903 165.65 25.6202 161.875C25.9634 161.103 26.1349 160.331 26.3923 159.473L26.8212 159.13ZM217.091 123.53C216.49 123.015 216.49 122.414 216.319 121.9C215.804 120.098 215.289 118.297 214.603 116.495C214.174 115.208 212.544 114.351 211.343 114.694C209.885 115.123 209.284 116.152 209.713 117.868C211.171 123.958 211.858 130.135 212.801 136.311C213.402 139.914 213.659 143.517 212.544 147.12C212.029 148.836 211.429 150.466 211 152.181C210.142 155.784 208.512 158.873 205.596 161.275C205.167 161.618 204.823 162.047 204.48 162.39C200.534 166.079 196.245 169.338 190.926 170.539C188.439 171.14 187.238 172.598 186.122 174.485C185.951 174.829 185.779 175.086 185.608 175.429C183.978 178.517 182.348 181.52 179.946 184.093C179.088 185.037 178.402 186.152 177.716 187.267C177.029 188.297 176.343 189.326 175.485 190.184C172.054 193.358 168.88 196.875 165.105 199.792C164.247 200.478 163.647 201.25 163.132 202.194C162.36 203.824 161.931 205.454 161.502 207.169C160.902 209.657 160.559 212.145 160.216 214.632C159.529 219.093 158.671 223.554 156.355 227.5C154.811 230.245 152.924 232.733 151.122 235.221C148.549 238.824 145.89 242.341 142.544 245.257C141 246.63 139.284 247.917 137.74 249.375C134.48 252.463 131.735 255.98 129.162 259.583C126.931 262.757 125.559 266.275 124.615 270.049C123.071 276.569 122.814 283.088 125.044 289.522C125.387 290.466 125.902 291.324 126.674 292.01C127.875 292.954 128.904 294.069 129.848 295.27C131.392 297.329 133.451 298.787 135.681 300.074C136.968 300.846 138.426 301.189 139.885 301.275C141.257 301.275 142.801 300.331 143.145 299.302C143.573 298.272 142.973 296.985 141.686 296.042C140.828 295.441 139.885 294.927 139.027 294.326C137.225 293.125 135.51 291.924 134.309 290.208C131.478 286.091 130.534 281.373 131.564 276.397C132.765 270.478 136.282 265.76 139.885 261.042C142.63 257.439 145.718 254.093 148.377 250.49C150.951 246.887 153.61 243.37 156.355 239.939C158.328 237.537 160.387 235.221 162.532 232.905C163.647 231.704 164.333 230.331 164.848 228.787C165.277 227.586 165.363 226.299 165.534 225.012C166.049 221.152 166.392 217.206 166.993 213.346C167.593 209.142 169.309 205.368 170.939 201.507C171.11 200.993 171.625 200.65 172.054 200.392C172.997 199.706 174.027 199.106 174.885 198.333C180.375 193.701 185.179 188.382 189.468 182.635C190.841 180.833 192.385 179.547 194.444 178.689C201.993 175.429 209.885 174.228 218.034 174.314C224.897 174.314 231.588 175.257 238.022 178.003C239.48 178.603 240.939 179.204 242.311 179.976C243.169 180.405 243.684 181.005 244.027 181.863C246.343 187.439 249.689 192.243 253.635 196.789C255.179 198.591 256.895 200.221 258.782 201.593C263.328 204.853 265.902 209.228 266.674 214.632C267.274 218.836 267.875 223.039 267.875 227.243C267.875 229.387 268.475 231.36 269.419 233.333C271.049 236.593 273.537 239.167 275.853 241.912C278.77 245.429 282.544 248.003 285.804 251.177C286.662 252.034 287.777 252.635 288.549 253.664C289.75 255.294 291.294 256.753 292.752 258.211C295.497 261.042 298.414 263.615 300.73 266.875C302.789 269.706 303.904 272.88 304.505 276.226C305.448 281.716 304.076 286.863 301.245 291.581C300.645 292.61 299.872 293.468 299.1 294.412C298.5 295.184 297.899 295.87 297.642 296.814C297.299 297.929 297.899 299.988 298.671 300.503C299.787 301.275 300.816 300.76 301.76 300.245C307.593 296.985 311.196 292.181 311.968 285.49C312.14 284.289 312.14 283.003 312.311 281.802C312.74 278.971 312.311 276.311 311.024 273.738C310.338 272.451 309.652 271.164 309.137 269.792C307.336 264.988 305.02 260.613 301.674 256.667C299.186 253.75 296.784 250.833 293.868 248.346C289.836 245 286.404 241.226 283.488 236.936C281.086 233.505 278.512 230.245 274.738 228.186C274.137 227.843 273.966 227.414 273.966 226.814C273.966 225.012 274.137 223.211 273.966 221.495C273.279 217.12 272.936 212.745 271.993 208.456C271.306 205.539 270.277 202.966 267.618 201.079C264.015 198.591 261.098 195.245 258.267 192.071C253.292 186.495 249.689 179.976 246.343 173.456C245.914 172.598 245.399 172.083 244.542 171.655C241.453 170.196 238.451 168.652 235.62 166.679C233.819 165.392 232.017 164.02 230.301 162.647C227.471 160.417 225.154 157.843 223.868 154.412C223.696 154.069 223.524 153.64 223.353 153.297C220.35 148.15 219.407 142.488 220.007 136.655C220.694 130.392 222.238 124.302 224.211 118.297C224.811 116.495 224.039 115.037 222.152 114.522C220.951 114.179 220.35 114.436 219.921 115.552C219.407 117.01 218.892 118.382 218.463 119.841C218.034 121.128 217.691 122.414 217.348 123.787L217.091 123.53ZM191.613 224.326C190.755 223.382 190.154 222.525 189.382 221.838C188.524 220.98 186.294 220.895 185.265 221.495C184.064 222.181 184.149 223.297 184.321 224.412C184.921 229.044 185.694 233.591 186.551 238.137C187.495 243.113 188.868 247.917 190.412 252.806C190.755 254.007 191.27 255.123 191.956 256.152C192.299 256.667 192.556 257.353 193.243 257.61C194.444 258.039 194.358 258.897 194.186 259.927C194.015 260.784 193.929 261.642 193.5 262.5C192.042 265.331 190.841 268.248 189.125 270.907C187.409 273.566 186.122 276.397 185.007 279.228C184.321 280.944 183.806 282.659 183.549 284.461C183.377 285.833 184.321 287.12 185.694 287.549C186.98 287.892 188.181 287.206 188.696 285.833C188.868 285.49 188.953 285.147 189.039 284.804C189.64 282.831 190.583 281.03 191.784 279.314C192.728 278.027 193.843 276.74 194.701 275.368C197.103 271.679 200.277 268.762 203.966 266.275C205.596 265.159 207.311 264.559 209.113 264.044C209.799 263.873 210.228 263.958 210.657 264.473C212.887 267.047 215.975 267.99 219.235 268.591C220.522 268.848 221.809 268.591 223.01 267.99C224.125 267.476 225.24 266.875 226.098 265.931C226.784 265.159 227.556 265.074 228.5 265.417C229.015 265.674 229.615 265.931 230.044 266.189C232.532 267.819 234.848 269.534 236.993 271.507C240.767 275.025 244.027 278.885 246.343 283.517C246.6 283.946 246.858 284.461 247.201 284.89C247.973 285.748 248.831 285.919 249.689 285.405C250.546 284.976 250.975 284.032 250.718 283.003C250.546 282.402 250.289 281.802 249.946 281.201C248.573 278.37 246.858 275.797 245.142 273.223C244.198 271.765 243.426 270.306 242.912 268.677C242.225 266.275 241.625 263.873 241.196 261.471C240.853 259.412 241.024 257.267 240.681 255.123C240.252 252.378 240.081 249.632 240.252 246.887C240.424 244.4 240.595 241.998 241.796 239.596C244.027 235.306 243.855 230.76 241.453 226.471C240.081 224.069 237.936 222.439 235.877 220.637C234.762 219.608 233.39 219.093 231.931 218.75C230.645 218.493 229.272 218.15 227.899 218.493C227.385 218.579 226.956 218.493 226.527 218.235C224.125 216.863 221.98 215.319 220.265 213.174C219.578 212.23 219.149 211.287 219.235 210.086C219.407 207.255 219.235 204.338 219.578 201.422C219.578 200.735 219.922 200.306 220.522 200.135C222.238 199.62 223.439 198.419 224.554 197.132C225.154 196.446 225.755 195.846 226.355 195.159C226.956 194.559 227.642 194.216 228.5 194.044C232.703 193.358 236.478 194.645 240.081 196.618C241.024 197.132 241.711 197.218 242.225 196.446C242.74 195.76 242.569 194.902 241.796 194.302C241.11 193.787 240.338 193.358 239.48 193.101C238.451 192.757 237.507 192.157 236.649 191.471C239.738 188.211 238.966 184.265 236.392 181.605C235.191 180.405 233.647 179.632 231.931 179.118C228.414 178.003 224.811 177.745 221.122 177.402C216.662 177.059 212.201 176.802 207.74 177.402C205.338 177.659 202.936 178.003 200.792 179.118C198.733 180.147 197.189 181.691 196.331 183.922C195.559 185.809 195.902 187.525 197.189 188.983C197.446 189.326 197.789 189.583 198.046 189.927C198.561 190.613 198.475 191.042 197.618 191.471C196.76 191.9 195.902 192.243 195.044 192.586C194.1 192.929 193.328 193.358 192.642 194.044C191.87 194.731 191.698 195.417 192.127 196.017C192.556 196.704 193.243 196.789 194.186 196.36C194.358 196.275 194.615 196.103 194.787 196.017C198.304 194.387 201.907 193.358 205.853 193.358C206.625 193.358 207.225 193.615 207.654 194.216C208.512 195.331 209.37 196.446 210.142 197.647C211 198.934 211.944 199.963 213.402 200.478C214.174 200.735 214.431 201.25 214.431 202.022C214.431 205.282 214.431 208.456 214.603 211.716C214.603 213.431 214.088 215.061 213.316 216.605C212.887 217.549 212.115 217.978 211.086 217.978C206.024 218.235 200.963 218.15 195.902 217.978C195.216 217.978 194.529 217.806 193.843 217.806C192.814 217.806 191.784 217.463 190.755 217.206C189.897 216.949 189.211 217.206 188.782 217.892C188.439 218.579 188.782 219.351 189.64 219.951C190.069 220.208 190.583 220.466 191.098 220.637C191.87 220.895 192.728 221.152 193.671 221.409C192.899 222.353 192.299 223.297 191.698 224.498L191.613 224.326ZM99.6521 180.919C98.7942 180.919 98.2795 180.405 97.7648 180.147C95.9634 179.375 94.2477 178.517 92.2746 178.26C90.7305 178.003 89.4438 178.86 89.0148 180.319C88.6717 181.691 89.4438 183.064 90.9021 183.664C91.1594 183.664 91.331 183.836 91.5884 183.836C93.3898 184.179 95.0197 185.037 96.6496 185.895C101.024 188.382 104.885 191.471 108.573 194.902C113.978 199.878 118.868 205.368 122.299 211.973C122.471 212.402 122.814 212.831 123.071 213.088C124.015 214.032 125.216 214.204 126.331 213.603C127.446 213.003 127.961 211.802 127.703 210.429C127.532 209.571 127.103 208.885 126.76 208.199C125.301 205.539 123.586 203.137 121.784 200.735C121.098 199.878 120.412 198.934 119.897 197.733C121.613 197.99 123.071 198.762 124.615 199.191C127.103 199.792 129.676 200.221 132.164 200.821C134.137 201.336 136.11 201.593 138.083 201.336C142.458 200.821 146.747 199.963 150.779 198.162C154.382 196.532 157.728 194.559 160.902 192.243C161.846 191.556 162.618 190.613 163.561 189.927C166.135 187.868 168.279 185.38 170.681 183.15C172.311 181.691 173.341 179.718 175.056 178.431C175.571 178.003 175.657 177.316 175.571 176.63C175.485 175.772 175.056 175.086 174.284 174.571C173.341 173.885 172.397 173.284 171.625 172.598C168.194 169.51 165.277 165.993 162.36 162.476C161.502 161.446 160.73 160.503 160.13 159.302C158.843 156.385 157.471 153.554 156.27 150.637C155.412 148.321 154.125 146.177 153.696 143.775C153.267 141.458 152.752 139.142 152.323 136.826C152.238 136.226 152.238 135.625 152.066 135.11C151.637 133.738 150.608 133.052 149.149 133.137C147.863 133.223 146.919 134.167 146.747 135.539C146.747 136.054 146.747 136.569 146.747 137.083C147.348 141.373 148.206 145.662 149.578 149.78C150.35 152.096 151.294 154.326 152.152 156.642C151.98 156.642 151.809 156.728 151.723 156.642C148.635 154.498 145.203 152.954 141.686 151.581C140.571 151.152 139.456 150.895 138.255 150.723C134.909 150.208 131.478 150.123 128.046 149.951C120.926 149.608 113.806 149.694 106.944 151.924C106.6 152.01 106.257 152.096 105.914 152.096C101.368 152.782 96.907 153.726 92.7036 155.613C90.9021 156.471 90.5589 157.414 90.4732 159.216C90.4732 159.559 90.4732 159.816 90.8163 159.988C92.3604 160.503 93.1325 161.961 94.2477 162.99C95.1913 163.848 95.8776 165.049 96.3065 166.25C97.8506 170.968 98.7942 175.772 99.6521 180.748V180.919ZM275.424 158.186C275.167 157.929 275.252 157.672 275.338 157.329C275.681 156.128 276.024 154.927 276.453 153.811C277.826 149.522 278.083 145.061 277.74 140.601C277.74 139.571 277.311 138.628 276.539 137.941C275.681 137.255 274.652 137.255 273.708 137.512C272.765 137.77 272.507 138.542 272.507 139.485C272.507 140 272.421 140.515 272.336 141.03C272.078 144.375 272.164 147.635 271.221 150.895C270.277 154.326 269.333 157.672 267.875 160.931C266.588 163.762 265.387 166.593 263.328 168.995C261.441 171.226 259.811 173.628 257.409 175.429C256.294 176.287 256.122 177.574 256.466 178.775C256.809 179.89 257.667 180.576 258.868 180.748C260.24 180.919 261.527 181.434 262.556 182.292C264.529 183.922 266.159 185.98 267.875 187.868C269.247 189.412 270.62 190.956 271.993 192.414C273.365 193.787 274.995 194.902 276.539 196.017C278.426 197.304 280.485 198.505 282.716 199.363C284.346 199.963 286.061 200.135 287.605 200.735C289.321 201.422 291.122 201.679 292.924 201.765C298.671 201.851 304.333 201.336 309.909 199.963C310.424 199.792 311.024 199.534 311.625 199.878C311.625 200.907 311.196 201.679 310.51 202.365C309.395 203.48 308.451 204.681 307.593 205.882C307.25 206.311 306.993 206.74 306.821 207.255C306.392 208.542 306.821 209.829 307.936 210.515C308.966 211.201 310.167 211.115 311.196 210.257C311.539 210 311.796 209.657 312.054 209.4C313.941 206.826 316.086 204.51 318.488 202.365C324.321 197.132 330.069 191.9 338.046 189.841C339.419 189.498 340.191 188.125 340.02 186.838C339.762 185.552 338.733 184.522 337.274 184.522C336.073 184.522 334.958 184.608 333.843 185.037C332.556 185.552 331.27 186.152 329.897 186.753C329.897 185.38 330.412 184.351 331.012 183.407C332.556 180.662 333.157 177.745 333.586 174.657C334.015 171.998 334.529 169.338 335.559 166.851C336.417 164.62 337.703 162.819 340.363 162.39C341.049 162.304 341.306 161.875 341.392 161.189C341.478 159.302 340.877 158.015 339.162 157.243C336.159 155.87 332.899 154.927 329.811 153.64C329.811 153.64 329.725 153.64 329.64 153.64C325.694 152.696 321.662 152.096 317.801 150.895C315.657 150.208 313.426 150.208 311.196 150.037C306.564 149.522 301.931 149.865 297.299 150.38C293.696 150.809 290.179 151.838 286.747 152.954C283.059 154.069 279.627 155.527 276.625 158.015C276.368 158.186 276.196 158.358 275.853 158.272L275.424 158.186ZM388.831 14.3263C387.973 14.2405 386.6 14.4121 385.314 14.6694C383.426 15.0983 381.453 15.3557 379.652 16.042C374.076 18.015 368.586 20.2455 363.439 23.3337C354.774 28.5666 346.796 34.5715 339.247 41.1769C336.245 43.7504 333.328 46.3238 330.755 49.3263C329.125 51.2135 327.409 53.1008 325.608 54.9023C324.407 56.1032 323.206 57.3042 322.005 58.591C321.49 59.1057 321.147 59.7062 320.975 60.3924C320.632 61.5076 321.233 62.3655 321.747 63.2233C322.176 63.9096 322.948 63.4807 323.549 63.4807C325.093 63.4807 326.122 62.6228 327.238 61.5934C331.527 57.7331 335.387 53.2723 339.762 49.4978C344.137 45.6375 348.341 41.6916 352.801 37.9171C360.608 31.3974 369.015 25.8214 378.88 22.9905C381.024 22.39 383.255 21.9612 385.485 22.1327C389.088 22.3901 391.747 24.1057 393.292 27.2797C394.407 29.5101 394.836 31.8264 395.007 34.2283C395.35 39.7185 394.578 45.1228 393.377 50.4415C390.804 61.3361 386.6 71.6303 381.711 81.7528C379.223 86.8999 376.564 92.047 373.647 97.0225C373.218 97.7945 372.789 98.5666 372.703 99.4244C372.618 100.711 373.132 101.74 374.162 102.427C375.191 103.113 376.135 102.855 377.164 102.255C378.022 101.74 378.708 101.054 379.137 100.11C381.024 95.7357 383.684 91.7896 385.571 87.4146C387.63 82.6965 390.203 78.1498 392.348 73.5174C397.238 62.8802 401.27 52.0714 403.243 40.4905C404.015 35.8581 404.272 31.1401 403.414 26.5077C402.899 23.5053 401.87 20.6744 399.811 18.444C396.98 15.3558 393.377 14.3263 388.831 14.3263ZM75.1178 59.1915C76.8335 59.0199 78.0344 59.6204 79.3212 60.3067C83.9536 63.0518 87.8138 66.7406 91.331 70.8582C92.2746 71.8876 93.1325 73.0886 94.0761 74.118C95.3629 75.4906 98.0222 75.7479 99.5663 74.6327C101.453 73.2602 101.796 70.9439 100.252 69.2282C98.108 66.8263 95.8776 64.6817 93.4756 62.5371C85.6692 55.5027 77.0908 49.5836 67.6545 44.8655C64.9952 43.5787 62.1643 42.7209 59.3335 41.9488C57.7893 41.6057 56.8457 42.1204 56.331 43.6645C55.8163 45.2944 55.9021 46.9243 57.0173 48.2969C57.7036 49.1547 58.4756 50.0125 59.1619 50.8704C61.3065 53.6155 63.88 55.9317 65.9388 58.7625C67.483 60.8214 69.1129 62.8802 70.7428 64.8532C71.858 66.0542 72.8016 67.4269 73.7452 68.7994C74.3457 69.6573 74.7746 70.6008 74.8604 71.716C71.6864 70.7723 68.6839 69.743 65.5957 68.971C64.6521 68.7136 63.7085 68.7136 62.7648 68.8852C61.3923 69.1426 60.7918 70.1719 61.3065 71.5444C61.6496 72.4023 62.0786 73.1743 62.5075 73.8606C65.2526 78.1498 67.9977 82.4391 69.7134 87.3288C70.3996 89.2161 71.3433 91.1033 72.0295 92.9906C72.63 94.6205 74.5173 95.5641 75.9756 95.221C77.3482 94.8778 78.1202 93.3336 77.8629 91.5322C77.6913 89.9023 77.1766 88.3581 76.4903 86.814C75.4609 84.4978 74.4315 82.1818 73.4879 79.8656C73.831 79.694 74.0884 79.8656 74.4315 79.8656C78.7207 80.5519 81.4658 78.064 81.4658 73.7748C81.4658 73.2601 81.4658 72.7454 81.2942 72.2307C80.7795 68.9709 79.2354 66.14 77.4339 63.3949C76.5761 62.1081 75.7183 60.9072 75.032 59.2773L75.1178 59.1915ZM361.294 74.4612C360.179 76.9489 359.149 79.4367 358.034 81.9244C357.348 83.4685 356.833 85.0983 356.833 86.8998C356.833 89.1302 358.635 90.3313 360.694 89.5592C361.809 89.1303 362.495 88.3582 362.924 87.243C364.125 84.2406 365.412 81.3238 366.613 78.3214C367.299 76.5199 368.243 74.8043 369.272 73.1744C370.387 71.3729 371.588 69.5714 372.618 67.7699C372.961 67.1694 373.304 66.5689 373.561 65.8826C373.99 64.5101 373.39 63.5665 371.931 63.3949C370.816 63.3091 369.701 63.3091 368.586 63.6522C367.127 64.0812 365.669 64.5101 364.211 64.939C362.838 65.3679 361.466 65.7969 360.007 66.2258C360.179 64.6817 360.865 63.4807 361.723 62.4513C363.439 60.2209 365.24 58.0763 367.042 55.8459C369.1 53.2723 370.988 50.613 373.304 48.2969C374.934 46.667 376.306 44.8655 377.765 43.064C378.88 41.7772 379.051 40.2332 378.622 38.6033C378.108 36.8019 377.25 36.2014 375.363 36.6303C373.132 37.145 370.902 37.7455 368.843 38.6891C361.895 41.8631 355.546 45.8949 349.456 50.5273C344.051 54.5591 339.076 59.0199 334.529 63.9954C333.757 64.7674 333.243 65.6254 333.671 66.8264C334.186 68.1131 334.787 69.3998 336.245 69.6572C338.39 70.0861 340.363 69.9145 341.564 67.7699C341.735 67.4268 341.993 67.2553 342.25 66.9122C346.024 62.3656 350.228 58.0763 355.375 54.988C356.662 54.216 357.948 53.6155 359.493 53.7013C359.664 54.4733 359.149 54.9023 358.892 55.3312C357.434 57.7331 355.718 59.9635 354.603 62.6228C353.745 64.6817 353.145 66.7406 353.23 68.971C353.402 72.6597 356.061 74.8901 359.664 74.4612C360.093 74.4612 360.436 74.2896 361.037 74.4612H361.294Z" fill="#F0DADA"/>
<path d="M217.091 123.529C217.434 122.157 217.777 120.87 218.206 119.583C218.635 118.125 219.149 116.667 219.664 115.294C220.093 114.179 220.694 113.921 221.895 114.265C223.696 114.779 224.468 116.238 223.953 118.039C221.98 124.044 220.436 130.135 219.75 136.397C219.149 142.23 220.007 147.892 223.096 153.039C223.267 153.382 223.524 153.725 223.61 154.154C224.897 157.586 227.299 160.159 230.044 162.39C231.76 163.762 233.561 165.135 235.363 166.421C238.194 168.394 241.196 169.853 244.284 171.397C245.142 171.826 245.657 172.341 246.086 173.198C249.517 179.804 253.12 186.323 258.01 191.814C260.841 195.073 263.757 198.333 267.36 200.821C270.02 202.622 271.049 205.282 271.735 208.198C272.679 212.488 273.022 216.863 273.708 221.238C273.966 222.953 273.794 224.755 273.708 226.556C273.708 227.243 273.88 227.671 274.48 227.929C278.255 229.988 280.914 233.247 283.23 236.679C286.147 240.968 289.664 244.743 293.61 248.088C296.527 250.576 299.015 253.493 301.417 256.409C304.762 260.355 307.078 264.73 308.88 269.534C309.395 270.907 310.167 272.194 310.767 273.48C312.054 276.054 312.483 278.713 312.054 281.544C311.882 282.745 311.882 284.032 311.711 285.233C310.939 291.924 307.336 296.728 301.502 299.988C300.473 300.588 299.444 301.017 298.414 300.245C297.642 299.644 297.042 297.671 297.385 296.556C297.642 295.613 298.243 294.926 298.843 294.154C299.529 293.211 300.387 292.353 300.988 291.323C303.819 286.605 305.191 281.544 304.247 275.968C303.647 272.622 302.532 269.448 300.473 266.618C298.157 263.358 295.24 260.784 292.495 257.953C291.037 256.495 289.578 255.122 288.292 253.407C287.52 252.377 286.49 251.777 285.546 250.919C282.372 247.745 278.512 245.171 275.595 241.654C273.279 238.909 270.792 236.336 269.162 233.076C268.218 231.189 267.618 229.13 267.618 226.985C267.618 222.782 267.103 218.578 266.417 214.375C265.559 208.97 262.985 204.595 258.524 201.336C256.637 199.963 254.921 198.333 253.377 196.532C249.517 191.985 246.086 187.181 243.77 181.605C243.426 180.747 242.826 180.147 242.054 179.718C240.681 178.946 239.223 178.345 237.765 177.745C231.417 175 224.64 174.142 217.777 174.056C209.627 173.97 201.735 175.171 194.186 178.431C192.127 179.289 190.497 180.576 189.211 182.377C185.007 188.125 180.203 193.529 174.627 198.076C173.77 198.848 172.74 199.448 171.796 200.135C171.368 200.478 170.939 200.735 170.681 201.25C169.137 205.11 167.421 208.97 166.735 213.088C166.135 216.948 165.706 220.894 165.277 224.755C165.105 226.042 164.934 227.328 164.591 228.529C164.076 230.073 163.39 231.446 162.274 232.647C160.13 234.963 158.071 237.279 156.098 239.681C153.353 243.113 150.694 246.63 148.12 250.233C145.461 253.921 142.372 257.267 139.627 260.784C136.024 265.417 132.507 270.135 131.306 276.14C130.277 281.115 131.306 285.747 134.051 289.951C135.252 291.667 137.054 292.953 138.77 294.069C139.627 294.669 140.571 295.184 141.429 295.784C142.801 296.814 143.316 298.015 142.887 299.044C142.544 300.073 141 301.017 139.627 301.017C138.169 301.017 136.711 300.588 135.424 299.816C133.194 298.529 131.135 297.071 129.591 295.012C128.647 293.811 127.618 292.696 126.417 291.752C125.645 291.066 125.13 290.294 124.787 289.265C122.642 282.831 122.814 276.311 124.358 269.792C125.216 266.017 126.674 262.5 128.904 259.326C131.478 255.637 134.223 252.206 137.483 249.118C139.027 247.659 140.743 246.372 142.287 245C145.632 241.997 148.206 238.48 150.865 234.963C152.667 232.475 154.554 229.988 156.098 227.243C158.414 223.211 159.272 218.836 159.958 214.375C160.301 211.887 160.645 209.399 161.245 206.912C161.674 205.196 162.017 203.48 162.875 201.936C163.39 200.993 163.99 200.135 164.848 199.534C168.622 196.703 171.711 193.1 175.228 189.926C176.171 189.069 176.772 188.039 177.458 187.01C178.23 185.98 178.831 184.779 179.689 183.836C182.091 181.262 183.721 178.26 185.35 175.171C185.522 174.828 185.694 174.571 185.865 174.228C186.98 172.341 188.181 170.796 190.669 170.282C195.988 169.081 200.277 165.821 204.223 162.132C204.566 161.789 204.995 161.36 205.338 161.017C208.169 158.615 209.885 155.527 210.743 151.924C211.171 150.208 211.772 148.578 212.287 146.863C213.316 143.26 213.145 139.657 212.544 136.054C211.515 129.877 210.914 123.701 209.456 117.61C209.027 115.98 209.627 114.865 211.086 114.436C212.287 114.093 213.831 114.951 214.345 116.238C214.946 118.039 215.461 119.841 216.061 121.642C216.233 122.157 216.233 122.843 216.833 123.272L217.091 123.529Z" fill="#1F2323"/>
<path d="M191.613 224.326C192.213 223.125 192.814 222.267 193.586 221.238C192.642 220.981 191.784 220.723 191.012 220.466C190.498 220.294 189.983 220.037 189.554 219.78C188.61 219.265 188.267 218.493 188.696 217.721C189.125 216.949 189.811 216.777 190.669 217.035C191.699 217.292 192.728 217.549 193.757 217.635C194.444 217.635 195.13 217.807 195.816 217.807C200.877 217.978 205.939 218.15 211 217.807C212.029 217.807 212.801 217.378 213.23 216.434C214.002 214.89 214.517 213.26 214.517 211.544C214.517 208.285 214.346 205.11 214.346 201.851C214.346 201.079 214.174 200.564 213.316 200.307C211.858 199.792 210.914 198.762 210.056 197.476C209.284 196.275 208.426 195.16 207.569 194.044C207.14 193.444 206.625 193.186 205.767 193.186C201.907 193.186 198.218 194.216 194.701 195.846C194.529 195.932 194.272 196.103 194.1 196.189C193.157 196.618 192.471 196.532 192.042 195.846C191.613 195.245 191.784 194.559 192.556 193.873C193.243 193.272 194.015 192.758 194.958 192.414C195.816 192.071 196.674 191.728 197.532 191.299C198.39 190.87 198.475 190.527 197.961 189.755C197.703 189.412 197.36 189.155 197.103 188.811C195.73 187.353 195.473 185.637 196.245 183.75C197.103 181.52 198.647 180.061 200.706 178.946C202.936 177.831 205.252 177.488 207.654 177.231C212.115 176.716 216.576 176.887 221.037 177.231C224.64 177.488 228.328 177.831 231.846 178.946C233.475 179.461 235.105 180.147 236.306 181.434C238.88 184.008 239.566 188.039 236.564 191.299C237.422 191.986 238.365 192.586 239.395 192.929C240.252 193.186 241.025 193.615 241.711 194.13C242.483 194.731 242.654 195.588 242.14 196.275C241.625 196.961 240.939 196.961 239.995 196.446C236.392 194.387 232.618 193.186 228.414 193.873C227.556 194.044 226.87 194.302 226.27 194.988C225.669 195.588 225.069 196.275 224.468 196.961C223.267 198.248 222.066 199.449 220.436 199.963C219.836 200.135 219.578 200.564 219.493 201.25C219.15 204.081 219.321 206.998 219.15 209.914C219.15 211.115 219.493 212.059 220.179 213.003C221.895 215.147 224.039 216.777 226.441 218.064C226.87 218.321 227.299 218.493 227.814 218.321C229.186 218.064 230.473 218.321 231.846 218.579C233.304 218.836 234.676 219.436 235.792 220.466C237.765 222.267 239.995 223.897 241.368 226.299C243.77 230.588 243.941 235.135 241.711 239.424C240.51 241.826 240.252 244.228 240.167 246.716C239.995 249.461 240.167 252.206 240.596 254.951C240.939 257.01 240.767 259.155 241.11 261.299C241.539 263.701 242.14 266.103 242.826 268.505C243.255 270.135 244.027 271.679 245.056 273.052C246.858 275.625 248.488 278.199 249.86 281.03C250.118 281.63 250.461 282.231 250.632 282.831C250.89 283.861 250.461 284.804 249.603 285.233C248.745 285.748 247.801 285.576 247.115 284.718C246.772 284.289 246.515 283.86 246.257 283.346C243.941 278.713 240.681 274.853 236.907 271.336C234.762 269.363 232.36 267.561 229.958 266.017C229.444 265.674 228.929 265.417 228.414 265.245C227.556 264.816 226.784 264.902 226.012 265.76C225.154 266.704 224.039 267.304 222.924 267.819C221.723 268.419 220.522 268.677 219.15 268.419C215.89 267.819 212.801 266.961 210.571 264.302C210.142 263.787 209.627 263.701 209.027 263.873C207.226 264.387 205.51 265.074 203.88 266.103C200.191 268.591 197.017 271.422 194.615 275.196C193.757 276.569 192.642 277.856 191.699 279.142C190.498 280.858 189.468 282.574 188.953 284.633C188.868 284.976 188.782 285.319 188.61 285.662C188.01 287.12 186.895 287.721 185.608 287.378C184.235 287.035 183.292 285.748 183.463 284.289C183.721 282.488 184.235 280.686 184.922 279.057C186.123 276.14 187.324 273.395 189.039 270.736C190.755 268.076 192.042 265.16 193.414 262.329C193.843 261.557 193.843 260.613 194.1 259.755C194.272 258.726 194.358 257.954 193.157 257.439C192.556 257.182 192.213 256.581 191.87 255.981C191.184 254.951 190.669 253.836 190.326 252.635C188.782 247.831 187.409 242.941 186.466 237.966C185.608 233.419 184.75 228.873 184.235 224.24C184.064 223.039 183.978 222.01 185.179 221.324C186.294 220.723 188.439 220.809 189.297 221.667C190.069 222.353 190.669 223.211 191.527 224.155L191.613 224.326ZM228.757 182.978C228.243 182.035 227.385 181.691 226.355 181.52C220.179 180.748 214.002 180.662 207.826 181.52C206.711 181.691 205.681 181.949 204.738 182.635C203.451 182.635 202.507 183.407 201.735 184.179C200.963 184.951 200.792 185.809 201.135 186.41C201.65 187.182 202.851 187.611 203.794 187.267C204.738 186.924 205.767 186.41 206.711 185.981C209.627 184.865 212.716 186.324 213.488 189.412C213.745 190.356 213.831 191.299 213.917 192.157C214.002 193.186 214.517 194.044 215.289 194.731C216.919 196.103 218.978 195.503 219.578 193.444C219.664 193.015 219.75 192.672 219.836 192.243C220.007 191.299 220.179 190.27 220.436 189.326C221.208 187.01 222.581 185.552 225.498 186.324C226.613 186.667 227.728 186.924 228.843 187.267C229.701 187.525 230.559 187.611 231.417 187.439C232.703 187.096 233.218 185.809 232.36 184.865C231.417 183.836 230.301 182.978 228.757 182.892V182.978ZM205.424 243.799C205.424 242.598 204.995 241.569 204.824 240.539C204.652 239.853 204.738 239.081 205.596 238.824C206.453 238.481 207.14 238.824 207.569 239.767C208.083 240.797 208.255 241.826 208.341 243.027C208.341 245.772 208.083 248.432 207.483 251.005C207.311 251.691 207.311 252.206 207.569 252.892C209.113 255.981 210.914 258.811 213.316 261.299C215.976 264.044 219.578 264.216 222.495 261.9C225.755 259.326 228.157 256.152 229.701 252.292C229.958 251.606 230.301 251.005 230.645 250.405C232.703 247.231 234.248 243.799 236.306 240.625C237.593 238.566 238.365 236.164 239.137 233.762C239.48 232.647 239.48 231.704 239.051 230.674C238.194 228.701 236.821 227.071 235.277 225.613C232.36 222.868 227.213 221.667 223.696 224.412C223.439 224.584 223.096 224.755 222.752 224.927C221.466 225.956 219.922 226.986 219.407 228.701C218.892 230.245 218.806 231.789 219.064 233.419C219.235 234.277 219.235 235.135 219.235 236.079C219.407 238.566 219.064 240.968 218.892 243.456C218.806 244.571 218.635 245.686 218.377 246.716C218.377 247.059 218.12 247.402 217.691 247.402C217.262 247.402 217.176 246.973 217.176 246.63C217.176 245.686 217.176 244.743 217.176 243.799C217.434 238.91 216.147 234.277 214.775 229.645C214.088 227.329 212.544 225.699 210.4 224.669C207.826 223.468 205.167 223.125 202.336 223.125C199.076 223.125 197.017 224.669 195.73 227.414C195.044 228.873 195.044 229.044 196.159 230.16C196.502 230.503 196.846 230.846 197.103 231.189C199.848 234.792 202.336 238.566 204.48 242.512C204.652 242.856 204.738 243.456 205.424 243.628V243.799ZM190.154 228.358C189.468 229.13 189.64 229.645 189.811 230.245C190.755 234.878 191.613 239.596 192.814 244.142C193.5 246.716 194.1 249.375 194.958 251.949C195.73 254.522 198.475 255.294 200.62 253.836C201.392 253.321 201.993 252.721 202.336 251.863C203.623 249.375 203.451 247.059 201.821 244.743C198.904 240.625 195.559 236.765 192.9 232.561C192.042 231.189 191.098 229.816 190.154 228.358ZM237.336 262.843C236.821 259.841 236.564 256.838 234.505 254.179C233.475 255.723 232.618 257.096 231.588 258.64C233.819 259.755 235.449 261.385 237.336 262.843ZM204.566 255.809C203.365 256.924 202.25 257.868 200.62 258.211C199.076 258.468 199.076 258.468 198.904 259.927C198.904 260.27 198.561 260.699 198.904 261.213C201.049 259.755 203.194 258.383 205.596 257.267C205.338 256.753 205.167 256.238 204.652 255.809H204.566Z" fill="#1F2323"/>
<path d="M99.6517 180.919C98.7938 175.943 97.8502 171.054 96.3061 166.421C95.8772 165.22 95.1909 164.105 94.2473 163.162C93.1321 162.132 92.36 160.674 90.8159 160.159C90.4727 160.073 90.387 159.73 90.4727 159.387C90.6443 157.586 90.9017 156.642 92.7031 155.784C96.9066 153.897 101.367 152.953 105.914 152.267C106.257 152.267 106.6 152.181 106.943 152.095C113.806 149.865 120.926 149.779 128.046 150.122C131.478 150.294 134.823 150.38 138.255 150.894C139.456 151.066 140.571 151.323 141.686 151.752C145.203 153.125 148.635 154.583 151.723 156.814C151.723 156.814 151.894 156.814 152.152 156.814C151.294 154.497 150.436 152.267 149.578 149.951C148.12 145.833 147.348 141.544 146.747 137.255C146.747 136.74 146.661 136.225 146.747 135.711C146.919 134.338 147.948 133.394 149.149 133.309C150.608 133.223 151.723 133.909 152.066 135.282C152.237 135.796 152.237 136.483 152.323 136.997C152.752 139.314 153.181 141.63 153.696 143.946C154.21 146.348 155.411 148.578 156.269 150.809C157.385 153.725 158.757 156.642 160.13 159.473C160.644 160.674 161.502 161.618 162.36 162.647C165.277 166.164 168.193 169.681 171.625 172.769C172.483 173.542 173.426 174.142 174.284 174.743C174.97 175.257 175.399 175.943 175.571 176.801C175.657 177.488 175.571 178.174 175.056 178.603C173.34 179.975 172.225 181.863 170.681 183.321C168.279 185.551 166.135 188.039 163.561 190.098C162.617 190.87 161.931 191.728 160.902 192.414C157.728 194.73 154.382 196.703 150.779 198.333C146.747 200.135 142.458 200.993 138.083 201.507C136.11 201.765 134.137 201.507 132.164 200.992C129.676 200.392 127.103 199.963 124.615 199.363C123.071 199.019 121.698 198.247 119.897 197.904C120.326 199.105 121.012 200.049 121.784 200.907C123.671 203.309 125.301 205.711 126.76 208.37C127.188 209.056 127.532 209.828 127.703 210.6C127.96 211.887 127.446 213.088 126.331 213.774C125.301 214.375 124.014 214.203 123.071 213.26C122.728 212.917 122.47 212.488 122.299 212.144C118.867 205.539 113.978 200.049 108.573 195.073C104.885 191.728 101.024 188.554 96.6492 186.066C95.0193 185.208 93.4752 184.35 91.5879 184.007C91.3306 184.007 91.159 183.921 90.9017 183.836C89.4433 183.235 88.6713 181.863 89.0144 180.49C89.4433 179.032 90.7301 178.174 92.2742 178.431C94.2473 178.689 95.9629 179.461 97.7644 180.318C98.3649 180.576 98.8796 181.005 99.6517 181.091V180.919ZM147.176 161.103C145.975 160.502 144.774 159.902 143.573 159.644C143.316 159.902 143.402 160.159 143.487 160.417C144.174 163.076 144.517 165.735 144.603 168.394C144.688 173.456 144.088 178.431 142.029 183.235C141.085 185.38 139.885 187.267 138.083 188.811C135.081 191.385 131.306 191.213 128.561 188.382C126.76 186.495 125.215 184.436 124.272 182.034C121.441 175 120.926 167.794 122.385 160.417C122.642 159.301 122.899 158.186 123.242 156.985C121.784 156.985 120.411 157.157 119.125 156.985C118.61 156.985 118.095 156.899 117.581 157.243C115.951 157.328 114.235 157.414 112.862 158.358C109.345 160.76 106.686 163.848 104.799 167.708C104.37 168.566 104.284 169.51 104.456 170.453C104.713 171.912 104.97 173.37 105.142 174.828C105.399 176.801 105.828 178.774 106.686 180.576C108.059 183.493 109.86 186.152 112.519 188.125C113.978 189.24 115.693 189.841 117.323 190.698C120.583 192.586 124.014 193.958 127.789 194.644C129.076 194.902 130.362 195.073 131.563 195.417C137.225 197.046 142.458 195.417 147.605 193.443C149.75 192.586 151.723 191.299 153.696 190.012C156.527 188.211 158.671 185.98 159.014 182.377C159.358 178.774 159.358 175.086 158.929 171.483C158.671 169.424 157.728 167.794 156.269 166.421C153.61 164.019 150.608 162.304 147.176 161.189V161.103ZM130.963 168.823C130.706 168.223 130.791 167.622 130.791 167.022C130.706 165.907 130.448 164.792 129.934 163.848C129.333 162.647 128.304 162.046 126.931 161.961C125.816 161.961 124.872 162.561 124.358 163.591C123.157 166.164 122.899 168.823 123.929 171.483C124.615 173.284 125.902 173.97 127.875 173.627C128.132 173.627 128.304 173.627 128.561 173.542C128.733 174.571 128.733 175.6 129.161 176.544C129.676 177.745 130.62 178.517 131.649 178.431C132.85 178.431 133.536 177.659 134.051 176.63C134.737 175 134.909 173.37 134.652 171.654C134.48 170.882 134.051 170.282 133.451 169.767C132.764 169.167 131.907 169.081 131.049 169.081L130.963 168.823ZM164.161 174.399C164.333 176.458 163.561 178.174 163.647 180.147C166.135 177.745 166.135 177.402 164.161 174.399ZM100.166 159.644C101.282 160.417 101.796 161.274 102.225 162.304C102.74 161.017 104.112 160.417 104.541 158.958C103.083 159.473 101.71 159.387 100.081 159.644H100.166Z" fill="#1F2323"/>
<path d="M275.424 158.186C275.767 158.272 275.939 158.186 276.196 157.929C279.199 155.441 282.716 153.983 286.319 152.868C289.836 151.753 293.267 150.723 296.87 150.294C301.503 149.78 306.135 149.436 310.767 149.951C312.998 150.209 315.228 150.209 317.373 150.809C321.233 152.01 325.265 152.696 329.211 153.554C329.211 153.554 329.297 153.554 329.383 153.554C332.471 154.841 335.731 155.699 338.733 157.157C340.449 157.929 341.049 159.302 340.963 161.103C340.963 161.789 340.62 162.218 339.934 162.304C337.36 162.733 336.074 164.534 335.13 166.765C334.101 169.253 333.586 171.912 333.157 174.571C332.728 177.574 332.128 180.576 330.584 183.321C330.069 184.265 329.468 185.38 329.468 186.667C330.927 186.066 332.128 185.552 333.414 184.951C334.53 184.522 335.731 184.351 336.846 184.436C338.218 184.436 339.334 185.466 339.591 186.753C339.762 188.039 339.076 189.326 337.618 189.755C329.726 191.814 323.978 197.047 318.059 202.28C315.657 204.424 313.512 206.74 311.625 209.314C311.368 209.657 311.11 209.914 310.767 210.172C309.738 211.03 308.451 211.03 307.508 210.429C306.392 209.743 306.049 208.456 306.392 207.169C306.564 206.655 306.821 206.226 307.164 205.797C308.108 204.596 309.052 203.395 310.081 202.28C310.767 201.593 311.196 200.821 311.196 199.792C310.596 199.534 310.081 199.792 309.481 199.878C303.905 201.25 298.243 201.765 292.495 201.679C290.694 201.679 288.892 201.336 287.177 200.65C285.633 200.049 283.917 199.878 282.287 199.277C280.057 198.419 277.998 197.304 276.11 195.932C274.566 194.816 272.936 193.787 271.564 192.329C270.106 190.87 268.819 189.326 267.446 187.782C265.731 185.895 264.101 183.836 262.128 182.206C261.098 181.348 259.811 180.748 258.439 180.662C257.152 180.576 256.294 179.89 256.037 178.689C255.694 177.488 255.865 176.201 256.981 175.343C259.383 173.542 260.927 171.054 262.9 168.909C264.959 166.508 266.245 163.677 267.446 160.846C268.905 157.672 269.848 154.24 270.792 150.809C271.735 147.549 271.65 144.204 271.907 140.944C271.907 140.429 271.993 139.914 272.079 139.4C272.079 138.542 272.336 137.77 273.28 137.427C274.309 137.084 275.253 137.084 276.11 137.856C276.968 138.542 277.311 139.485 277.311 140.515C277.569 144.976 277.311 149.436 276.025 153.726C275.682 154.927 275.338 156.042 274.91 157.243C274.91 157.5 274.738 157.843 274.995 158.101L275.424 158.186ZM267.189 178.775C267.36 178.088 267.275 177.316 267.189 176.544C266.617 177.345 266.617 178.088 267.189 178.775ZM285.118 161.017C279.971 162.561 276.11 165.735 273.537 170.454C272.936 171.483 272.336 172.427 272.079 173.628C271.307 177.402 271.821 181.005 272.936 184.522C273.194 185.38 273.623 186.324 274.309 186.924C277.826 190.098 281.772 192.758 286.319 194.387C288.378 195.159 290.522 195.932 292.667 196.275C295.841 196.875 298.929 196.275 302.103 195.674C306.392 194.816 310.596 193.701 314.37 191.557C316.858 190.184 319.603 189.326 321.576 187.01C323.549 184.608 325.436 182.206 326.123 179.032C326.552 177.145 326.809 175.258 327.238 173.37C327.924 170.282 327.066 167.794 325.351 165.478C324.064 163.677 322.52 162.047 320.718 160.588C318.917 159.13 317.287 157.5 314.713 157.843C312.74 157.329 310.767 157.414 308.794 157.157C308.794 157.5 308.794 157.672 308.794 157.843C310.081 162.99 310.424 168.137 309.738 173.37C309.223 177.488 308.28 181.434 306.221 185.123C305.191 187.01 303.905 188.811 302.017 190.012C299.787 191.557 297.299 191.471 295.155 189.927C294.125 189.155 293.267 188.211 292.495 187.096C291.209 185.209 290.265 183.235 289.664 181.091C287.777 175 287.52 168.909 288.463 162.647C288.549 162.047 288.721 161.532 288.635 160.932C288.549 160.074 288.12 159.816 287.262 160.074C286.49 160.331 285.633 160.417 285.032 160.932L285.118 161.017ZM293.954 173.284C293.954 173.885 293.954 174.571 293.954 175.172C294.125 176.716 294.983 177.745 296.184 178.003C297.385 178.26 298.586 177.488 299.272 176.115C299.873 175 299.959 173.799 300.044 172.512C300.216 169.767 299.701 168.909 297.128 168.223C297.128 167.365 297.128 166.593 297.128 165.735C297.128 163.419 295.155 162.476 293.61 162.133C292.152 161.875 290.865 162.819 290.179 164.534C289.579 165.993 289.493 167.537 289.664 169.081C289.922 171.998 290.951 173.027 293.868 173.199L293.954 173.284ZM331.956 160.245C330.24 160.159 329.039 160.074 327.324 159.902C328.525 161.017 328.782 162.304 329.897 163.076C330.498 162.218 330.927 161.275 331.956 160.245Z" fill="#1F2323"/>
<path d="M388.831 14.3261C393.377 14.3261 396.98 15.3555 399.811 18.4437C401.87 20.7599 402.899 23.5908 403.414 26.5074C404.272 31.2256 404.015 35.8579 403.243 40.4903C401.355 52.0712 397.238 62.88 392.348 73.5172C390.203 78.2354 387.63 82.6962 385.571 87.4143C383.684 91.7893 381.024 95.7354 379.137 100.11C378.708 101.054 378.022 101.74 377.164 102.255C376.221 102.855 375.191 103.113 374.162 102.427C373.132 101.74 372.618 100.711 372.703 99.4241C372.703 98.4805 373.218 97.7942 373.647 97.0221C376.564 92.0467 379.223 86.8996 381.711 81.7525C386.515 71.7158 390.718 61.3359 393.377 50.4413C394.664 45.1226 395.35 39.7182 395.007 34.228C394.836 31.8261 394.407 29.4241 393.292 27.2795C391.662 24.0197 389.002 22.3898 385.485 22.1324C383.255 21.9609 381.11 22.3898 378.88 22.9903C368.929 25.8212 360.608 31.3971 352.801 37.9167C348.341 41.6055 344.137 45.6373 339.762 49.4976C335.387 53.3579 331.527 57.7329 327.238 61.5932C326.122 62.5368 325.093 63.3947 323.549 63.4805C322.948 63.4805 322.176 63.9952 321.747 63.2231C321.233 62.3653 320.632 61.5074 320.975 60.3922C321.147 59.706 321.49 59.1055 322.005 58.5908C323.206 57.3898 324.321 56.103 325.608 54.902C327.409 53.1006 329.125 51.2133 330.755 49.3261C333.328 46.3236 336.331 43.7501 339.247 41.1766C346.882 34.5712 354.86 28.4805 363.439 23.3334C368.586 20.2452 374.076 18.0148 379.652 16.0417C381.453 15.4413 383.426 15.0981 385.314 14.6692C386.6 14.4118 387.973 14.1545 388.831 14.3261Z" fill="#1F2323"/>
<path d="M75.1174 59.1911C75.8037 60.821 76.6615 62.022 77.5194 63.3087C79.3208 66.0538 80.865 68.8847 81.3797 72.1445C81.4655 72.6592 81.5512 73.1739 81.5512 73.6886C81.5512 78.0636 78.8919 80.4656 74.5169 79.7793C74.2596 79.7793 73.9164 79.6078 73.5733 79.7793C74.6027 82.0955 75.6321 84.4117 76.5758 86.7279C77.262 88.272 77.7767 89.8161 77.9483 91.446C78.1199 93.3332 77.3478 94.7916 76.061 95.1347C74.6027 95.4778 72.7155 94.5342 72.115 92.9043C71.3429 91.0171 70.4851 89.1298 69.7988 87.2426C68.0831 82.3528 65.338 78.0636 62.5929 73.7744C62.0782 73.0024 61.6493 72.2303 61.3919 71.4582C60.8772 70.0857 61.3919 69.1421 62.8503 68.7989C63.7939 68.6274 64.7375 68.7131 65.6811 68.8847C68.7694 69.6568 71.7718 70.6862 74.9458 71.6298C74.9458 70.5146 74.4311 69.571 73.8306 68.7131C72.887 67.3406 71.8576 66.0538 70.8282 64.7671C69.1125 62.794 67.4826 60.821 66.0243 58.6764C63.9655 55.8455 61.3919 53.5293 59.2473 50.7842C58.561 49.9264 57.789 49.0685 57.1027 48.2107C55.9875 46.7524 55.9017 45.2082 56.4164 43.5783C56.9311 42.12 57.8748 41.5195 59.4189 41.8627C62.2498 42.5489 65.0806 43.4068 67.74 44.7793C77.1762 49.4975 85.6689 55.4166 93.561 62.4509C95.963 64.5955 98.1934 66.8259 100.338 69.1421C101.882 70.8578 101.539 73.1739 99.6517 74.5465C98.1076 75.6617 95.4483 75.4043 94.1615 74.0318C93.2179 73.0024 92.3601 71.8872 91.4164 70.772C87.8993 66.6543 84.039 62.9656 79.4066 60.2205C78.2056 59.4484 76.9189 58.9337 75.2032 59.1053L75.1174 59.1911Z" fill="#1F2323"/>
<path d="M361.294 74.4605C360.693 74.289 360.265 74.4605 359.921 74.4605C356.318 74.8895 353.659 72.6591 353.488 68.9703C353.402 66.7399 354.002 64.6811 354.86 62.6223C355.975 59.963 357.691 57.7326 359.149 55.3306C359.407 54.8159 359.921 54.4728 359.75 53.7007C358.206 53.6149 356.919 54.2154 355.632 54.9875C350.485 58.0757 346.367 62.2792 342.507 66.9115C342.25 67.1689 341.992 67.4262 341.821 67.7693C340.62 69.914 338.647 70.1713 336.502 69.6566C335.044 69.3135 334.443 68.1125 333.929 66.8257C333.414 65.6247 333.929 64.7669 334.787 63.9948C339.333 59.0193 344.309 54.5586 349.713 50.5267C355.804 45.9801 362.152 41.8625 369.1 38.6885C371.159 37.7448 373.39 37.1443 375.62 36.6296C377.507 36.2007 378.365 36.8012 378.88 38.6027C379.309 40.2326 379.051 41.7767 378.022 43.0635C376.564 44.8649 375.191 46.6664 373.561 48.2963C371.245 50.6983 369.272 53.2718 367.299 55.8453C365.583 58.0757 363.782 60.2203 361.98 62.4507C361.122 63.4801 360.436 64.5953 360.265 66.2252C361.723 65.7963 363.095 65.2816 364.468 64.9385C365.926 64.5095 367.385 64.0806 368.843 63.6517C369.958 63.3086 371.073 63.3086 372.189 63.3944C373.647 63.5659 374.247 64.5095 373.818 65.8821C373.561 66.5684 373.218 67.1689 372.875 67.7693C371.76 69.5708 370.644 71.3723 369.529 73.1738C368.5 74.8037 367.556 76.5194 366.87 78.3208C365.669 81.3233 364.382 84.2399 363.181 87.2424C362.752 88.3576 362.066 89.1296 360.951 89.5586C358.892 90.3306 357.091 89.0439 357.091 86.8993C357.091 85.1836 357.605 83.5537 358.292 81.9238C359.321 79.436 360.436 76.9483 361.551 74.4605H361.294Z" fill="#1F2323"/>
<path d="M205.424 243.799C204.738 243.628 204.652 243.113 204.48 242.684C202.336 238.738 199.934 234.878 197.103 231.361C196.845 231.017 196.502 230.674 196.159 230.331C195.044 229.13 195.044 229.044 195.73 227.586C197.017 224.755 199.076 223.211 202.336 223.297C205.167 223.297 207.826 223.726 210.399 224.841C212.63 225.87 214.088 227.5 214.774 229.816C216.147 234.449 217.434 239.081 217.176 243.971C217.176 244.914 217.176 245.858 217.176 246.802C217.176 247.145 217.176 247.574 217.691 247.574C218.12 247.574 218.292 247.231 218.377 246.887C218.549 245.772 218.806 244.657 218.892 243.628C219.064 241.14 219.407 238.738 219.235 236.25C219.235 235.392 219.235 234.535 219.064 233.591C218.806 232.047 218.892 230.417 219.407 228.873C219.921 227.157 221.38 226.213 222.752 225.098C223.01 224.841 223.353 224.755 223.696 224.584C227.299 221.753 232.36 223.039 235.277 225.785C236.821 227.243 238.194 228.787 239.051 230.846C239.48 231.875 239.48 232.819 239.137 233.934C238.365 236.25 237.679 238.652 236.306 240.797C234.247 243.971 232.703 247.402 230.644 250.576C230.301 251.177 229.958 251.777 229.701 252.463C228.157 256.324 225.755 259.498 222.495 262.071C219.578 264.387 215.89 264.13 213.316 261.471C210.914 258.983 209.113 256.152 207.569 253.064C207.225 252.463 207.311 251.863 207.483 251.177C208.083 248.517 208.426 245.858 208.341 243.199C208.341 242.084 208.083 240.968 207.569 239.939C207.14 238.995 206.368 238.738 205.595 238.995C204.738 239.338 204.738 240.025 204.823 240.711C205.081 241.74 205.424 242.77 205.424 243.971V243.799ZM228.243 226.986C230.73 226.986 232.703 227.843 233.647 230.331C233.647 230.588 233.819 230.76 233.904 230.932C234.419 231.875 235.019 232.133 235.706 231.875C236.478 231.618 236.735 230.846 236.392 229.816C235.363 226.213 231.331 223.64 227.556 224.155C226.527 224.326 226.012 224.755 226.012 225.527C226.012 226.299 226.698 226.9 227.728 226.986C227.899 226.986 228.071 226.986 228.243 226.986ZM236.907 234.878C236.907 233.677 236.564 233.076 235.792 232.905C235.019 232.819 234.419 233.334 234.162 234.363C233.99 234.963 233.904 235.478 233.819 236.079C233.733 236.765 233.904 237.365 234.591 237.623C235.277 237.88 235.963 237.623 236.392 236.937C236.735 236.25 236.821 235.478 236.907 234.792V234.878Z" fill="#F64068"/>
<path d="M190.154 228.358C191.098 229.902 192.042 231.275 192.899 232.561C195.645 236.851 198.99 240.625 201.821 244.743C203.451 247.059 203.623 249.375 202.336 251.863C201.907 252.635 201.306 253.321 200.62 253.836C198.39 255.294 195.73 254.522 194.958 251.949C194.186 249.375 193.5 246.716 192.814 244.142C191.613 239.596 190.755 234.878 189.811 230.245C189.725 229.645 189.554 229.13 190.154 228.358Z" fill="#FDFDFC"/>
<path d="M228.757 182.978C230.301 182.978 231.416 183.836 232.36 184.951C233.218 185.894 232.703 187.267 231.416 187.524C230.559 187.696 229.701 187.61 228.843 187.353C227.728 187.01 226.613 186.667 225.497 186.409C222.581 185.551 221.208 187.01 220.436 189.412C220.093 190.355 220.007 191.385 219.836 192.328C219.836 192.757 219.75 193.186 219.578 193.529C218.978 195.588 217.005 196.274 215.289 194.816C214.517 194.13 214.002 193.272 213.916 192.243C213.831 191.299 213.745 190.355 213.488 189.497C212.715 186.495 209.627 184.951 206.711 186.066C205.767 186.495 204.738 186.924 203.794 187.353C202.936 187.696 201.649 187.267 201.135 186.495C200.706 185.894 200.963 185.037 201.735 184.265C202.593 183.407 203.537 182.72 204.738 182.72C204.909 184.35 205.338 185.037 206.453 184.694C208.426 184.093 210.485 184.179 212.544 184.007C215.718 183.664 218.806 183.664 221.98 184.007C223.524 184.179 225.068 184.35 226.698 184.436C227.728 184.436 228.5 184.179 228.757 183.064V182.978Z" fill="#F0DADA"/>
<path d="M228.757 182.978C228.5 184.093 227.727 184.436 226.698 184.351C225.154 184.265 223.524 184.093 221.98 183.922C218.806 183.579 215.718 183.579 212.544 183.922C210.485 184.093 208.512 183.922 206.453 184.608C205.338 184.951 204.909 184.265 204.737 182.635C205.595 181.949 206.71 181.606 207.826 181.52C214.002 180.748 220.178 180.833 226.355 181.52C227.384 181.691 228.242 181.949 228.757 182.978Z" fill="#FDFDFC"/>
<path d="M237.336 262.843C235.448 261.385 233.819 259.669 231.588 258.64C232.618 257.096 233.475 255.723 234.505 254.179C236.564 256.839 236.821 259.841 237.336 262.843Z" fill="#F0DADA"/>
<path d="M204.566 255.809C205.081 256.238 205.252 256.752 205.51 257.267C203.108 258.382 200.963 259.669 198.818 261.213C198.561 260.698 198.818 260.355 198.818 259.926C199.076 258.468 199.076 258.468 200.534 258.211C202.078 257.953 203.279 256.924 204.48 255.809H204.566Z" fill="#F0DADA"/>
<path d="M147.176 161.103C150.522 162.304 153.61 164.019 156.269 166.336C157.728 167.708 158.671 169.338 158.929 171.397C159.443 175 159.358 178.603 159.014 182.292C158.671 185.894 156.527 188.125 153.696 189.926C151.723 191.213 149.75 192.5 147.605 193.358C142.458 195.417 137.139 196.961 131.563 195.331C130.363 194.988 128.99 194.816 127.789 194.559C124.1 193.872 120.583 192.414 117.323 190.613C115.779 189.755 113.978 189.154 112.519 188.039C109.86 186.066 108.059 183.407 106.686 180.49C105.828 178.689 105.399 176.716 105.142 174.743C104.97 173.284 104.713 171.826 104.456 170.368C104.284 169.424 104.37 168.48 104.799 167.622C106.686 163.762 109.345 160.674 112.863 158.272C114.321 157.328 115.951 157.243 117.581 157.157C118.01 157.157 118.524 157.157 118.953 157.157C120.068 157.157 120.154 157.414 119.897 158.444C118.953 162.132 118.953 165.907 118.953 169.681C118.953 174.142 119.897 178.431 121.527 182.463C123.071 186.152 125.044 189.583 128.733 191.728C131.563 193.444 134.48 193.529 137.483 192.243C139.198 191.47 140.657 190.184 141.772 188.725C145.203 184.093 146.833 178.86 147.176 173.198C147.348 170.024 147.605 166.85 146.919 163.762C146.747 163.076 146.919 162.39 146.576 161.703C146.404 161.274 146.747 161.103 147.176 161.017V161.103Z" fill="#FDFDFC"/>
<path d="M147.176 161.103C146.833 161.103 146.404 161.36 146.576 161.789C146.833 162.475 146.747 163.162 146.919 163.848C147.605 167.022 147.348 170.196 147.176 173.284C146.833 178.946 145.203 184.179 141.772 188.811C140.657 190.355 139.198 191.556 137.483 192.328C134.566 193.615 131.649 193.529 128.733 191.814C125.13 189.669 123.071 186.238 121.527 182.549C119.811 178.431 118.953 174.228 118.953 169.767C118.953 165.992 118.953 162.218 119.897 158.529C120.154 157.414 119.983 157.328 118.953 157.242C118.524 157.242 118.01 157.242 117.581 157.242C118.096 156.899 118.61 156.985 119.125 156.985C120.497 157.071 121.784 156.985 123.243 156.985C122.985 158.186 122.642 159.301 122.385 160.416C120.926 167.794 121.441 175 124.272 182.034C125.216 184.436 126.76 186.581 128.561 188.382C131.306 191.213 135.081 191.385 138.083 188.811C139.885 187.267 141.086 185.38 142.029 183.235C144.088 178.517 144.689 173.541 144.603 168.394C144.603 165.649 144.174 162.99 143.488 160.416C143.488 160.159 143.316 159.988 143.573 159.644C144.86 159.902 146.061 160.502 147.176 161.103Z" fill="#EEF0ED"/>
<path d="M130.963 168.823C131.821 168.823 132.679 168.909 133.365 169.51C133.966 170.024 134.394 170.625 134.566 171.397C134.909 173.113 134.652 174.743 133.966 176.372C133.537 177.402 132.765 178.088 131.564 178.174C130.534 178.174 129.505 177.488 129.076 176.287C128.647 175.343 128.647 174.314 128.475 173.284C128.218 173.284 127.961 173.284 127.789 173.37C125.902 173.713 124.529 173.113 123.843 171.225C122.814 168.566 123.071 165.907 124.272 163.333C124.787 162.304 125.644 161.703 126.845 161.703C128.132 161.703 129.247 162.39 129.848 163.591C130.363 164.62 130.62 165.649 130.706 166.765C130.706 167.365 130.706 167.966 130.877 168.566L130.963 168.823Z" fill="#FDFDFC"/>
<path d="M164.162 174.4C166.135 177.402 166.135 177.745 163.647 180.147C163.561 178.174 164.247 176.458 164.162 174.4Z" fill="#EEF0ED"/>
<path d="M100.167 159.645C101.796 159.387 103.169 159.473 104.627 158.958C104.113 160.417 102.826 161.017 102.311 162.304C101.796 161.275 101.367 160.417 100.252 159.645H100.167Z" fill="#EEF0ED"/>
<path d="M314.885 157.929C317.458 157.672 319.174 159.301 320.889 160.674C322.605 162.047 324.149 163.762 325.522 165.564C327.237 167.88 328.095 170.453 327.409 173.456C326.98 175.343 326.637 177.23 326.294 179.118C325.608 182.292 323.72 184.694 321.747 187.096C319.86 189.412 317.029 190.27 314.541 191.642C310.681 193.787 306.563 194.902 302.274 195.76C299.1 196.36 296.012 196.961 292.838 196.36C290.608 195.931 288.549 195.245 286.49 194.473C281.943 192.843 278.083 190.184 274.48 187.01C273.794 186.324 273.365 185.466 273.108 184.608C271.907 181.091 271.392 177.402 272.25 173.713C272.507 172.512 273.108 171.569 273.708 170.539C276.282 165.907 280.142 162.733 285.289 161.103C286.233 161.274 286.147 161.875 286.061 162.561C285.718 164.792 285.546 167.108 285.375 169.338C285.375 170.539 285.632 171.826 285.718 173.027C285.804 176.63 286.747 180.061 287.862 183.493C288.978 186.838 290.865 189.669 293.524 192.071C295.154 193.615 297.213 194.301 299.272 194.216C302.103 194.13 304.419 192.672 306.306 190.613C308.622 188.039 309.995 184.951 311.196 181.777C312.139 179.118 312.74 176.373 312.911 173.542C313.083 171.397 313.684 169.252 313.34 167.108C312.911 164.706 313.083 162.218 312.397 159.816C311.968 158.444 312.397 158.1 313.855 158.1C314.284 158.1 314.713 158.1 315.056 158.1L314.885 157.929Z" fill="#FDFDFC"/>
<path d="M314.885 157.929C314.456 157.929 314.027 157.929 313.684 157.929C312.14 157.929 311.797 158.272 312.226 159.644C312.912 162.046 312.74 164.534 313.169 166.936C313.512 169.081 312.912 171.225 312.74 173.37C312.569 176.115 311.968 178.946 311.025 181.605C309.824 184.779 308.537 187.953 306.135 190.441C304.248 192.5 301.931 193.958 299.101 194.044C296.956 194.044 294.983 193.444 293.353 191.899C290.694 189.497 288.806 186.667 287.691 183.321C286.576 179.89 285.632 176.544 285.547 172.855C285.547 171.654 285.203 170.453 285.203 169.167C285.289 166.85 285.461 164.62 285.89 162.39C285.976 161.703 286.061 161.103 285.118 160.931C285.804 160.331 286.662 160.331 287.348 160.073C288.206 159.816 288.549 160.073 288.721 160.931C288.806 161.532 288.721 162.132 288.549 162.647C287.605 168.909 287.949 175.086 289.75 181.091C290.436 183.235 291.294 185.294 292.581 187.095C293.353 188.125 294.211 189.154 295.24 189.926C297.471 191.47 299.873 191.556 302.103 190.012C303.99 188.725 305.191 187.01 306.306 185.122C308.279 181.434 309.309 177.488 309.824 173.37C310.51 168.137 310.167 162.904 308.88 157.843C308.88 157.671 308.88 157.5 308.88 157.157C310.853 157.414 312.826 157.328 314.799 157.843L314.885 157.929Z" fill="#EEF0ED"/>
<path d="M293.953 173.284C291.037 173.027 289.921 171.998 289.75 169.167C289.578 167.623 289.75 166.078 290.265 164.62C290.951 162.904 292.238 161.961 293.696 162.218C295.24 162.561 297.213 163.505 297.213 165.821C297.213 166.593 297.213 167.451 297.213 168.309C299.701 168.995 300.301 169.853 300.13 172.598C300.13 173.799 299.872 175.086 299.358 176.201C298.671 177.574 297.47 178.26 296.269 178.088C295.069 177.831 294.211 176.802 294.039 175.257C294.039 174.657 294.039 173.971 294.039 173.37L293.953 173.284Z" fill="#FDFDFC"/>
<path d="M331.956 160.245C330.926 161.274 330.498 162.218 329.897 163.076C328.782 162.304 328.61 161.017 327.323 159.902C329.039 159.988 330.326 160.159 331.956 160.245Z" fill="#EEF0ED"/>
<path d="M267.189 178.775C266.56 178.088 266.56 177.345 267.189 176.544C267.36 177.402 267.36 178.088 267.189 178.775Z" fill="#C4BB9D"/>
<path d="M228.242 226.985C228.071 226.985 227.899 226.985 227.728 226.985C226.698 226.985 226.012 226.299 226.012 225.527C226.012 224.841 226.612 224.326 227.556 224.154C231.331 223.64 235.362 226.127 236.392 229.816C236.735 230.845 236.392 231.618 235.706 231.875C235.019 232.132 234.419 231.875 233.904 230.931C233.818 230.76 233.733 230.502 233.647 230.331C232.703 227.843 230.644 227.071 228.242 226.985Z" fill="#FDFDFC"/>
<path d="M236.907 234.878C236.821 235.564 236.735 236.336 236.392 237.022C235.963 237.708 235.277 238.052 234.59 237.708C233.904 237.365 233.647 236.851 233.818 236.164C233.904 235.564 233.99 235.049 234.161 234.449C234.419 233.333 235.019 232.819 235.791 232.99C236.563 233.076 236.992 233.762 236.907 234.963V234.878Z" fill="#FDFDFC"/>
</g>
<defs>
<clipPath id="clip0_36_668">
<rect width="422" height="350" fill="white"/>
</clipPath>
</defs>
</svg>
