<svg width="391" height="351" viewBox="0 0 391 351" fill="none" xmlns="http://www.w3.org/2000/svg">
<path d="M312.061 41.7357C311.111 42.6489 310.284 43.6924 309.377 44.649C308.402 45.674 308.278 45.6988 307.172 44.9161C301.265 40.7356 295.376 36.5489 289.487 32.3498C288.431 31.5982 288.443 31.5547 289.152 30.5981C289.897 29.5856 290.624 28.5606 291.444 27.6102C291.878 27.1009 292.288 26.4735 293.195 26.4238C293.475 26.4424 293.773 26.6847 294.071 26.9083C300.04 31.3249 305.997 35.7414 311.98 40.1393C312.732 40.6984 312.75 41.0835 312.061 41.7357Z" fill="#222222"/>
<path d="M312.061 41.7357C311.111 42.6489 310.284 43.6924 309.377 44.649C308.402 45.674 308.278 45.6988 307.172 44.9161C301.265 40.7356 295.376 36.5489 289.487 32.3498C288.431 31.5982 288.443 31.5547 289.152 30.5981C289.897 29.5856 290.624 28.5606 291.444 27.6102C291.878 27.1009 292.288 26.4735 293.195 26.4238C293.475 26.4424 293.773 26.6847 294.071 26.9083C300.04 31.3249 305.997 35.7414 311.98 40.1393C312.732 40.6984 312.75 41.0835 312.061 41.7357Z" stroke="#222222" stroke-width="1.40137" stroke-miterlimit="10"/>
<path d="M13.2542 255.224C13.8275 262.492 15.214 269.591 17.7726 276.432C25.4721 297.018 39.1789 312.327 58.59 322.507C70.5725 328.791 83.3879 332.055 96.9357 332.205C112.906 332.382 127.758 328.408 141.364 319.951C148.968 315.225 155.897 309.705 161.682 302.824C161.838 302.639 161.975 302.41 162.434 302.432C162.661 304.069 162.679 305.536 161.579 307.106C150.724 322.618 136.006 332.537 117.762 337.144C78.4812 347.063 36.6364 327.074 19.72 291.174C15.9464 283.165 13.5101 274.767 12.8542 265.939C12.5895 262.372 12.3908 258.763 12.6864 255.168C12.8753 255.187 13.0641 255.205 13.2542 255.224Z" fill="#222222"/>
<path d="M13.2542 255.224C13.8275 262.492 15.214 269.591 17.7726 276.432C25.4721 297.018 39.1789 312.327 58.59 322.507C70.5725 328.791 83.3879 332.055 96.9357 332.205C112.906 332.382 127.758 328.408 141.364 319.951C148.968 315.225 155.897 309.705 161.682 302.824C161.838 302.639 161.975 302.41 162.434 302.432C162.661 304.069 162.679 305.536 161.579 307.106C150.724 322.618 136.006 332.537 117.762 337.144C78.4812 347.063 36.6364 327.074 19.72 291.174C15.9464 283.165 13.5101 274.767 12.8542 265.939C12.5895 262.372 12.3908 258.763 12.6864 255.168C12.8753 255.187 13.0641 255.205 13.2542 255.224Z" stroke="#222222" stroke-width="1.40137" stroke-miterlimit="10"/>
<path d="M175.987 298.241C175.459 296.095 174.941 294.023 174.181 292.029C173.866 291.205 174.214 290.928 174.941 290.68C178.102 289.604 181.248 288.48 184.399 287.372C201.579 281.329 218.775 275.328 235.931 269.216C241.805 267.124 247.584 264.76 253.402 262.508C256.577 261.278 259.842 260.324 263.068 259.251C264.088 258.91 264.375 259.178 264.608 260.124C265.254 262.755 265.994 265.364 266.69 267.982C267.031 269.261 267.033 269.291 265.783 269.694C261.404 271.104 257.019 272.492 252.635 273.888C227.714 281.818 202.793 289.747 177.87 297.676C177.277 297.864 176.678 298.034 175.987 298.241Z" fill="#222222"/>
<path d="M175.987 298.241C175.459 296.095 174.941 294.023 174.181 292.029C173.866 291.205 174.214 290.928 174.941 290.68C178.102 289.604 181.248 288.48 184.399 287.372C201.579 281.329 218.775 275.328 235.931 269.216C241.805 267.124 247.584 264.76 253.402 262.508C256.577 261.278 259.842 260.324 263.068 259.251C264.088 258.91 264.375 259.178 264.608 260.124C265.254 262.755 265.994 265.364 266.69 267.982C267.031 269.261 267.033 269.291 265.783 269.694C261.404 271.104 257.019 272.492 252.635 273.888C227.714 281.818 202.793 289.747 177.87 297.676C177.277 297.864 176.678 298.034 175.987 298.241Z" stroke="#222222" stroke-width="1.40137" stroke-miterlimit="10"/>
<path d="M348.521 258.204C338.746 265.466 327.862 270.239 315.932 272.611C304.491 274.885 293.117 274.719 281.853 271.475C281.49 271.37 281.131 271.252 280.769 271.14C278.019 270.284 277.991 270.286 277.755 267.499C277.607 265.752 277.342 264 277.559 262.256C278.16 261.971 278.587 262.36 279.03 262.524C286.062 265.118 293.319 266.584 300.798 267.018C305.588 267.296 310.361 267.483 315.158 267.012C322.606 266.279 329.807 264.537 336.879 262.153C340.77 260.842 344.513 259.194 348.208 257.427C348.842 257.472 348.693 257.834 348.521 258.204Z" fill="#222222"/>
<path d="M348.521 258.204C338.746 265.466 327.862 270.239 315.932 272.611C304.491 274.885 293.117 274.719 281.853 271.475C281.49 271.37 281.131 271.252 280.769 271.14C278.019 270.284 277.991 270.286 277.755 267.499C277.607 265.752 277.342 264 277.559 262.256C278.16 261.971 278.587 262.36 279.03 262.524C286.062 265.118 293.319 266.584 300.798 267.018C305.588 267.296 310.361 267.483 315.158 267.012C322.606 266.279 329.807 264.537 336.879 262.153C340.77 260.842 344.513 259.194 348.208 257.427C348.842 257.472 348.693 257.834 348.521 258.204Z" stroke="#222222" stroke-width="1.40137" stroke-miterlimit="10"/>
<path d="M293.194 26.4229C293.478 26.4409 293.771 26.6863 294.074 26.9105C300.04 31.3233 306 35.7436 311.979 40.139C312.735 40.6956 312.748 41.0863 312.064 41.738C311.11 42.6467 310.287 43.6916 309.377 44.6488C308.406 45.6719 308.28 45.7004 307.17 44.9146C301.268 40.7372 295.374 36.5474 289.488 32.347C288.435 31.5954 288.447 31.555 289.153 30.5991C289.9 29.5878 290.628 28.5585 291.444 27.6075C291.879 27.1031 292.29 26.4757 293.194 26.4229Z" fill="#222222"/>
<path d="M293.194 26.4229C293.478 26.4409 293.771 26.6863 294.074 26.9105C300.04 31.3233 306 35.7436 311.979 40.139C312.735 40.6956 312.748 41.0863 312.064 41.738C311.11 42.6467 310.287 43.6916 309.377 44.6488C308.406 45.6719 308.28 45.7004 307.17 44.9146C301.268 40.7372 295.374 36.5474 289.488 32.347C288.435 31.5954 288.447 31.555 289.153 30.5991C289.9 29.5878 290.628 28.5585 291.444 27.6075C291.879 27.1031 292.29 26.4757 293.194 26.4229Z" stroke="#222222" stroke-width="1.40137" stroke-miterlimit="10"/>
<path d="M304.717 122.83C309.714 122.867 315.229 123.37 320.673 124.555C333.327 127.311 344.157 133.422 353.457 142.359C355.367 144.195 357.206 146.095 359.036 148.011C364.391 153.616 368.159 160.19 371.096 167.291C374.84 176.343 376.545 185.808 376.133 195.558C375.417 212.484 368.856 226.796 356.248 238.234C349.504 244.351 342.056 249.302 333.357 252.255C323.714 255.528 313.845 256.619 303.722 255.667C298.558 255.182 293.543 254.037 288.546 252.67C279.827 250.282 272.199 245.841 265.077 240.463C258.256 235.312 252.709 228.982 248.437 221.557C245.652 216.717 243.793 211.527 242.258 206.169C240.488 199.992 239.593 193.731 239.649 187.323C239.673 184.546 240.069 181.79 240.235 179.024C240.683 171.563 242.542 164.463 245.807 157.779C253.944 141.113 267.25 130.576 284.9 125.361C290.939 123.576 297.264 122.837 304.717 122.83ZM305.174 132.251C297.654 132.28 290.382 133.595 283.367 136.35C254.077 147.849 243.003 178.41 251.091 204.226C255.431 218.08 269.215 235.225 283.475 242.203C296.704 248.678 310.375 250.07 324.428 245.607C335.4 242.123 344.793 235.93 352.542 227.426C367.539 210.973 370.288 187.949 361.621 168.606C351.715 146.498 329.677 132.4 305.174 132.251Z" fill="#222222"/>
<path d="M99.8621 285.918C97.6085 286.018 96.1562 285.048 95.2655 283.256C94.6778 282.072 94.2175 280.825 93.7162 279.599C92.2347 275.982 90.7694 272.358 89.2817 268.743C88.6593 267.231 88.6381 267.232 87.1287 267.706C82.4985 269.16 77.8744 270.637 73.2361 272.066C72.1559 272.399 71.0403 272.688 69.9203 272.806C67.9127 273.017 66.3454 272.217 65.3944 270.387C65.0751 269.774 64.8105 269.128 64.572 268.477C62.706 263.388 60.8039 258.312 59.3709 253.074C58.9758 251.632 58.982 250.189 59.2063 248.769C59.502 246.893 60.8449 245.851 62.5463 245.248C65.3988 244.24 68.2611 243.259 71.1204 242.269C72.9075 241.651 74.6847 240.999 76.4892 240.436C77.3738 240.161 77.5173 239.797 77.1626 238.934C75.34 234.503 73.4697 230.089 72.0192 225.515C71.7149 224.555 71.372 223.599 71.1645 222.615C70.6365 220.112 71.6981 218.688 74.0393 217.658C79.7777 215.133 85.9174 213.925 91.8297 211.982C93.128 211.555 94.4579 211.335 95.6643 210.531C96.9898 209.648 98.339 210.256 99.4689 211.218C100.407 212.018 100.922 213.105 101.391 214.216C103.038 218.109 104.534 222.057 105.809 226.088C106.076 226.929 106.347 227.769 106.646 228.6C107.099 229.857 107.117 229.872 108.351 229.451C111.453 228.393 114.549 227.315 117.648 226.247C118.005 226.123 118.363 226 118.722 225.881C122.645 224.591 125.499 225.884 127.07 229.741C127.831 231.608 128.478 233.522 129.164 235.42C130.086 237.97 130.939 240.546 131.928 243.069C132.668 244.954 132.859 246.966 133.481 248.884C134.061 250.675 133.206 252.206 131.684 253.307C130.956 253.833 130.107 254.096 129.267 254.364C125.604 255.534 121.937 256.69 118.271 257.848C116.577 258.383 116.576 258.38 117.118 260.005C118.355 263.713 119.598 267.419 120.826 271.13C122.123 275.05 120.727 278.238 116.953 279.978C113.569 281.537 109.99 282.588 106.526 283.94C105.41 284.376 104.274 284.759 103.174 285.232C102.048 285.715 100.883 285.907 99.8621 285.918Z" fill="#222222"/>
<path d="M194.277 222.639C194.286 223.868 193.884 224.987 193.384 226.088C191.585 230.051 189.448 233.844 187.457 237.709C184.341 243.762 181.127 249.764 178.005 255.813C177.002 257.76 175.757 259.306 173.442 259.657C173.14 259.702 172.85 259.867 172.568 260.005C169.007 261.755 165.058 258.753 165.022 254.959C165.007 253.38 165.278 251.837 166.067 250.402C171.657 240.241 177.275 230.092 182.775 219.88C184.807 216.106 189.233 215.774 192.195 217.817C193.637 218.811 194.268 220.282 194.277 222.639Z" fill="#222222"/>
<path d="M204.267 243.592C204.197 242.49 204.446 241.52 204.88 240.596C209.845 230.06 214.779 219.51 219.8 209.002C221.571 205.298 225.72 204.58 228.548 207.446C230.486 209.411 230.708 211.936 230.131 214.494C229.744 216.211 228.932 217.805 228.168 219.394C224.267 227.509 220.332 235.606 216.463 243.737C215.59 245.571 214.227 246.943 212.685 248.128C210.956 249.457 208.956 249.655 206.977 248.704C204.831 247.673 204.165 245.774 204.267 243.592Z" fill="#222222"/>
<path d="M314.2 232.497C302.659 232.419 294.586 222.065 297.289 210.813C299.252 202.649 306.059 196.454 314.221 195.328C327.769 193.46 337.669 205.783 333.461 218.498C330.661 226.954 322.983 232.557 314.2 232.497ZM317.798 202.139C310.973 202.053 305.281 205.994 303.445 211.502C301.652 216.882 304.172 222.412 309.407 224.586C316.218 227.414 324.792 223.904 327.582 217.095C329.164 213.233 328.802 209.538 326.154 206.247C323.824 203.353 320.618 202.221 317.798 202.139Z" fill="#222222"/>
<path d="M320.23 162.782C320.222 174.32 309.437 184.043 298.01 182.568C290.704 181.623 284.826 175.54 284.13 168.215C283.121 157.59 291.416 146.871 303.175 146.318C313.515 145.832 320.343 153.751 320.23 162.782ZM303.648 153.243C296.789 152.98 290.205 159.682 290.531 166.592C290.756 171.369 294.451 176.234 300.825 175.931C306.988 175.638 311.508 171.396 313.089 166.244C315.121 159.627 310.575 152.946 303.648 153.243Z" fill="#222222"/>
<path d="M276.273 218.172C270.46 217.901 265.636 214.546 262.705 208.461C260.603 204.099 260.299 199.556 261.47 194.827C263.634 186.09 272.95 180.559 279.662 180.902C286.529 181.253 291.243 184.677 294.132 190.781C296.128 194.998 296.465 199.407 295.183 203.865C292.938 211.684 285.87 218.211 276.273 218.172ZM288.797 197.777C288.797 197.588 288.792 197.399 288.798 197.21C288.976 191.277 283.639 185.57 275.948 187.836C270.065 189.57 265.757 196.427 266.808 202.482C267.91 208.822 272.938 211.486 277.752 210.766C284.793 209.714 289.022 202.896 288.797 197.777Z" fill="#222222"/>
<path d="M356.888 181.146C356.87 190.555 350.384 198.288 341.296 199.742C337.101 200.412 333.207 199.236 329.895 196.719C323.646 191.972 321.447 185.501 323.162 177.949C324.874 170.412 329.637 165.712 337.287 163.839C343.521 162.313 353.199 166.096 356.076 175.738C356.621 177.557 356.96 179.415 356.888 181.146ZM351.565 181.833C351.526 173.005 344.243 167.789 337.049 170.591C331.627 172.704 328.255 178.775 329.333 184.487C330.842 192.48 339.413 196.064 346.075 191.434C349.685 188.926 351.397 185.342 351.565 181.833Z" fill="#222222"/>
<path d="M317.798 202.14C320.618 202.222 323.823 203.353 326.153 206.247C328.802 209.538 329.163 213.233 327.581 217.095C324.791 223.904 316.217 227.413 309.407 224.586C304.171 222.413 301.652 216.883 303.444 211.503C305.28 205.994 310.973 202.053 317.798 202.14Z" fill="#222222"/>
<path d="M317.798 202.14C320.618 202.222 323.823 203.353 326.153 206.247C328.802 209.538 329.163 213.233 327.581 217.095C324.791 223.904 316.217 227.413 309.407 224.586C304.171 222.413 301.652 216.883 303.444 211.503C305.28 205.994 310.973 202.053 317.798 202.14Z" stroke="#222222" stroke-width="1.40137" stroke-miterlimit="10"/>
<path d="M303.648 153.243C310.575 152.946 315.121 159.627 313.089 166.244C311.508 171.396 306.988 175.638 300.825 175.931C294.451 176.233 290.756 171.368 290.531 166.592C290.205 159.682 296.789 152.98 303.648 153.243Z" fill="#222222"/>
<path d="M303.648 153.243C310.575 152.946 315.121 159.627 313.089 166.244C311.508 171.396 306.988 175.638 300.825 175.931C294.451 176.233 290.756 171.368 290.531 166.592C290.205 159.682 296.789 152.98 303.648 153.243Z" stroke="#222222" stroke-width="1.40137" stroke-miterlimit="10"/>
<path d="M288.798 197.776C289.022 202.896 284.793 209.714 277.753 210.766C272.939 211.486 267.911 208.822 266.809 202.482C265.757 196.427 270.065 189.57 275.948 187.836C283.64 185.57 288.976 191.277 288.799 197.21C288.792 197.399 288.797 197.588 288.798 197.776Z" fill="#222222"/>
<path d="M288.798 197.776C289.022 202.896 284.793 209.714 277.753 210.766C272.939 211.486 267.911 208.822 266.809 202.482C265.757 196.427 270.065 189.57 275.948 187.836C283.64 185.57 288.976 191.277 288.799 197.21C288.792 197.399 288.797 197.588 288.798 197.776Z" stroke="#222222" stroke-width="1.40137" stroke-miterlimit="10"/>
<path d="M351.565 181.833C351.397 185.342 349.685 188.926 346.075 191.434C339.413 196.064 330.842 192.48 329.333 184.487C328.256 178.775 331.627 172.704 337.05 170.591C344.243 167.789 351.527 173.005 351.565 181.833Z" fill="#222222"/>
<path d="M351.565 181.833C351.397 185.342 349.685 188.926 346.075 191.434C339.413 196.064 330.842 192.48 329.333 184.487C328.256 178.775 331.627 172.704 337.05 170.591C344.243 167.789 351.527 173.005 351.565 181.833Z" stroke="#222222" stroke-width="1.40137" stroke-miterlimit="10"/>
<path d="M387.602 174.394C377.048 133.328 335.778 105.226 293.768 110.698C279.276 112.581 264.796 119.103 250.677 122.991C239.837 125.7 229.054 128.613 218.301 131.644C212.922 133.16 207.555 134.707 202.188 136.272C199.511 137.055 196.834 137.844 194.156 138.639C192.92 138.999 190.069 140.527 188.876 139.608C188.267 139.136 187.963 138.378 187.69 137.657C186.317 134.061 183.341 129.34 184.534 125.389C185.18 123.252 187.05 121.668 189.1 120.786C191.15 119.898 193.392 119.6 195.597 119.24C200.529 118.426 205.511 117.183 209.691 114.444C216.232 110.158 220.519 101.163 214.357 94.6969C212.773 93.0384 210.853 91.8333 208.784 90.8581C202.951 88.1 196.858 87.7957 190.665 89.1001C187.578 89.7461 184.497 90.3611 181.366 90.74C177.422 91.2183 173.502 91.8643 169.514 91.9203C165.01 91.9886 160.594 91.2618 156.165 90.6406C148.009 89.4977 141.052 85.9508 135.343 80.0186C132.809 77.3848 130.392 74.6827 128.721 71.3345C125.616 65.129 124.504 58.7123 125.914 51.8856C126.951 46.8789 128.97 42.2822 131.753 38.0209C138.319 27.9579 147.307 20.7523 158.215 15.8574C165.383 12.6397 172.875 10.7886 180.763 11.0061C189.677 11.2545 197.635 13.8324 203.635 20.9076C204.585 22.0319 205.337 23.2556 205.846 24.6098C206.201 25.554 205.778 25.9205 204.822 25.7155C204.579 25.6658 204.349 25.5353 204.108 25.467C191.995 22.2679 177.621 25.0011 166.993 31.4613C157.986 36.9339 149.643 46.3695 148.016 57.0786C146.382 67.7938 153.215 77.1549 163.092 80.8199C181.752 87.7522 203.984 77.0493 215.407 62.0418C217.494 59.2962 218.712 56.7245 221.457 60.8491C226.116 67.8435 230.222 73.7633 237.571 78.1985C243.975 82.0622 251.279 84.3544 258.703 85.1557C268.362 86.2055 279.487 84.4786 285.357 75.8753C286.146 74.7262 287.004 73.0179 288.383 74.3783C295.954 81.8634 301.576 72.347 306.831 66.8124C308.707 64.837 320.094 54.2336 316.205 51.0035C315.826 50.6867 315.578 50.227 315.242 49.7984C315.136 49.668 317.745 46.5683 317.956 46.2142C319.597 43.4624 319.1 41.0833 316.552 39.1763C314.832 37.8905 313.086 36.6481 311.359 35.3747C305.676 31.1818 300.01 26.9516 294.296 22.7959C291.258 20.5846 289.258 20.9821 287.127 24.001C286.264 25.2247 285.221 27.8709 283.35 27.5231C280.891 27.0696 279.884 23.473 277.002 25.4484C272.251 28.7033 256.305 49.7114 262.249 55.0225C263.467 56.1157 265.243 56.5381 266.231 57.8426C266.641 58.383 266.864 59.0291 266.939 59.6999C267.027 60.4578 266.921 61.2529 266.678 61.9734C265.238 66.3092 262.684 69.9804 257.746 69.6884C253.807 69.4524 250.024 67.9491 246.683 65.8558C238.464 60.7187 231.153 52.5502 226.171 44.301C224.307 41.2014 222.798 37.7787 222.444 34.1448C222.096 30.56 220.63 26.933 219.226 23.6221C214.337 12.062 205.281 5.58941 193.441 2.60156C177.278 -1.47956 159.519 2.3593 145.461 11.211C127.242 22.6841 109.949 47.3075 116.092 69.6077C120.521 85.6899 135.833 96.4486 151.443 100.045C160.289 102.089 169.426 102.257 178.446 101.592C182.931 101.263 202.889 94.6472 204.206 102.518C204.572 104.704 202.255 106.319 200.206 107.158C194.907 109.338 189.217 110.369 183.682 111.841C178.148 113.314 172.582 115.314 168.252 119.066C162.159 124.339 160.749 132.881 163.24 140.353C163.625 141.496 164.103 142.652 164.041 143.857C163.973 145.099 164.755 147.559 163.184 147.857C162.941 147.907 162.705 147.994 162.463 148.068C145.48 153.274 128.547 158.665 111.663 164.194C98.364 168.555 85.1641 173.207 71.8772 177.611C60.373 181.425 47.7259 183.792 37.4206 190.445C1.33101 213.757 -8.50841 265.905 11.1952 302.554C29.9299 337.415 70.2565 354.516 108.664 349.323C122.541 347.447 135.443 342.72 147.326 335.29C158.687 328.19 166.793 313.909 179.285 309.897C196.355 304.418 213.425 298.939 230.495 293.46C238.813 290.796 247.13 288.124 255.447 285.453C260.833 283.727 265.815 280.005 271.636 279.993C274.568 279.986 277.4 280.962 280.22 281.782C342.859 299.921 403.461 236.095 387.602 174.394ZM289.152 30.5979C289.897 29.5854 290.624 28.5604 291.444 27.61C291.879 27.1007 292.289 26.4733 293.195 26.4236C293.475 26.4422 293.773 26.6845 294.071 26.9081C300.04 31.3247 305.997 35.7412 311.979 40.1391C312.731 40.6982 312.749 41.0833 312.061 41.7356C311.11 42.6487 310.284 43.6923 309.377 44.6489C308.402 45.6738 308.278 45.6987 307.172 44.916C301.264 40.7355 295.376 36.5488 289.487 32.3496C288.432 31.598 288.444 31.5545 289.152 30.5979ZM207.859 48.0343C207.335 50.6979 206.32 53.1453 204.882 55.3753C204.512 55.9487 204.122 56.5121 203.696 57.0562C196.955 65.6682 188.309 71.0755 177.792 73.2595C176.944 73.436 176.089 73.5981 175.216 73.7323C175.016 73.7627 174.814 73.782 174.612 73.8006C174.136 73.8441 173.656 73.8633 173.176 73.8795C173.089 73.882 173.002 73.8857 172.915 73.8888C172.676 73.8969 172.437 73.9056 172.199 73.9192C171.846 73.9211 171.496 73.9068 171.145 73.8931C169.539 73.8329 167.957 73.6136 166.402 73.1546C161.593 71.7383 158.624 68.4703 157.973 64.2339C157.721 62.5983 157.805 60.8224 158.277 58.9464C158.996 56.094 160.257 53.4782 162.051 51.1712C165.117 47.2255 168.572 43.9445 172.409 41.3225C177.971 37.519 184.343 35.1163 191.553 34.2007C192.012 34.1429 192.47 34.1057 192.927 34.0796C193.88 34.0237 194.829 34.0411 195.772 34.1249C197.497 34.2777 199.202 34.656 200.864 35.2878C206.25 37.3376 208.946 42.4934 207.859 48.0343ZM265.784 269.694C261.404 271.104 257.019 272.496 252.633 273.887C227.712 281.82 202.79 289.745 177.869 297.678C177.279 297.865 176.676 298.032 175.987 298.243C175.459 296.094 174.943 294.026 174.179 292.032C173.868 291.206 174.216 290.926 174.943 290.677C178.105 289.603 181.248 288.478 184.397 287.373C201.579 281.329 218.773 275.328 235.93 269.216C241.806 267.123 247.583 264.762 253.404 262.507C256.578 261.277 259.839 260.327 263.07 259.252C264.088 258.911 264.374 259.178 264.61 260.122C265.256 262.755 265.995 265.364 266.691 267.979C267.032 269.259 267.032 269.29 265.784 269.694ZM348.356 258.321C338.623 265.52 327.796 270.253 315.931 272.614C304.489 274.887 293.116 274.72 281.854 271.477C281.494 271.371 281.133 271.254 280.773 271.142C278.021 270.284 277.99 270.284 277.754 267.502C277.605 265.75 277.344 263.998 277.562 262.259C278.158 261.974 278.586 262.359 279.034 262.527C286.059 265.117 293.321 266.583 300.8 267.018C305.589 267.297 310.36 267.483 315.161 267.011C322.609 266.278 329.808 264.539 336.877 262.154C340.753 260.849 344.474 259.216 348.151 257.451C348.276 257.34 348.381 257.259 348.418 257.24C348.394 257.265 348.326 257.321 348.207 257.427C348.189 257.433 348.17 257.445 348.151 257.451C347.748 257.812 347.12 258.433 347.816 258.191C347.35 258.699 347.928 258.513 348.356 258.321C348.412 258.283 348.468 258.246 348.524 258.203C348.717 258.116 348.804 258.085 348.817 258.085C348.773 258.122 348.58 258.221 348.356 258.321Z" fill="#222222"/>
<path d="M174.611 73.8008C174.814 73.7822 175.016 73.763 175.216 73.7325C176.088 73.5983 176.944 73.4362 177.791 73.2598C176.944 73.4356 176.089 73.5977 175.218 73.7313C175.017 73.7623 174.815 73.7822 174.611 73.8008Z" fill="#222222"/>
<path d="M157.973 64.2344C158.624 68.4708 161.593 71.7388 166.402 73.1551C167.957 73.6135 169.539 73.8334 171.145 73.8937C169.54 73.8322 167.959 73.6129 166.405 73.1551C161.595 71.7369 158.625 68.4702 157.973 64.2344Z" fill="#222222"/>
<path d="M200.864 35.2878C199.202 34.6561 197.498 34.2778 195.773 34.125C197.497 34.2784 199.202 34.6579 200.863 35.2897C206.251 37.3371 208.945 42.4953 207.856 48.0343C207.333 50.6979 206.319 53.1453 204.883 55.3754C206.32 53.1453 207.335 50.6979 207.86 48.0343C208.946 42.4934 206.25 37.3377 200.864 35.2878Z" fill="#222222"/>
<path d="M173.174 73.8799C173.088 73.883 173.001 73.8861 172.914 73.8892C173.002 73.8855 173.088 73.8824 173.174 73.8799Z" fill="#222222"/>
<path d="M192.927 34.0801C192.469 34.1062 192.011 34.1441 191.553 34.2012C184.343 35.1168 177.971 37.5195 172.408 41.323C177.972 37.5202 184.344 35.1187 191.553 34.2025C192.011 34.1447 192.47 34.1068 192.927 34.0801Z" fill="#222222"/>
<path d="M22.4583 247.671C22.5142 235.938 24.7877 224.728 30.5175 214.383C34.0929 207.925 38.6244 202.215 44.3405 197.489C44.9803 196.959 45.6542 196.531 46.44 196.251C63.941 190.012 81.4358 183.754 98.9411 177.525C106.963 174.671 115.2 172.514 123.35 170.074C142.855 164.235 162.373 158.437 181.877 152.595C209.596 144.291 237.308 135.963 265.021 127.644C272.628 125.36 280.267 123.176 287.825 120.741C291.849 119.444 295.905 119.453 299.991 119.716C304.019 119.977 308.055 119.948 312.083 120.342C323.29 121.438 333.792 124.693 343.566 130.266C349.443 133.618 354.853 137.622 359.11 142.918C366.241 151.789 372.897 160.978 376.302 172.062C377.041 174.47 377.86 176.869 378.385 179.327C379.618 185.095 379.903 190.947 379.406 196.823C378.672 205.47 376.238 213.603 372.323 221.369C369.904 226.169 367.239 230.77 364.106 235.132C361.592 238.634 358.357 241.35 354.874 243.726C344.426 250.85 332.872 255.376 320.522 257.978C313.504 259.456 306.42 259.974 299.272 259.706C295.033 259.548 290.908 258.611 286.777 257.712C284.172 257.145 281.681 256.303 279.291 255.143C276.231 253.658 273.015 252.509 270.064 250.787C269.387 250.392 268.648 250.306 267.871 250.519C266.595 250.868 265.302 251.157 264.032 251.524C240.816 258.209 218.069 266.303 195.308 274.36C186.633 277.43 177.982 280.576 169.22 283.397C167.362 283.995 165.502 284.596 163.623 285.12C161.923 285.594 160.792 286.665 159.954 288.168C158.015 291.646 155.765 294.914 153.283 298.031C150.146 301.973 146.419 305.213 142.207 307.965C131.129 315.204 119.149 320.077 106.043 322.124C88.6439 324.841 72.5828 321.189 57.6553 312.053C53.1183 309.276 48.8657 306.117 45.0418 302.423C34.9489 292.674 28.0874 281.048 24.8169 267.351C23.2708 260.881 22.4391 254.33 22.4583 247.671ZM304.716 122.829C297.264 122.837 290.939 123.576 284.9 125.36C267.25 130.576 253.945 141.113 245.807 157.779C242.544 164.463 240.684 171.562 240.235 179.024C240.069 181.79 239.673 184.547 239.65 187.323C239.594 193.731 240.488 199.991 242.258 206.169C243.794 211.527 245.652 216.718 248.437 221.557C252.71 228.982 258.257 235.312 265.078 240.463C272.2 245.841 279.827 250.284 288.546 252.67C293.543 254.037 298.558 255.182 303.723 255.667C313.846 256.619 323.715 255.527 333.358 252.255C342.057 249.303 349.504 244.351 356.248 238.233C368.857 226.795 375.417 212.484 376.133 195.558C376.546 185.808 374.841 176.343 371.098 167.291C368.16 160.19 364.391 153.616 359.037 148.011C357.206 146.095 355.367 144.195 353.457 142.359C344.158 133.421 333.328 127.311 320.674 124.555C315.229 123.37 309.714 122.867 304.716 122.829ZM129.267 254.366C130.107 254.098 130.956 253.834 131.684 253.307C133.206 252.207 134.061 250.676 133.481 248.885C132.859 246.967 132.668 244.955 131.929 243.07C130.94 240.547 130.086 237.971 129.164 235.421C128.479 233.524 127.831 231.61 127.07 229.743C125.499 225.886 122.645 224.592 118.722 225.883C118.363 226.001 118.006 226.126 117.648 226.248C114.549 227.318 111.453 228.395 108.351 229.453C107.117 229.874 107.1 229.859 106.647 228.602C106.347 227.771 106.076 226.931 105.809 226.089C104.534 222.059 103.038 218.11 101.392 214.218C100.922 213.106 100.408 212.02 99.4691 211.22C98.3392 210.257 96.99 209.649 95.6644 210.533C94.4581 211.337 93.1281 211.557 91.8299 211.984C85.9175 213.927 79.7778 215.134 74.0394 217.66C71.6988 218.69 70.6366 220.114 71.1646 222.617C71.3721 223.6 71.715 224.556 72.0194 225.517C73.4698 230.09 75.3402 234.505 77.1627 238.935C77.518 239.799 77.3739 240.163 76.4893 240.439C74.6848 241.001 72.9076 241.652 71.1205 242.271C68.2613 243.261 65.3989 244.241 62.5465 245.25C60.8451 245.852 59.5021 246.894 59.2064 248.77C58.9822 250.192 58.9766 251.633 59.371 253.075C60.8041 258.314 62.7061 263.389 64.5721 268.479C64.8106 269.129 65.0753 269.776 65.3946 270.389C66.3456 272.218 67.9128 273.018 69.9204 272.807C71.0404 272.69 72.156 272.401 73.2363 272.068C77.8746 270.639 82.4986 269.162 87.1288 267.708C88.6383 267.233 88.6594 267.232 89.2818 268.745C90.7701 272.359 92.2355 275.983 93.7164 279.601C94.2177 280.827 94.678 282.073 95.2656 283.257C96.1564 285.05 97.6087 286.02 99.8623 285.919C100.882 285.91 102.048 285.718 103.174 285.235C104.274 284.763 105.411 284.379 106.526 283.944C109.991 282.592 113.569 281.54 116.953 279.981C120.727 278.241 122.123 275.052 120.826 271.133C119.598 267.422 118.355 263.716 117.119 260.008C116.576 258.383 116.577 258.387 118.271 257.851L129.267 254.366ZM194.276 222.638C194.268 220.281 193.637 218.812 192.195 217.816C189.233 215.773 184.807 216.105 182.775 219.879C177.276 230.09 171.657 240.238 166.067 250.402C165.278 251.836 165.007 253.378 165.022 254.958C165.058 258.751 169.007 261.754 172.568 260.004C172.85 259.866 173.14 259.701 173.442 259.655C175.757 259.306 177.002 257.758 178.005 255.812C181.127 249.762 184.341 243.761 187.457 237.709C189.448 233.842 191.584 230.05 193.384 226.086C193.884 224.988 194.286 223.867 194.276 222.638ZM204.267 243.592C204.166 245.774 204.831 247.673 206.976 248.703C208.956 249.654 210.956 249.456 212.684 248.127C214.227 246.942 215.59 245.57 216.463 243.736C220.332 235.605 224.267 227.508 228.167 219.393C228.931 217.804 229.744 216.21 230.131 214.493C230.707 211.935 230.485 209.41 228.548 207.446C225.72 204.579 221.57 205.297 219.8 209.001C214.778 219.509 209.846 230.059 204.88 240.595C204.446 241.519 204.197 242.49 204.267 243.592Z" fill="#F0DADA"/>
<path d="M17.773 276.432C25.4724 297.018 39.1799 312.325 58.5903 322.507C70.5728 328.791 83.3883 332.055 96.9361 332.205C112.906 332.382 127.758 328.407 141.364 319.95C148.969 315.224 155.897 309.704 161.682 302.824C161.838 302.639 161.975 302.41 162.434 302.431C162.661 304.068 162.679 305.535 161.58 307.106C150.725 322.617 136.007 332.536 117.762 337.143C78.4816 347.063 36.6368 327.073 19.7203 291.173C15.9473 283.165 13.5105 274.766 12.8545 265.938C12.5315 261.588 12.1718 256.152 12.8234 251.778C12.9036 251.783 14.9311 268.836 17.773 276.432Z" fill="#F2F2F0"/>
<path d="M175.987 298.241C175.459 296.095 174.941 294.023 174.181 292.029C173.867 291.205 174.214 290.928 174.941 290.68C178.102 289.604 181.248 288.48 184.399 287.372C201.58 281.329 218.775 275.328 235.931 269.216C241.806 267.124 247.585 264.76 253.402 262.508C256.577 261.278 259.842 260.324 263.068 259.251C264.089 258.91 264.375 259.178 264.608 260.124C265.254 262.755 265.994 265.364 266.691 267.982C267.031 269.261 267.033 269.291 265.784 269.694C261.404 271.104 257.02 272.492 252.635 273.888C227.714 281.818 202.793 289.747 177.871 297.676C177.278 297.864 176.679 298.034 175.987 298.241Z" fill="#F2F2F0"/>
<path d="M348.521 258.204C338.746 265.466 327.862 270.239 315.932 272.611C304.491 274.885 293.117 274.719 281.853 271.475C281.49 271.37 281.131 271.252 280.769 271.14C278.019 270.284 277.991 270.286 277.755 267.499C277.607 265.752 277.342 264 277.559 262.256C278.16 261.971 278.587 262.36 279.031 262.524C286.062 265.118 293.319 266.584 300.799 267.018C305.588 267.296 310.362 267.483 315.158 267.012C322.606 266.279 329.807 264.537 336.879 262.153C340.77 260.842 344.513 259.194 348.208 257.427C348.842 257.472 348.694 257.834 348.521 258.204Z" fill="#F2F2F0"/>
<path d="M305.174 132.252C329.676 132.4 351.715 146.499 361.62 168.607C370.287 187.95 367.537 210.973 352.541 227.427C344.792 235.93 335.399 242.123 324.427 245.608C310.375 250.071 296.703 248.678 283.474 242.204C269.214 235.225 255.43 218.08 251.09 204.226C243.001 178.41 254.077 147.849 283.365 136.35C290.381 133.596 297.654 132.28 305.174 132.252ZM314.2 232.498C322.984 232.557 330.661 226.955 333.46 218.498C337.67 205.784 327.769 193.461 314.222 195.328C306.059 196.454 299.252 202.65 297.289 210.813C294.585 222.066 302.659 232.419 314.2 232.498ZM320.231 162.783C320.344 153.751 313.515 145.833 303.176 146.318C291.416 146.87 283.122 157.59 284.131 168.215C284.827 175.54 290.706 181.623 298.011 182.567C309.437 184.043 320.223 174.32 320.231 162.783ZM276.273 218.172C285.87 218.211 292.937 211.684 295.183 203.866C296.465 199.407 296.128 194.999 294.131 190.781C291.243 184.678 286.53 181.254 279.662 180.902C272.95 180.559 263.634 186.091 261.47 194.828C260.299 199.555 260.604 204.1 262.705 208.462C265.636 214.546 270.46 217.902 276.273 218.172ZM356.889 181.146C356.959 179.415 356.62 177.558 356.077 175.738C353.2 166.097 343.522 162.313 337.288 163.839C329.638 165.712 324.875 170.412 323.163 177.949C321.448 185.501 323.647 191.972 329.895 196.719C333.206 199.236 337.103 200.412 341.296 199.741C350.385 198.288 356.869 190.555 356.889 181.146Z" fill="#F2F2F0"/>
<path d="M288.798 197.776C288.798 197.587 288.793 197.399 288.798 197.21C288.977 191.276 283.639 185.57 275.948 187.836C270.065 189.57 265.757 196.427 266.809 202.482C267.911 208.821 272.938 211.486 277.753 210.766C284.793 209.713 289.022 202.896 288.798 197.776Z" fill="#252424"/>
<path d="M351.565 181.833C351.526 173.005 344.244 167.789 337.05 170.591C331.628 172.704 328.256 178.775 329.334 184.487C330.842 192.48 339.414 196.064 346.075 191.434C349.685 188.926 351.397 185.342 351.565 181.833Z" fill="#252424"/>
<path d="M317.798 202.14C320.618 202.222 323.823 203.353 326.153 206.247C328.802 209.538 329.163 213.233 327.581 217.095C324.791 223.904 316.217 227.413 309.407 224.586C304.171 222.413 301.652 216.883 303.444 211.503C305.28 205.994 310.973 202.053 317.798 202.14Z" fill="#F64068"/>
<path d="M303.648 153.243C310.575 152.946 315.121 159.627 313.089 166.244C311.508 171.396 306.989 175.638 300.825 175.931C294.451 176.233 290.756 171.368 290.531 166.592C290.206 159.682 296.789 152.98 303.648 153.243Z" fill="#F64068"/>
<path d="M288.798 197.776C289.022 202.896 284.793 209.713 277.753 210.766C272.939 211.486 267.911 208.821 266.809 202.482C265.757 196.427 270.065 189.57 275.948 187.836C283.64 185.57 288.976 191.276 288.799 197.21C288.792 197.399 288.797 197.587 288.798 197.776Z" fill="#F64068"/>
<path d="M351.565 181.833C351.397 185.342 349.685 188.926 346.076 191.434C339.413 196.064 330.842 192.48 329.334 184.487C328.256 178.775 331.627 172.704 337.05 170.591C344.244 167.789 351.527 173.005 351.565 181.833Z" fill="#F64068"/>
<path d="M311.978 40.139C306 35.7436 300.04 31.3227 294.074 26.9099C293.771 26.6862 293.478 26.4409 293.193 26.4229C292.291 26.4757 291.879 27.103 291.445 27.6074C290.628 28.5584 289.9 29.5877 289.154 30.5984C288.448 31.555 288.436 31.5954 289.489 32.347C295.376 36.5474 301.269 40.7366 307.171 44.9146C308.28 45.6998 308.406 45.6718 309.378 44.6487C310.288 43.6915 311.111 42.6467 312.065 41.7379C312.748 41.0863 312.734 40.695 311.978 40.139Z" fill="white"/>
</svg>
