<svg width="395" height="352" viewBox="0 0 395 352" fill="none" xmlns="http://www.w3.org/2000/svg">
<path d="M394.1 186.116C393.547 192.152 389.927 198.151 385.289 202.334C378.655 208.318 370.198 211.828 362.814 216.859C352.678 223.768 344.647 233.494 334.222 239.959C328.126 243.74 321.36 246.308 315.088 249.787C302.078 257.005 291.536 267.931 279.179 276.217C256.048 291.731 227.846 297.254 200.482 302.443C200.405 314.443 195.537 327.263 185.075 333.145C180.895 335.494 176.142 336.581 171.464 337.64C159.245 340.406 147.026 343.17 134.808 345.935C119.578 349.381 103.348 352.779 88.6601 347.48C71.0628 341.131 60.0551 323.959 51.0084 307.584C46.1697 298.827 41.3971 289.56 41.1354 279.558C40.5429 256.941 62.84 238.223 61.3543 215.646C60.3156 199.859 47.8471 187.111 44.1188 171.734C40.0566 154.982 46.6523 136.34 39.665 120.583C36.7259 113.956 31.56 108.392 29.3689 101.481C26.7303 93.1586 28.7563 84.0306 26.9981 75.4787C24.2794 62.2532 13.194 52.6164 6.37667 40.9622C0.419017 30.7772 -1.01621 12.3766 9.94714 4.4155C22.1545 -4.44904 42.5355 5.5326 52.4868 13.7529C63.934 23.2088 71.8132 36.2552 78.4763 49.5238C92.043 76.543 101.472 105.55 107.511 135.174C118.401 117.206 130.787 97.9798 150.596 90.9742C159.842 87.7049 169.921 87.4596 179.245 84.4191C186.018 82.211 192.567 78.504 199.687 78.6849C213.456 79.0346 222.406 93.2054 227.053 106.171C227.977 108.746 228.987 111.543 231.297 113.006C234.287 114.898 238.194 113.824 241.698 114.318C251.375 115.681 254.892 127.529 261.316 134.894C268.547 143.187 280.902 146.683 285.876 156.499C290.403 165.433 287.028 176.368 282.003 185.032C276.978 193.697 270.281 201.64 267.684 211.315C293.495 187.237 327.114 171.664 362.171 167.55C373.79 166.186 388.321 167.694 392.944 178.441C394.009 180.911 394.339 183.518 394.1 186.116Z" fill="#222222"/>
<path d="M104.483 254.056C104.689 251.881 105.226 249.727 106.058 247.752C108.984 240.8 114.67 235.464 119.957 230.085C131.989 217.842 142.687 204.293 151.828 189.766C156.399 182.502 160.581 174.993 164.345 167.28C167.295 161.236 170.681 151.682 178.776 151.214C182.748 150.984 186.312 153.694 188.833 156.772C191.354 159.85 193.269 163.446 196.193 166.146C198.282 168.074 200.809 169.47 202.965 171.324C205.121 173.179 206.965 175.72 206.945 178.564C206.926 181.239 205.273 183.622 203.438 185.567C197.405 191.967 188.995 195.509 182.008 200.851C175.371 205.924 170.109 212.548 164.05 218.298C157.115 224.878 149.164 230.286 141.922 236.526C134.68 242.766 127.998 250.089 124.684 259.055C123.072 263.415 121.615 268.807 117.158 270.124C114.673 270.858 111.938 269.959 109.868 268.4C105.553 265.156 103.964 259.538 104.483 254.056Z" fill="#F0DADA"/>
<path d="M238.54 220.152C238.527 224.439 235.897 228.632 232.453 231.352C228.385 234.564 223.331 236.192 218.47 237.99C201.609 244.226 185.898 253.152 170.272 262.037C158.337 268.822 146.403 275.608 134.47 282.394C132.107 283.738 128.556 284.845 127.251 282.244C126.735 281.215 126.787 279.991 127.288 278.954C130.942 271.376 134.537 263.686 139.471 256.861C148.924 243.79 162.741 234.618 176.609 226.376C179.784 224.49 183.03 222.594 185.53 219.875C193.448 211.261 196.23 189.386 211.889 190.75C217.391 191.23 222.336 195.578 223.514 200.974C224.15 203.884 224.056 207.464 226.556 209.082C227.797 209.884 229.358 209.933 230.795 210.279C234.423 211.151 237.437 214.191 238.28 217.824C238.459 218.598 238.542 219.377 238.54 220.152Z" fill="#F0DADA"/>
<path d="M247.216 275.097C245.223 275.151 243.229 275.228 241.254 275.443C230.008 276.667 219.798 282.264 209.519 286.989C196.458 292.992 182.714 297.747 168.467 299.656C164.24 300.223 159.82 300.517 155.819 299.043C151.818 297.569 148.347 293.897 148.358 289.632C148.377 282.754 156.275 278.857 161.376 275.835C167.94 271.948 175.162 269.341 182.417 267.078C196.49 262.69 211.405 259.619 223.811 251.239C232.755 245.195 240.624 236.307 251.428 235.137C251.787 235.099 252.154 235.109 252.504 235.195C254.161 235.597 254.16 237.061 254.28 238.315C254.593 241.586 256.356 244.692 259.004 246.636C259.971 247.345 261.076 247.935 261.744 248.932C262.75 250.434 262.491 252.412 262.777 254.198C263.287 257.389 265.894 260.038 268.967 260.928C270.947 261.5 272.023 263.659 271.145 265.524C269.196 269.659 264.655 272.709 260.05 273.894C255.875 274.97 251.543 274.979 247.216 275.097Z" fill="#F0DADA"/>
<path d="M168.414 143.663C168.404 145.433 168.091 147.215 167.505 148.855C165.677 153.969 161.8 158.036 158.081 161.994C150.708 169.844 143.436 178.088 139.15 187.969C136.176 194.827 134.647 202.448 130.162 208.43C126.964 212.694 122.5 215.794 118.436 219.243C107.213 228.768 98.7012 241.455 94.1417 255.451C92.6197 255.401 91.3963 254.029 91.0284 252.552C90.6605 251.074 90.961 249.52 91.3138 248.038C94.5017 234.643 101.8 222.645 106.965 209.881C113.098 194.73 116.175 178.611 119.479 162.671C121.137 154.677 122.839 146.685 125.026 138.816C126.497 133.522 128.375 122.143 135.925 122.261C140.161 122.328 142.698 126.905 146.302 129.132C151.592 132.403 159.052 130.428 164.1 134.063C167.094 136.22 168.435 139.913 168.414 143.663Z" fill="#F0DADA"/>
<path d="M80.1207 89.2355C80.1274 89.4334 80.1341 89.6313 80.1414 89.8286C80.6338 102.963 83.7823 115.993 89.3417 127.904C90.9912 131.44 92.8854 134.997 93.1677 138.888C93.4494 142.779 91.5838 147.16 87.8724 148.363C85.2679 149.206 82.4065 148.336 79.7061 148.789C77.4603 149.167 75.4799 150.429 73.3799 151.311C68.0828 153.533 61.0184 152.802 57.8407 148.016C54.759 143.374 56.4225 137.249 57.202 131.732C58.2171 124.545 57.4904 117.118 55.1008 110.265C54.4026 108.263 53.538 106.266 52.0967 104.711C50.8953 103.414 49.355 102.491 47.9732 101.388C41.8188 96.479 34.9881 73.6216 49.5881 78.1659C52.3086 79.0128 54.9453 80.5427 57.7861 80.3284C62.9702 79.9368 66.6482 73.9197 71.8402 74.1801C75.1017 74.3435 77.7518 77.1016 78.898 80.1591C79.975 83.0313 80.0181 86.161 80.1207 89.2355Z" fill="#F0DADA"/>
<path d="M82.0796 256.431C78.5322 257.698 74.405 255.692 72.3693 252.523C70.3342 249.354 70.0592 245.336 70.5935 241.607C71.1283 237.879 72.3978 234.3 73.2423 230.629C77.1352 213.704 71.7355 195.857 63.2528 180.703C61.3713 177.342 59.3065 173.987 58.5227 170.216C57.5708 165.639 58.6581 160.354 63.2977 160.449C69.5765 160.578 73.8258 160.375 80.0955 158.413C84.6999 156.972 89.4803 156.093 94.296 155.801C94.7459 155.774 95.2206 155.757 95.6189 155.965C96.1999 156.27 96.4525 156.958 96.6122 157.594C97.9326 162.848 96.3037 168.344 96.1544 173.759C95.9662 180.602 98.1518 187.299 98.4778 194.137C99.5081 215.754 82.1761 234.789 82.0796 256.431Z" fill="#F0DADA"/>
<path d="M271.422 248.985C271.441 248.651 271.469 248.319 271.482 248.002C271.575 245.57 270.249 243.136 268.155 241.896C266.698 241.033 264.886 240.69 263.748 239.435C263.099 238.718 262.749 237.782 262.488 236.853C260.957 231.401 262.116 226.57 268.407 225.525C269.914 225.275 271.466 225.403 272.969 225.132C274.716 224.817 276.317 223.978 277.887 223.149C281.679 221.149 285.473 219.148 289.176 216.988C292.897 214.817 296.619 212.397 299.128 208.894C300.907 206.41 301.99 203.496 303.627 200.917C305.264 198.337 307.715 195.979 310.755 195.67C312.09 195.533 313.575 195.884 314.385 196.953C314.818 197.525 315.014 198.237 315.21 198.926C316.452 203.275 318.654 208.043 322.998 209.301C325.357 209.985 328.043 209.497 330.189 210.693C331.765 211.57 332.754 213.202 333.572 214.808C334.73 217.08 335.715 219.586 335.395 222.115C334.906 225.98 331.458 228.877 327.8 230.217C324.142 231.556 320.176 231.728 316.36 232.513C306.097 234.624 297.262 241.087 289.631 248.267C287.771 250.017 285.879 251.871 283.47 252.715C280.224 253.85 276.659 252.956 273.341 252.057C272.895 251.936 272.432 251.807 272.08 251.508C271.381 250.914 271.364 249.947 271.422 248.985Z" fill="#F0DADA"/>
<path d="M26.5932 15.118C31.971 15.322 37.4412 18.6976 41.7991 22.2905C52.5809 31.1812 61.7241 42.0832 68.4194 54.3494C69.9153 57.0893 71.2832 60.5038 69.6931 63.1903C68.9197 64.4974 67.5792 65.3468 66.2884 66.1469C64.4385 67.2932 62.5892 68.4394 60.74 69.5857C59.3521 70.446 57.847 71.3372 56.2169 71.2419C54.6263 71.1484 53.2645 70.1369 51.8329 69.4369C47.5946 67.3642 44.5214 70.2001 40.7597 69.4412C37.6816 68.8207 36.4224 64.6103 35.4395 61.9451C33.0141 55.3669 32.379 47.7245 27.3903 42.3813C23.9716 38.7198 18.8627 36.7096 16.1993 32.467C12.7496 26.972 15.322 18.6696 21.2748 16.0876C23.0069 15.336 24.7949 15.0506 26.5932 15.118Z" fill="#F0DADA"/>
<path d="M271.827 166.441C271.881 170.447 270.989 174.586 269.449 178.246C265.967 186.523 259.875 193.418 255.629 201.329C254.071 204.231 252.251 207.66 248.987 208.102C246.073 208.497 243.534 206.253 241.453 204.174L230.622 193.355C225.497 188.236 221.616 182.641 228.387 177.868C234.765 173.374 240.367 168.08 244.796 161.623C248.221 156.633 251.809 150.524 257.828 149.898C260.997 149.569 264.173 150.983 266.511 153.147C270.187 156.549 271.759 161.389 271.827 166.441Z" fill="#F0DADA"/>
<path d="M211.535 115.021C211.492 116.341 211.167 117.624 210.466 118.804C209.1 121.108 206.609 122.46 204.237 123.701C195.992 128.017 191.31 131.915 183.065 136.231C182.602 136.473 178.522 137.142 178.016 137.011C177.4 136.85 177.067 136.204 176.784 135.635C173.752 129.547 167.803 124.996 161.133 123.665C157.702 122.98 154.076 123.089 150.841 121.756C139.781 117.196 149.61 106.284 157.675 106.217C159.791 106.199 161.891 106.693 164.005 106.61C169.639 106.388 174.208 102.256 179.019 99.3146C183.837 96.3694 189.63 94.4728 195.141 95.7028C200.626 96.928 205.042 101.067 208.222 105.7C210.099 108.433 211.639 111.836 211.535 115.021Z" fill="#F0DADA"/>
<path d="M243.352 138.997C243.352 139.018 243.353 139.04 243.353 139.062C243.359 142.248 241.51 145.115 239.6 147.664C235.007 153.796 229.643 159.347 223.679 164.156C220.716 166.545 216.531 166.57 213.502 164.262C210.742 162.159 207.159 160.752 204.075 159.018C199.154 156.252 195.047 152.082 192.27 147.173C191.276 145.417 188.799 141.635 189.91 139.646C191.013 137.672 197.157 136.43 199.188 135.616C208.577 131.846 218.297 128.014 228.411 128.28C231.816 128.37 235.303 128.964 238.208 130.743C241.096 132.51 243.319 135.616 243.352 138.997Z" fill="#F0DADA"/>
<path d="M155.011 313.411C155.482 318.125 153.725 321.6 150.033 324.262C145.158 327.778 139.955 330.456 133.875 331.028C130.516 331.344 127.335 330.585 124.302 329.15C123.675 328.853 123.216 328.472 122.979 327.75C121.246 322.495 118.46 317.91 114.25 314.249C113.883 313.931 113.595 313.508 113.201 313.232C111.739 312.207 111.536 310.818 111.849 309.19C112.072 308.037 112.446 306.958 113.004 305.932C114.052 304.003 115.017 302.037 115.907 300.026C116.928 297.722 118.434 295.724 120.309 294.018C120.917 293.466 121.474 293.268 122.235 293.834C123.166 294.528 124.281 294.908 125.346 295.364C128.294 296.625 131.981 296.788 134.932 295.452C135.376 295.251 135.885 295.093 136.343 295.261C136.946 295.48 137.252 296.172 137.504 296.713C139.819 301.695 144.318 304.999 149.445 306.692C150.602 307.076 151.741 307.549 152.926 307.799C153.989 308.023 154.453 308.65 154.762 309.582C155.196 310.897 155.045 312.237 155.011 313.411Z" fill="#F64068"/>
<path d="M343.167 209.572C342.901 209.614 342.635 209.655 342.369 209.694C341.779 209.779 341.145 209.85 340.614 209.58C340.008 209.274 339.688 208.611 339.359 208.018C337.39 204.463 333.547 202.019 329.491 201.744C327.996 201.642 326.22 201.691 325.352 200.47C324.983 199.952 324.869 199.299 324.782 198.669C324.388 195.821 323.858 193.118 325.814 190.826C327.561 188.78 330.078 187.42 332.609 186.608C335.928 185.543 339.444 185.305 342.913 184.959C351.07 184.143 359.164 182.685 367.093 180.603C369.069 180.085 371.064 179.523 373.107 179.529C375.148 179.536 377.288 180.192 378.619 181.741C380.309 183.71 380.317 186.719 379.26 189.088C378.202 191.457 376.262 193.306 374.28 194.98C365.418 202.462 354.613 207.743 343.167 209.572Z" fill="#F0DADA"/>
<path d="M79.7326 284.587C79.698 281.991 80.0914 279.319 80.5024 276.758C80.8133 274.824 81.1563 272.808 82.3122 271.224C84.6442 268.029 95.7684 263.073 98.9825 266.313C100.293 267.635 100.938 269.455 101.877 271.061C103.289 273.475 105.431 275.456 107.948 276.676C109.56 277.457 111.371 277.967 112.636 279.234C113.648 280.248 114.19 281.636 114.578 283.016C115.517 286.347 115.697 290.004 114.383 293.205C112.846 296.948 109.461 299.641 105.858 301.482C103.613 302.628 101.152 303.524 98.634 303.412C95.0277 303.249 91.8634 301.08 88.9207 298.99C86.0424 296.946 83.0657 294.794 81.3821 291.691C80.194 289.502 79.766 287.079 79.7326 284.587Z" fill="#F64068"/>
<path d="M65.8425 305.331C65.8456 305.061 65.8577 304.789 65.879 304.518C66.0854 301.918 67.489 298.619 69.9424 297.356C73.4868 295.529 75.6973 298.255 78.1282 300.779C81.423 304.202 85.2455 307.114 89.4188 309.382C93.8678 311.8 98.7126 313.494 102.934 316.291C107.157 319.086 110.835 323.349 111.2 328.399C111.307 329.883 111.106 331.433 110.33 332.703C108.517 335.676 104.393 336.105 100.927 335.766C87.6618 334.472 75.2438 326.364 68.7239 314.738C67.1017 311.845 65.8061 308.626 65.8425 305.331Z" fill="#F64068"/>
<path d="M70.572 275.714C70.6503 278.086 70.6443 280.461 70.5526 282.833C70.4433 285.68 70.1161 288.755 68.1939 290.858C66.0721 293.18 62.3595 293.636 59.4872 292.354C56.6144 291.071 54.5732 288.319 53.6115 285.323C52.6499 282.327 52.6632 279.1 53.0378 275.976C53.4519 272.521 54.317 269.071 56.0607 266.059C58.3343 262.134 64.8432 255.875 68.4592 261.922C69.4264 263.539 69.7196 265.461 69.9406 267.332C70.2685 270.115 70.4797 272.912 70.572 275.714Z" fill="#F64068"/>
<path d="M160.66 311.446C160.663 311.006 160.705 310.564 160.79 310.123C160.85 309.814 160.939 309.494 161.164 309.275C161.398 309.046 161.736 308.969 162.057 308.901C168.304 307.584 174.624 306.611 180.978 305.986C181.368 305.948 181.807 305.926 182.099 306.187C182.325 306.389 182.398 306.708 182.446 307.008C183.633 314.404 177.27 321.308 170.094 322.032C168.958 322.147 167.776 322.116 166.722 321.676C165.353 321.106 164.347 319.915 163.483 318.708C161.948 316.565 160.643 314.029 160.66 311.446Z" fill="#F64068"/>
</svg>
