<svg width="361" height="351" viewBox="0 0 361 351" fill="none" xmlns="http://www.w3.org/2000/svg">
<path d="M313.687 131.091C313.754 136.64 309.275 141.874 303.829 142.613C298.383 143.35 292.696 139.493 291.311 134.123C290.408 140.822 288.754 147.417 286.389 153.742C285.68 155.638 284.855 157.585 283.325 158.898C280.489 161.332 276.009 160.765 272.953 158.619C269.896 156.475 267.932 153.118 266.063 149.868C264.53 153.421 262.997 156.974 261.463 160.526C275.919 166.686 292.199 159.684 306.689 153.607C321.178 147.529 338.934 142.652 351.593 152.012C352.41 152.616 353.215 153.303 353.647 154.229C355.311 157.797 350.761 160.931 347.132 162.389C324.243 171.587 304.884 187.744 285.941 203.648C288.317 205.238 290.692 206.827 293.066 208.417C294.98 204.505 300.032 202.508 304.067 204.067C303.905 198.457 308.557 193.137 314.087 192.604C319.619 192.072 325.181 196.409 326.072 201.948C324.853 198.079 329.713 194.534 333.64 195.406C337.566 196.276 340.329 199.738 342.684 203.028C353.434 218.044 362.996 236.483 358.271 254.387C355.06 266.554 345.391 276.362 333.993 281.467C322.596 286.573 309.657 287.361 297.299 285.685C281.613 283.555 264.474 277.881 250.87 286.05C255.684 295.313 252.981 307.17 246.623 315.428C240.266 323.687 230.89 328.974 221.457 333.296C166.339 358.544 99.097 356.626 46.8937 325.699C43.3386 323.593 39.7431 321.254 37.498 317.764C33.5778 311.671 34.6771 303.769 34.953 296.507C36.0978 266.341 20.6793 238.491 9.70454 210.411C3.83219 195.385 -0.905667 179.1 2.09695 163.233C4.76284 149.144 13.2199 136.979 21.4663 125.3C29.7672 113.543 38.1873 101.653 49.103 92.3273C51.7797 90.0407 54.6216 87.8921 56.7952 85.1143C63.1349 77.0144 63.2155 65.0312 71.0707 58.0318C80.6253 49.5168 91.8607 42.9909 104.743 41.4101C108.363 40.9661 112.091 40.8729 115.487 39.5318C124.113 36.126 129.447 25.2092 138.707 25.057C141.073 7.75336 161.793 -0.803631 179.019 0.768652C196.245 2.34037 212.438 10.3937 229.69 11.6423C244.645 12.7252 259.441 8.63802 274.364 7.15943C289.286 5.68083 305.793 7.39791 316.627 17.8656C323.908 24.9014 327.542 34.8337 332.777 43.5298C340.294 56.0177 353.725 64.7473 359.187 78.2812C366.125 95.473 348.254 100.447 342.203 126.027C340.928 131.422 329.954 130.435 326.933 125.803C328.268 129.95 326.65 135.18 322.703 136.946C318.757 138.712 313.253 135.429 313.687 131.091Z" fill="#222222"/>
<path d="M61.7102 98.3746C61.7102 99.9878 61.7738 101.603 61.6999 103.212C61.2661 112.646 62.0548 121.947 64.3051 131.143C65.2528 135.016 66.5252 138.741 68.1106 142.378C68.4865 143.239 68.905 144.088 69.5988 144.749C70.4914 145.599 71.5396 145.968 72.7542 145.587C73.9597 145.21 74.6354 144.338 74.9096 143.127C75.147 142.08 75.0232 141.032 74.7569 140.028C73.1238 133.882 72.7672 127.552 71.9592 121.284C70.9451 113.419 71.2154 105.545 71.4414 97.6523C71.614 91.6363 72.4459 85.7458 73.8506 79.9211C74.9176 75.495 76.4671 71.237 79.4266 67.6978C81.2005 65.5764 83.4535 64.0302 86.1189 63.0593C103.036 56.8956 121.397 52.0289 139.613 52.2895C141.071 52.3099 142.525 52.6495 143.984 52.8374C148.534 53.4223 153.108 53.8101 157.69 54.0265C159.856 54.1287 161.574 53.2463 162.516 51.2226C163.704 48.6691 162.239 45.7238 159.423 44.8591C157.425 44.2453 155.239 44.3821 153.181 44.1067C150.765 43.7825 148.342 43.5122 145.914 43.297C141.152 42.874 136.218 43.1965 131.502 42.6179C131.755 42.3385 132.074 42.2159 132.441 42.0932C137.042 40.4704 141.815 39.4994 146.573 38.512C148.805 38.0487 151.138 38.0958 153.433 38.0901C158.023 38.0799 162.608 38.1463 167.197 38.2928C174.216 38.516 181.236 37.9732 188.255 37.9698C193.794 37.9669 199.288 37.3775 204.804 37.1038C207.383 36.9761 209.84 36.0801 212.373 35.6525C220.141 34.3408 227.445 31.6414 234.641 28.5173C240.634 25.9162 246.737 23.5682 253.006 21.6865C256.53 20.6281 259.953 19.2364 263.619 18.6453C268.39 17.8759 273.157 17.1224 278.009 17.1309C280.159 17.1343 282.294 17.655 284.446 17.7913C286.904 17.9463 289.348 18.3029 291.748 18.8508C296.663 19.9723 301.397 21.8983 305.685 24.5534C310.334 27.4322 314.449 31.1639 317.794 35.4878C319.514 37.7108 320.93 40.0803 322.281 42.5373C323.79 45.2781 324.302 48.2268 325.267 51.1953C327.052 56.6844 340.465 68.2258 340.821 68.6437C343.053 71.2602 345.627 73.5599 347.725 76.311C349.459 78.5845 350.774 81.0551 351.715 83.7119C352.491 85.9008 352.627 88.1937 352.03 90.4854C351.833 91.2394 351.375 91.7397 350.706 92.1383C348.995 93.1564 347.118 93.3551 345.188 93.4306C340.069 93.6299 334.99 92.8168 329.879 92.8673C321.341 92.9519 312.824 93.4193 304.628 96.0164C295.191 99.0066 286.693 103.701 279.652 110.794C274.606 115.876 269.75 121.146 264.473 125.998C261.954 128.313 259.303 130.387 256.242 131.986C251.735 134.341 247.419 134.152 243.026 131.723C240.163 130.142 237.37 128.507 234.729 126.546C231.615 124.232 228.435 121.867 224.715 120.609C217.53 118.18 210.362 118.542 203.271 121.198C196.062 123.898 189.802 128.074 184.198 133.295C179.609 137.57 175.311 142.101 171.667 147.229C170.436 148.962 169.375 150.795 168.26 152.598C168.109 152.842 168.07 153.203 167.564 153.295C167.413 151.768 167.245 150.267 167.122 148.761C166.961 146.787 166.902 144.803 166.673 142.837C166.503 141.371 165.748 140.205 164.265 139.71C162.972 139.279 161.787 139.535 160.791 140.486C160.055 141.19 159.682 142.093 159.602 143.086C159.019 150.382 159.11 157.63 160.222 164.911C161.453 172.979 164.196 180.511 167.31 187.96C169.019 192.049 171.594 195.589 174.513 198.881C175.592 200.098 176.955 200.931 178.615 201.19C181.095 201.58 182.916 200.073 183.016 197.552C183.063 196.377 182.817 195.269 182.326 194.215C182.092 193.711 181.869 193.179 181.523 192.757C177.719 188.116 175.345 182.725 173.245 177.179C172.946 176.389 173.036 176.095 173.881 176.086C174.156 176.083 174.438 176.047 174.707 175.984C183.932 173.814 192.409 175.831 200.356 180.635C203.834 182.737 207.274 184.894 210.579 187.28C212.959 189 215.61 190.349 218.095 191.943C224.584 196.102 230.587 200.861 236.192 206.149C242.617 212.21 249.245 218.047 256.309 223.36C259.303 225.613 262.301 227.871 265.602 229.7C270.133 232.209 274.998 233.859 279.861 235.533C283.731 236.865 287.784 237.296 291.794 237.92C296.636 238.674 301.501 239.259 306.421 239.075C311.39 238.889 316.183 237.87 320.852 236.158C326.84 233.963 332.515 231.13 338.034 227.96C339.392 227.181 340.696 226.332 341.848 225.263C342.545 224.619 343.584 224.615 344.287 223.962C344.521 223.744 344.743 223.977 344.892 224.173C345.164 224.532 345.465 224.882 345.673 225.277C347.349 228.451 348.504 231.79 348.832 235.39C349.946 247.662 346.075 258.172 337.301 266.731C329.721 274.124 320.504 277.16 309.9 276.369C301.185 275.72 292.553 274.537 283.953 273.074C280.189 272.433 276.429 271.742 272.67 271.069C267.333 270.114 261.929 270.352 256.58 271.235C250.571 272.227 244.602 273.478 238.929 275.719C229.91 279.28 220.844 282.69 211.564 285.516C210.251 285.915 208.918 286.104 207.563 286.168C204.022 286.34 200.48 286.594 196.937 286.613C178.287 286.72 161.443 281.235 146.47 270.098C139.975 265.268 133.913 259.977 129.104 253.384C121.97 243.601 117.921 232.733 117.375 220.591C117.157 215.739 117.5 210.939 118.371 206.168C118.6 204.914 118.591 203.677 118.037 202.49C117.221 200.743 115.799 199.805 113.923 199.765C112.098 199.727 110.64 200.538 109.747 202.214C108.721 204.142 108.603 206.287 108.323 208.376C106.113 224.879 109.873 240.075 118.562 254.126C126.96 267.71 138.574 277.741 152.826 284.823C157.634 287.212 162.609 289.164 167.694 290.852C168.455 291.105 169.052 291.488 169.512 292.152C173.231 297.528 176.349 303.194 178.17 309.523C180.165 316.456 181.699 323.467 182.145 330.69C182.201 331.6 181.95 331.956 181.039 332.124C171.459 333.895 161.811 335.083 152.091 335.757C143.966 336.321 135.836 336.476 127.7 336.267C112.75 335.882 97.9539 334.226 83.4507 330.46C74.9391 328.25 66.7041 325.294 59.2231 320.55C53.2929 316.788 46.8254 311.001 46.1435 303.551C45.8051 299.857 44.7841 296.288 44.2118 292.611C43.5787 288.541 43.2096 284.43 43.1324 280.312C42.9666 271.465 41.275 262.829 39.3547 254.253C37.3577 245.337 35.02 236.478 31.6642 227.964C29.3549 222.104 27.6208 216.051 25.3029 210.208C23.4036 205.421 21.5576 200.624 20.171 195.667C18.1848 188.565 17.7618 168.69 18.1348 166.077C18.8224 161.261 19.3613 156.404 20.7349 151.729C22.9062 144.337 26.3875 137.533 30.6256 131.122C33.6481 126.548 37.268 122.459 41.2381 118.695C47.5999 112.665 53.6881 106.365 59.7745 100.062C60.3667 99.4489 60.9027 98.7811 61.4654 98.1389C61.5461 98.2196 61.6284 98.2968 61.7102 98.3746ZM141.537 132.296C141.413 132.618 141.386 132.79 141.294 132.913C138.867 136.177 136.505 139.493 133.373 142.155C131.543 143.711 131.257 146.014 132.656 147.577C134.113 149.205 136.409 149.18 138.202 147.486C139.061 146.675 139.905 145.844 140.705 144.976C146.662 138.515 151.297 131.132 155.628 123.539C158.304 118.847 160.236 113.805 162.515 108.927C164.817 104 165.941 98.8777 165.657 93.4601C165.608 92.5045 165.814 92.0474 166.778 91.7436C171.454 90.2702 174.153 87.0291 174.798 82.1958C175.228 78.974 174.558 75.8272 173.651 72.7411C173.381 71.8235 172.839 71.0518 172.12 70.4165C170.319 68.8254 167.881 69.094 166.47 71.0325C165.724 72.0586 165.444 73.2334 165.443 74.4724C165.442 75.9669 165.497 77.4619 165.529 78.9564C165.597 82.0198 165.002 82.6671 161.685 83.2008C161.412 83.2446 161.13 83.2389 160.852 83.2343C158.434 83.1969 156.048 82.8159 153.795 81.9993C148.305 80.0091 143.016 77.5198 137.717 75.0845C132.966 72.9001 128.17 71.1546 122.893 70.8276C117.148 70.4715 111.542 71.2642 106.151 73.0778C101.753 74.5575 98.1094 77.3955 94.8627 80.7399C92.7458 82.9203 91.0776 85.3387 89.9369 88.1533C87.7468 93.5572 86.2523 99.1457 85.2706 104.888C84.8742 107.208 84.6812 109.513 85.149 111.828C85.5624 113.875 86.9797 115.047 88.8353 114.983C90.6376 114.921 91.9498 113.57 92.2189 111.503C92.3353 110.608 92.3575 109.685 92.5925 108.821C93.961 103.796 95.3107 98.7766 97.2089 93.8979C98.6137 90.2883 100.818 87.4441 103.705 85.0127C104.102 84.6783 104.481 84.2564 105.164 84.2246C101.675 94.6253 103.026 104.26 109.557 112.94C116.03 121.541 124.946 125.556 135.866 125.777C135.492 126.074 135.362 126.179 135.229 126.282C132.528 128.364 129.341 129.556 126.323 131.035C123.8 132.271 121.129 133.227 118.408 133.949C115.515 134.716 112.575 134.708 109.628 134.095C108.093 133.775 106.766 134.408 106.134 135.57C105.466 136.799 105.719 138.208 106.841 139.386C107.65 140.236 108.643 140.816 109.752 141.158C111.619 141.733 113.526 142.076 115.495 142.077C118.847 142.079 122.016 141.251 125.17 140.199C130.237 138.506 135.092 136.399 139.539 133.408C140.109 133.024 140.634 132.549 141.537 132.296ZM267.459 28.1477C265.853 28.2328 264.255 28.2908 262.661 28.4083C258.572 28.7098 254.49 29.0857 250.489 30.0374C248.528 30.5041 247.324 31.8612 247.243 33.6248C247.161 35.4038 248.321 36.9551 250.21 37.5734C251.524 38.0038 252.872 38.0072 254.233 37.8636C255.372 37.7432 256.516 37.6699 257.657 37.5547C258.189 37.5007 258.471 37.7137 258.691 38.1997C259.164 39.2428 259.629 40.3012 260.227 41.2744C266.434 51.3901 275.279 57.8206 286.938 60.273C289.628 60.8391 292.335 61.3513 295.088 60.6739C295.701 60.5228 295.891 60.9231 296.107 61.3206C296.824 62.6317 297.505 63.9621 298.254 65.2539C298.844 66.2703 299.685 67.0402 300.807 67.4621C302.709 68.177 304.497 67.2503 305.035 65.2925C305.393 63.9837 305.102 62.7475 304.672 61.5188C303.762 58.9193 302.595 56.4482 301.191 54.0736C297.598 47.9974 293.936 42.0228 288.951 36.8903C282.996 30.7574 275.696 28.406 267.459 28.1477ZM277.24 79.4277C278.343 79.4181 279.322 79.2256 280.217 78.7071C282.107 77.6135 282.384 75.5177 280.839 73.9863C279.975 73.1295 278.905 72.6576 277.743 72.3607C275.591 71.8105 273.404 71.3641 271.296 70.6811C265.372 68.763 259.498 66.7217 254.943 62.1513C254.21 61.4166 253.27 61.0418 252.18 61.253C250.133 61.6488 249.216 63.6742 250.081 65.9358C250.775 67.7472 252.077 69.0957 253.531 70.3001C256.255 72.5566 259.371 74.1652 262.564 75.6347C267.251 77.793 272.209 78.9076 277.24 79.4277ZM36.4764 163.464C36.4696 165.785 37.2089 167.76 38.3337 169.587C40.8861 173.734 44.1079 177.32 47.8078 180.46C49.5981 181.981 51.6553 183.086 54.0418 183.399C55.2285 183.554 56.4789 183.675 57.2653 182.516C58.0676 181.335 57.5344 180.159 56.9439 179.082C55.9735 177.312 54.8396 175.642 53.4626 174.159C51.1704 171.691 48.8259 169.272 46.5427 166.796C44.9386 165.056 43.397 163.307 43.3527 160.682C43.33 159.337 42.2193 158.351 40.9741 158.12C39.5545 157.856 38.4365 158.402 37.641 159.552C36.8075 160.755 36.4724 162.132 36.4764 163.464ZM41.5283 198.809C41.5567 200.094 41.9734 201.187 42.5475 202.235C45.3786 207.404 50.1727 209.942 55.4494 211.796C56.5357 212.177 57.5174 211.683 58.1261 210.698C58.6763 209.81 58.8484 208.833 58.6985 207.799C58.3141 205.148 56.6401 203.382 54.5949 201.898C52.423 200.323 50.3362 198.663 48.647 196.553C48.4113 196.257 48.1161 196 47.8134 195.77C46.5143 194.787 45.1044 194.528 43.6173 195.288C42.1688 196.028 41.6027 197.319 41.5283 198.809ZM60.5132 236.341C62.6084 236.37 63.6544 235.052 63.1269 233.197C62.986 232.703 62.7459 232.225 62.479 231.783C61.0231 229.375 58.9966 227.462 56.9678 225.56C55.7992 224.464 54.5256 223.491 53.1134 222.722C51.6604 221.93 50.1051 222.124 49.087 223.197C48.0196 224.322 47.8958 226.055 48.8224 227.433C49.1109 227.862 49.4527 228.271 49.8337 228.62C51.9352 230.544 54.0373 232.469 56.1785 234.349C57.4549 235.47 58.9262 236.235 60.5132 236.341Z" fill="#F0DADA"/>
<path d="M334.9 155.595C335.715 155.731 335.847 156.853 335.088 157.179C332.335 158.362 329.654 159.627 327.124 161.186C321.648 164.561 316.315 168.123 311.73 172.715C308.932 175.517 305.578 177.712 302.701 180.421C299.122 183.791 295.177 186.681 291.299 189.66C289.045 191.391 286.579 192.846 284.22 194.442C283.814 194.716 283.648 194.573 283.406 194.22C281.515 191.465 278.863 190.862 275.998 192.554C274.134 193.654 272.502 195.07 270.931 196.54C268.241 199.057 265.28 201.265 262.679 203.879C262.543 204.017 262.401 204.246 262.163 204.116C261.944 203.999 262.016 203.749 262.015 203.552C261.978 198.485 261.746 193.415 262.388 188.363C262.555 187.051 262.517 185.723 262.214 184.423C261.508 181.39 258.518 179.835 255.574 180.988C253.268 181.892 251.148 183.169 249.024 184.418C245.864 186.275 243.015 188.539 240.577 191.297C239.426 192.599 237.99 193.618 236.898 194.981C236.462 195.526 236.147 194.97 235.858 194.77C233.693 193.27 231.932 191.389 230.451 189.2C227.117 184.276 223.962 179.246 221.179 173.988C221.02 173.687 220.575 173.352 220.935 172.982C221.218 172.691 221.64 172.584 222.089 172.601C225.292 172.726 228.205 173.586 230.822 175.546C232.934 177.128 235.199 178.534 237.844 179.091C239.248 179.387 240.684 179.415 242.067 178.94C243.796 178.346 244.286 176.97 243.356 175.385C242.682 174.237 241.639 173.443 240.495 172.862C238.004 171.596 235.757 169.96 233.454 168.41C230.547 166.455 227.381 165.386 223.862 165.405C222.862 165.411 221.878 165.15 220.856 165.375C219.886 165.589 218.957 165.837 218.232 166.54C217.782 166.976 217.551 166.849 217.326 166.342C216.352 164.15 215.448 161.931 214.628 159.678C214.498 159.322 214.375 158.967 214.974 158.99C216.408 159.042 217.563 158.277 218.768 157.68C220.038 157.05 220.072 157.055 220.377 158.382C220.665 159.639 220.997 160.88 221.864 161.896C223.855 164.228 226.916 164.457 229.628 162.479C231.013 161.467 232.181 160.226 233.307 158.949C233.738 158.462 234.114 158.312 234.895 158.611C236.191 159.109 237.56 159.373 238.942 159.504C240.082 159.612 240.562 160.059 240.788 161.055C241.228 162.995 241.909 164.865 243.264 166.388C245.791 169.227 249.148 169.947 252.84 168.472C253.91 168.044 254.909 167.489 255.811 166.768C256.147 166.499 256.39 166.31 256.673 166.886C257.415 168.403 258.698 169.312 260.255 169.885C263.272 170.997 266.379 171.861 269.589 171.816C274.095 171.755 278.634 171.917 283.092 171.059C288.95 169.932 294.86 168.984 300.47 166.844C303.991 165.5 307.174 163.484 310.395 161.564C315.795 158.347 321.488 155.938 327.794 155.281C330.182 155.031 332.553 155.202 334.9 155.595Z" fill="#F64068"/>
<path d="M180.235 294.177C183.825 294.872 187.306 295.248 190.805 295.494C198.2 296.017 205.589 296.131 212.981 295.344C220.47 294.548 227.821 293.11 235.016 290.893C235.771 290.66 236.091 290.853 236.226 291.627C236.742 294.569 240.912 303.175 237.102 306.912C234.033 310.989 230.05 313.988 225.745 316.597C217.202 321.772 207.927 325.201 198.385 327.977C196.05 328.656 193.684 329.229 191.341 329.882C190.722 330.055 190.471 329.982 190.461 329.259C190.362 321.689 188.38 314.499 186.028 307.382C184.562 302.947 182.861 298.622 180.377 294.641C180.326 294.561 180.317 294.452 180.235 294.177Z" fill="#F0DADA"/>
<path d="M219.072 24.1382C217.234 25.1677 215.518 25.4606 213.802 25.6963C210.188 26.192 206.704 27.4338 203.041 27.6172C198.359 27.8512 193.703 28.4025 188.997 28.398C182.258 28.3923 175.517 28.7773 168.778 28.746C164.543 28.7262 160.299 28.6257 156.068 28.4343C154.456 28.3616 152.938 28.5007 151.392 28.7545C150.723 28.8641 150.52 28.6552 150.591 27.9897C150.885 25.2648 151.929 22.8379 153.87 20.9465C155.062 19.7842 156.751 19.2544 158.381 18.9007C161.196 18.2891 164.025 17.6685 166.882 17.3341C170.474 16.9133 174.105 17.2455 177.706 17.3988C181.936 17.5788 186.163 18.0047 190.37 18.5015C196.507 19.226 202.613 20.1465 208.689 21.3304C212.149 22.0049 215.406 23.2303 219.072 24.1382Z" fill="#F0DADA"/>
<path d="M214.315 178.055C212.825 177.129 211.32 176.227 209.849 175.273C207.137 173.513 204.411 171.781 201.471 170.418C201.027 170.212 200.776 169.896 200.618 169.438C197.827 161.37 196.446 153.107 197.057 144.55C197.255 141.781 197.283 139.007 197.969 136.283C198.381 134.652 199.111 133.46 200.748 132.831C201.942 132.371 203.059 131.711 204.216 131.152C204.491 131.018 204.817 130.742 205.084 130.929C205.44 131.176 205.157 131.578 205.077 131.886C203.747 137.044 203.733 142.271 204.31 147.515C205.048 154.229 206.992 160.632 209.467 166.886C210.836 170.345 212.4 173.715 214.088 177.029C214.226 177.301 214.353 177.579 214.485 177.854C214.429 177.922 214.372 177.988 214.315 178.055Z" fill="#F0DADA"/>
<path d="M310.327 104.366C308.11 111.238 307.209 118.273 305.205 125.034C304.423 127.672 303.491 130.246 302.267 132.714C301.875 133.505 301.603 133.516 301.106 132.794C297.529 127.601 294.477 122.11 291.735 116.441C291.524 116.003 291.394 115.5 291.095 115.135C290.29 114.153 290.741 113.632 291.617 113.031C297.017 109.332 302.754 106.353 309.109 104.656C309.472 104.559 309.841 104.481 310.327 104.366Z" fill="#F9F9F9"/>
<path d="M282.023 122.153C281.935 131.727 279.871 140.742 277.284 149.71C277.132 149.66 277.016 149.657 276.964 149.598C273.407 145.613 270.292 141.33 268.072 136.439C267.869 135.991 267.857 135.698 268.258 135.361C272.924 131.445 277.117 127.04 281.363 122.69C281.521 122.528 281.715 122.402 282.023 122.153Z" fill="#F9F9F9"/>
<path d="M321.797 102.83C323.48 102.642 325.196 102.374 326.931 102.404C330.887 102.473 334.85 102.353 338.789 102.892C339.416 102.977 339.718 103.066 339.584 103.82C338.741 108.551 337.477 113.17 335.881 117.696C334.989 120.227 334.678 120.302 333.03 118.247C329.206 113.482 325.256 108.808 322.033 103.591C321.908 103.39 321.712 103.213 321.797 102.83Z" fill="#F9F9F9"/>
<path d="M318.713 227.655C320.228 222.592 319.946 217.269 321.024 212.137C321.225 211.179 321.58 211.055 322.434 211.33C325.487 212.31 327.835 214.29 329.966 216.569C331.248 217.939 332.437 219.394 333.693 220.788C334.037 221.17 334.059 221.402 333.591 221.662C332.893 222.052 332.249 222.555 331.52 222.864C327.394 224.613 323.246 226.31 318.984 227.709C318.93 227.726 318.859 227.685 318.713 227.655Z" fill="#F9F9F9"/>
<path d="M303.545 230.899C299.224 230.822 294.727 229.832 290.271 228.589C289.682 228.425 289.765 228.175 290.087 227.802C293.245 224.146 295.973 220.163 298.794 216.252C299.2 215.689 299.404 215.65 299.788 216.272C300.919 218.109 301.887 220.028 302.748 222.001C303.93 224.711 305.275 227.333 306.938 229.78C307.408 230.473 307.203 230.651 306.477 230.684C305.61 230.725 304.746 230.808 303.545 230.899Z" fill="#F9F9F9"/>
<path d="M224.092 131.096C226.028 132.168 227.884 133.246 229.551 134.596C231.504 136.176 233.579 137.557 235.837 138.649C236.551 138.994 236.756 139.276 236.222 140.013C234.976 141.728 234.004 143.618 232.979 145.47C231.785 147.631 230.046 149.318 228.183 151.129C226.253 144.497 225.668 137.717 224.092 131.096Z" fill="#F9F9F9"/>
<path d="M278.76 223.72C274.781 222.199 270.854 221.34 267.55 219.129C265.42 217.705 265.375 217.798 266.968 215.863C269.766 212.465 273.261 209.701 276.766 206.943C276.87 206.861 277.017 206.823 277.298 206.695C277.233 212.4 276.868 218.021 278.76 223.72Z" fill="#F9F9F9"/>
<path d="M250.335 159.071C249.899 158.752 249.922 158.486 249.891 158.261C249.257 153.587 247.709 149.162 246.213 144.724C245.604 142.919 245.61 142.906 247.482 143.189C250.508 143.645 253.435 143.19 256.291 142.204C257.17 141.901 257.283 142.062 257.09 142.933C255.972 147.984 254.281 152.806 251.564 157.234C251.274 157.706 250.932 158.146 250.619 158.603C250.521 158.748 250.437 158.902 250.335 159.071Z" fill="#F9F9F9"/>
<path d="M190.983 140.068C190.901 141.769 190.849 143.21 190.759 144.649C190.302 151.993 190.888 159.212 193.334 166.21C193.422 166.464 193.584 166.837 193.478 166.983C193.258 167.286 192.913 167.006 192.625 166.935C191.682 166.703 190.753 166.382 189.798 166.246C188.969 166.127 188.615 165.736 188.451 164.952C187.219 159.088 186.621 153.173 186.665 147.173C186.68 144.971 187.12 143.202 189.031 141.927C189.701 141.48 190.22 140.808 190.983 140.068Z" fill="#F0DADA"/>
<path d="M253.961 192.046C253.583 198.025 253.683 203.827 253.517 209.902C251.888 208.647 250.441 207.626 249.113 206.489C247.053 204.727 245.08 202.881 243.059 201.083C242.641 200.711 242.456 200.414 243 199.984C246.2 197.453 249.194 194.697 252.812 192.623C253.122 192.445 253.454 192.299 253.961 192.046Z" fill="#F9F9F9"/>
<path d="M180.807 151.017C181.048 155.948 181.414 160.579 182.789 165.064C182.932 165.53 182.832 165.722 182.342 165.681C182.308 165.678 182.272 165.683 182.238 165.679C178.684 165.267 175.25 165.775 171.909 167.011C171.758 167.067 171.578 167.043 171.219 167.074C174.429 161.705 176.74 155.987 180.807 151.017Z" fill="#F0DADA"/>
<path d="M312.899 215.452C312.003 213.837 311.222 212.42 310.429 211.008C310.262 210.711 310.27 210.423 310.361 210.108C311.438 206.368 312.775 202.736 314.674 199.321C315.078 198.597 315.372 198.357 316.114 198.97C316.857 199.586 317.711 200.063 318.364 200.803C318.707 201.192 318.684 201.404 318.223 201.666C316.155 202.843 315.134 204.785 314.459 206.954C313.619 209.649 313.325 212.449 312.899 215.452Z" fill="#F9F9F9"/>
<path d="M317.631 114.183C318.576 115.389 319.405 116.442 320.226 117.501C320.36 117.675 320.37 117.886 320.297 118.096C319.599 120.094 319.399 122.21 318.819 124.551C317.878 123.259 317.071 122.165 316.284 121.057C316.196 120.932 316.167 120.715 316.201 120.56C316.652 118.504 317.119 116.452 317.631 114.183Z" fill="#F9F9F9"/>
<path d="M334.875 208.09C334.242 207.554 333.556 207.068 332.995 206.467C332.604 206.047 333.038 205.532 333.324 205.314C333.671 205.047 333.768 205.593 333.908 205.813C334.335 206.487 334.829 207.132 335.082 207.895C335.014 207.96 334.944 208.024 334.875 208.09Z" fill="white"/>
<path d="M146.687 113.448C144.386 114.955 141.856 115.943 139.142 116.481C127.305 118.826 115.903 112.245 112.115 100.803C110.448 95.767 110.699 90.7236 112.553 85.774C113.161 84.15 113.946 82.5925 114.62 80.9924C114.823 80.5086 115.228 80.4581 115.629 80.3871C119.063 79.779 122.478 80.0964 125.995 80.5291C119.583 88.9418 118.538 97.6402 125.066 106.17C130.475 113.238 138.07 115.116 146.687 113.448Z" fill="#F9F9F9"/>
<path d="M135.181 84.6348C135.085 85.415 134.546 85.9987 134.268 86.7033C131.903 92.6961 136.68 99.6268 143.105 99.4911C147.177 99.4048 150.741 96.4681 151.658 92.3838C151.818 91.67 152.066 91.3805 152.776 91.7007C152.855 93.5541 152.767 95.3762 151.986 97.112C149.928 101.687 145.114 104.022 139.66 103.065C133.827 102.043 129.817 97.0018 130.383 91.2158C130.683 88.1513 132.062 85.7193 135.181 84.6348Z" fill="#F64068"/>
<path d="M135.168 84.5986C134.439 84.9029 133.726 85.2584 133.102 85.7421C131.631 86.8829 130.761 88.6732 130.444 90.5067C129.859 93.8858 131.099 97.4937 133.532 99.9091C135.967 102.325 139.506 103.533 142.925 103.263C145.872 103.03 148.777 101.684 150.622 99.3748C152.321 97.2501 153.036 94.4195 152.78 91.711C153.465 91.7854 154.143 91.92 154.805 92.113C154.991 92.1675 155.185 92.2317 155.316 92.3754C155.519 92.5985 155.509 92.9369 155.476 93.2367C155.094 96.7294 153.227 100.013 150.495 102.223C147.764 104.433 144.211 105.568 140.699 105.473C138.176 105.405 135.654 104.71 133.527 103.351C131.401 101.993 129.687 99.9574 128.843 97.5794C127.756 94.5172 128.211 91.1154 129.537 88.2036C130.284 86.5638 131.307 85.0085 132.597 83.7446C132.721 83.6225 132.856 83.4993 133.024 83.4538C133.2 83.4061 133.387 83.4521 133.564 83.4976C134.149 83.6475 134.734 83.7979 135.319 83.9484C135.457 83.9836 135.621 84.0455 135.646 84.1857C135.675 84.3544 135.485 84.4691 135.326 84.5333C135.273 84.5548 135.221 84.5764 135.168 84.5986Z" fill="#F9F9F9"/>
</svg>
