<svg width="297" height="352" viewBox="0 0 297 352" fill="none" xmlns="http://www.w3.org/2000/svg">
<path d="M58.481 70.894C56.0937 58.9524 56.8647 43.8603 59.2313 31.9187C61.3452 21.2379 78.9125 -10.3152 93.4222 5.34175C93.8046 5.75513 94.1405 6.19952 94.4299 6.66458C96.657 10.261 96.1402 15.2681 94.2903 19.2107C92.2028 23.6649 86.8546 30.1757 84.302 34.3767C79.2639 42.6858 79.8633 49.8838 75.5899 58.6062C72.6549 64.5951 68.3144 69.8916 63.0179 73.9427C62.6407 74.2321 62.2428 74.5214 61.7777 74.63C59.964 75.0537 58.8484 72.7232 58.481 70.894Z" fill="#242323"/>
<path d="M295.154 166.685C292.82 141.786 278.855 117.67 257.061 105.565C235.274 93.4638 206.016 94.998 187.106 111.266C180.418 96.436 162.97 88.7807 146.776 89.4338C130.583 90.0818 115.448 97.5093 101.542 105.879C104.178 94.4358 95.706 81.6669 84.1794 79.7028C71.6048 77.5609 60.169 86.5934 50.6333 95.1597C50.5274 95.2563 50.4163 95.3525 50.3103 95.4486C52.896 82.5329 55.4864 69.2121 52.9916 56.2712C50.502 43.3349 41.6417 30.7179 28.8149 27.9539C20.9224 26.2523 12.1075 29.7712 7.05235 35.9937C0.571009 43.9782 4.39636 50.6812 5.73675 59.6377C8.90689 80.852 1.23604 101.864 1.2965 123.047C1.36212 146.686 11.4575 170.133 28.5529 186.37C22.006 196.805 36.7049 213.341 43.9473 223.31C69.5001 258.482 95.0581 293.661 120.611 328.838C124.683 334.448 128.836 340.134 134.314 344.362C142.736 350.857 146.358 350.153 156.962 350.659C182.677 351.879 208.345 342.189 228.394 325.977C248.449 309.765 263.069 287.362 272.116 263.155C275.261 254.735 277.731 245.187 274.137 236.954C288.944 216.849 297.482 191.585 295.154 166.685ZM265.977 180.107C265.362 183.641 264.112 186.912 261.94 189.803C257.606 195.56 250.716 197.109 244.451 195.701C243.811 195.56 243.494 195.124 243.156 194.643C240.137 190.264 237.113 185.884 234.084 181.51C229.074 174.275 224.064 167.04 219.054 159.8C217.87 158.088 216.705 156.367 215.512 154.666C215.128 154.119 214.987 153.557 215.038 152.894C215.29 149.775 215.915 146.752 217.21 143.897C220.663 136.292 227.471 132.621 235.707 133.908C239.84 134.55 243.579 136.191 247.006 138.535C254.35 143.563 259.556 150.337 263.014 158.519C263.598 159.906 264.178 161.288 264.576 162.741C266.285 168.427 267.011 174.199 265.977 180.107Z" fill="#242323"/>
<path d="M65.6752 63.2103C66.2787 62.9002 66.5919 62.3205 66.9381 61.7893C67.5866 60.7956 68.1586 59.7508 68.8185 58.7649C71.6134 54.5907 73.3729 49.9784 74.3805 45.0999C75.5106 39.6293 77.7362 34.6527 80.8019 30.0414C82.965 26.7876 85.315 23.6577 87.3566 20.3207C88.6831 18.1535 89.5967 15.7993 90.3991 13.4053C90.9107 11.8794 90.5712 11.1596 89.2479 10.2677C87.9266 9.3774 86.5304 9.16968 85.006 9.59598C82.78 10.2192 80.7317 11.1358 79.1365 12.8901C78.6053 13.4746 77.9847 13.9763 77.4261 14.537C73.1109 18.8718 70.0379 24.0608 67.2998 29.4591C65.8214 32.3729 65.1931 35.5162 65.2737 38.7969C65.3233 40.824 65.3202 42.8517 65.3336 44.8793C65.3719 50.7116 65.9387 56.5419 65.4044 62.3768C65.3822 62.616 65.454 62.8641 65.484 63.109C65.3962 63.2382 65.3621 63.3622 65.5522 63.4185C65.5708 63.4242 65.6333 63.2831 65.6752 63.2103Z" fill="#242323"/>
<path d="M266.519 248.746C266.66 250.763 266.317 252.828 265.87 254.814C264.574 260.571 262.477 266.114 259.774 271.36C239.45 310.822 203.169 344.104 158.706 343.309C156.22 343.264 147.444 343.096 145.222 341.98C142.814 340.77 137.83 335.288 136.121 333.203C105.96 296.388 80.2061 260.982 56.9761 223.671C52.2154 216.024 65.3445 216.85 70.3082 215.621C77.8158 213.762 85.2231 211.491 92.4661 208.776C106.635 203.466 120.192 196.453 132.481 187.603C153.86 172.204 171.698 147.776 181.111 123.207C181.81 121.382 184.276 121.104 185.375 122.721L263.086 240.796C264.332 242.629 265.598 244.506 266.174 246.645C266.359 247.336 266.468 248.038 266.519 248.746Z" fill="#F64068"/>
<path d="M11.7642 145.162C11.6764 144.876 11.5911 144.589 11.5079 144.301C7.35395 129.923 9.12995 114.755 11.1746 100.186C13.2333 85.519 15.8862 70.4615 13.3309 55.6815C12.6241 51.5921 10.2662 47.0894 11.3007 42.939C12.328 38.8165 15.8293 35.357 19.9291 34.2931C25.4958 32.8488 31.5834 35.2501 35.5813 39.3839C39.5787 43.5177 41.7268 49.1346 42.7985 54.7845C45.1119 66.9803 42.8465 79.5079 41.2721 91.8216C40.6122 96.9822 40.8463 103.583 45.6265 105.636C48.7744 106.987 52.4076 105.525 55.2914 103.676C62.1474 99.2821 67.4971 92.6422 74.8383 89.1196C79.1922 87.0305 84.8928 86.3484 88.4717 89.5903C90.9685 91.8526 91.7658 95.4201 92.1053 98.7726C92.7455 105.105 92.2278 111.511 92.8602 117.844C93.4927 124.177 95.4764 130.714 100.152 135.032C107.75 142.047 120.096 140.949 129.169 135.988C137.35 131.515 144.854 124.146 154.173 124.45C155.271 124.486 156.582 124.799 156.93 125.841C157.176 126.579 156.816 127.368 156.454 128.056C151.744 136.995 145.031 144.731 137.815 151.805C124.227 165.127 108.632 176.399 91.7208 185.124C83.4242 189.404 74.4595 193.146 65.1284 192.872C53.4612 192.528 42.8538 185.934 34.1675 178.139C24.1549 169.153 15.7017 158.012 11.7642 145.162Z" fill="#F0DADA"/>
<path d="M255.778 207.77C255.853 207.625 255.868 207.597 255.943 207.452C264.713 207.296 272.991 201.975 277.701 194.563C282.479 187.041 283.819 177.655 282.511 168.843C281.202 160.029 277.403 151.736 272.593 144.235C267.56 136.386 261.27 129.18 253.36 124.242C245.451 119.304 235.796 116.79 226.638 118.541C218.491 120.099 210.923 125.334 207.221 132.678C206.547 134.013 204.758 134.3 203.719 133.226C202.27 131.729 200.913 130.151 199.853 128.364C191.287 113.916 216.679 106.459 227.018 106.204C237.845 105.937 248.543 109.611 257.678 115.43C271.229 124.062 281.629 137.531 286.552 152.826C291.476 168.12 290.887 185.126 284.916 200.043C281.566 208.414 276.364 216.311 269.079 221.533C267.651 222.556 265.653 222.172 264.66 220.724L255.778 207.77Z" fill="#F64068"/>
<path d="M37.5795 188.299C38.2238 188.395 38.614 188.791 39.0578 189.095C40.4065 190.017 41.7753 190.908 43.2666 191.587C43.8154 191.837 44.1089 192.188 44.1425 192.822C44.4458 198.556 48.484 200.672 52.4127 201.453C56.0551 202.177 59.7079 202.009 63.3333 201.434C67.5839 200.759 71.7849 199.795 75.835 198.324C80.0123 196.806 84.1466 195.179 88.1817 193.29C99.4227 188.026 109.845 181.437 119.753 174.005C127.722 168.029 135.179 161.463 142.076 154.276C146.91 149.238 151.434 143.925 155.322 138.113C158.63 133.168 161.592 128.027 163.312 122.272C163.866 120.419 164.271 118.533 164.337 116.591C164.441 113.559 163.856 110.758 161.412 108.682C159.871 107.372 158.028 106.666 156.058 106.268C153.017 105.654 149.953 105.723 146.898 106.055C141.163 106.679 135.616 108.158 130.241 110.193C121.257 113.596 112.693 117.875 104.519 122.937C102.526 124.172 102.936 124.56 101.739 121.971C101.196 120.796 101.023 119.508 100.795 118.241C100.677 117.58 100.86 117.146 101.48 116.781C104.289 115.125 107.105 113.482 109.98 111.942C113.421 110.099 116.932 108.399 120.489 106.794C121.66 106.265 122.833 105.729 124.04 105.296C127.112 104.195 130.113 102.891 133.26 102.003C139.46 100.252 145.707 98.8443 152.218 98.991C157.344 99.1062 162.02 100.693 166.498 103.035C166.76 103.172 168.404 104.398 168.985 104.972C170.789 106.752 171.707 109.355 172.192 111.856C173.089 116.492 172.128 120.907 170.551 125.233C168.813 130.006 166.256 134.355 163.421 138.539C158.724 145.469 153.567 152.038 147.812 158.129C142.232 164.036 136.254 169.512 129.969 174.654C123.496 179.95 116.738 184.867 109.635 189.282C104.097 192.725 98.4316 195.945 92.5249 198.744C87.1121 201.308 81.6322 203.687 75.9187 205.481C70.291 207.247 64.5233 208.339 58.6377 208.846C55.4805 209.119 52.3347 209.371 49.1676 209.091C47.9244 208.981 46.722 208.769 45.6353 208.09C45.1769 207.802 44.6778 207.559 44.1673 207.38C41.0839 206.303 39.4454 203.948 38.4507 201.005C37.7857 199.037 37.0974 197.082 36.8359 195C36.547 192.694 36.8545 190.484 37.5795 188.299Z" fill="#F64068"/>
<path d="M63.4204 66.0033C63.0773 66.2745 62.5709 66.0374 62.5621 65.5997C62.174 45.7237 60.6332 23.1354 78.6432 9.30304C81.2997 7.23923 86.2025 7.93733 88.5675 10.2048C90.6381 12.19 89.7906 15.4981 88.6704 18.1774C85.8594 24.9 79.0773 30.1784 76.8187 37.1403C73.5576 47.1933 70.8768 60.1074 63.4204 66.0033Z" fill="#F0DADA"/>
<path d="M187.832 329.145C181.189 331.656 174.168 333.149 167.042 333.559C159.977 333.966 152.567 333.236 146.183 329.548C139.907 325.923 135.2 319.806 130.678 313.856C109.684 286.231 88.6904 258.606 67.6968 230.981C66.3543 229.215 63.9985 224.486 67.4079 224.216C70.2179 223.993 73.3854 228.386 74.9465 230.422C95.7164 257.504 116.486 284.585 137.256 311.667C140.586 316.008 144.03 320.455 148.558 323.249C153.935 326.566 160.289 327.199 166.337 326.958C173.194 326.686 179.966 325.392 186.4 323.122C187.7 322.664 189.056 322.159 190.436 322.417C191.817 322.674 193.186 324.007 193.022 325.478C192.865 326.884 191.504 327.65 190.29 328.162C189.476 328.505 188.656 328.833 187.832 329.145Z" fill="#F0DADA"/>
</svg>
