<svg width="392" height="351" viewBox="0 0 392 351" fill="none" xmlns="http://www.w3.org/2000/svg">
<g clip-path="url(#clip0_36_834)">
<path d="M387.286 333.683C383.47 342.294 374.865 352.025 364.382 349.976C359.422 349.005 356.179 345.965 354.144 341.451C351.739 336.13 351.776 330.167 353.103 324.576C354.1 320.374 358.975 313.096 355.984 309.017C354.835 307.439 352.804 306.833 350.914 306.344C319.532 298.167 286.695 294.809 254.378 292.889C251.314 292.705 248.427 294.106 245.344 293.874C235.955 293.164 227.784 298.045 221.271 304.387C219.871 305.757 218.561 307.224 217.283 308.718C210.843 316.227 202.751 321.145 193.479 324.441C177.443 330.148 158.196 330.454 142.752 322.84C112.888 308.118 92.6738 280.889 87.0719 248.107C85.9404 241.508 85.4079 234.804 85.5429 228.113C85.9156 208.713 87.9644 190.163 97.5181 172.861C98.0808 171.852 98.6738 170.799 98.7349 169.638C99.0162 164.464 82.9247 175.931 81.1022 177.185C68.7113 185.692 55.4086 192.009 40.889 184.683C0.0762672 164.102 -7.53809 116.421 6.85318 76.4837C9.51978 69.0769 12.9324 61.9272 17.0851 55.2362C20.6267 49.5364 27.3594 43.7197 29.623 37.439C30.4248 35.2244 29.4578 33.6282 29.3296 31.445C29.0603 26.7907 32.4796 22.7542 35.03 19.2248C39.268 13.3416 44.1734 7.94066 49.6167 3.15809C53.8856 -0.584946 56.8523 1.01731 61.4576 3.13388C68.0506 6.15506 73.9586 10.6072 80.6193 13.4148C104.017 23.2964 124.721 32.1657 142.759 40.2889C162.911 49.3591 182.452 58.4904 199.032 73.4565C208.708 82.1902 217.112 92.257 223.576 103.541C229.001 112.997 233.215 123.002 236.096 133.571C237.801 139.859 238.156 146.298 238.052 152.678C237.912 161.35 229.594 168.543 220.732 168.274C213.698 168.066 206.347 164.494 202.316 158.653C200.763 156.396 199.704 153.84 198.793 151.259C192.157 132.44 192.622 110.287 177.619 95.456C171.809 89.7187 164.818 85.9085 157.577 82.3857C149.228 78.325 140.653 74.6793 131.803 71.8476C127.626 70.5085 110.201 63.6154 107.107 68.2086C104.624 71.9153 111.608 79.7923 113.351 82.7711C116.262 87.7437 119.161 92.7096 122.067 97.6882C127.21 106.514 131.871 115.938 137.608 124.391C145.901 136.623 158.121 146.231 168.653 156.457C184.977 172.322 201.123 188.384 217.429 204.273C226.799 213.411 236.364 222.364 245.654 231.594C250.296 236.205 254.957 240.835 259.348 245.691C265.361 252.333 269.134 255.538 277.972 257.471C303.421 263.03 329.169 267.348 354.508 273.397C383.042 280.21 399.746 305.586 387.286 333.683Z" fill="#222222"/>
<path d="M126.182 304.455C113.948 294.452 106.023 281.51 100.353 267.002C96.7305 257.735 94.5558 248.089 93.6301 238.237C92.5706 226.964 93.002 215.694 95.2825 204.537C97.9171 191.648 102.127 179.382 109.244 168.224C110.119 166.853 110.566 165.344 110.661 163.734C110.748 162.265 110.384 160.927 109.285 159.878C108.519 159.149 107.72 158.454 106.938 157.741C105.335 156.277 103.444 156.025 101.511 156.759C99.7075 157.445 97.928 158.267 96.2719 159.254C89.9179 163.041 83.5924 166.854 77.6722 171.339C72.8757 174.973 67.5541 177.75 61.6436 179.265C59.2009 179.892 56.8199 179.884 54.3203 179.573C43.1396 178.179 34.8766 171.984 27.5993 163.917C21.8456 157.539 17.607 150.343 14.685 142.284C9.75845 128.696 8.87926 114.794 10.971 100.579C13.1657 85.6662 18.7681 72.0519 26.7504 59.4081C29.3722 55.2548 32.6106 51.4301 35.95 47.8087C38.4454 45.1034 39.0874 42.4349 37.6987 39.1602C36.3687 36.0241 37.2479 33.3097 39.2338 30.7883C42.5061 26.6326 45.5987 22.325 49.9486 19.1429C51.0728 18.3212 51.9169 17.1262 52.9456 16.1617C53.8411 15.3218 54.7481 14.4638 55.7683 13.7928C57.7057 12.5197 59.4314 12.6625 60.9556 14.4396C62.2045 15.8954 63.2368 17.5697 64.1759 19.2537C66.5793 23.5649 68.8949 27.9257 71.2136 32.2835C76.1855 41.6308 82.0222 50.4607 87.4957 59.5067C93.4268 69.3078 99.4255 79.0684 105.488 88.7891C113.134 101.051 121.18 113.044 129.796 124.652C131.789 127.337 133.768 130.063 135.43 132.955C138.724 138.69 143.332 143.269 147.933 147.88C152.908 152.865 157.87 157.863 162.846 162.847C166.081 166.088 169.308 169.338 172.579 172.543C176.858 176.735 181.224 180.838 185.464 185.067C189.577 189.17 193.524 193.438 197.647 197.529C200.773 200.631 203.99 203.629 207.03 206.83C211.15 211.171 215.632 215.165 219.873 219.393C223.737 223.246 227.486 227.214 231.291 231.126C231.906 231.758 232.551 232.36 233.181 232.977C240.48 240.125 247.801 247.251 255.07 254.43C258.289 257.611 258.503 259.886 255.825 263.795C252.938 268.008 250.293 272.387 246.954 276.296C245.134 278.427 243.312 280.591 242.075 283.187C240.998 285.447 238.995 286.58 236.501 286.573C232.2 286.56 228.713 288.407 225.445 290.99C221.02 294.489 216.788 298.211 212.81 302.196C203.838 311.18 193.231 317.035 180.769 319.566C164.586 322.85 149.582 319.535 135.52 311.392C132.186 309.46 129.283 306.786 126.182 304.455ZM203.643 218.028C196.55 208.159 189.632 198.147 180.399 190.056C179.872 189.593 179.427 189.037 178.939 188.528C173.826 183.185 169.025 177.52 163.682 173.596C161.154 171.479 159.327 169.802 157.351 168.328C153.516 165.468 149.325 163.222 144.758 161.772C138.006 159.629 135.258 163.982 131.327 168.439C110.764 191.746 99.9308 224.717 107.766 255.346C110.613 266.475 115.928 276.327 124.195 284.466C125.187 285.442 125.97 286.635 126.824 287.748C130.585 292.653 134.518 297.437 139.526 301.106C142.922 303.592 146.771 305.458 150.203 307.902C154.552 310.999 159.491 312.139 164.59 312.692C175.322 313.855 184.869 311.212 192.652 303.36C193.269 302.738 194.032 302.259 194.655 301.641C198.154 298.169 202.084 295.181 205.404 291.484C209.792 286.595 213.526 281.261 216.892 275.68C221.726 267.662 223.452 259.081 221.112 249.787C219.893 244.941 218.066 240.411 215.541 236.138M43.6715 52.4363C35.285 62.4486 28.6733 76.8224 25.8536 84.0616C18.8879 101.945 16.9577 121.989 22.542 140.518C26.4157 153.372 35.0521 166.203 48.1606 169.1C56.7406 170.995 65.7418 168.261 73.4512 164.044C82.0954 159.318 89.7805 152.588 94.7712 144.094C103.268 129.63 103.167 111.356 98.1779 95.3397C93.1889 79.3238 83.7938 65.0941 74.2723 51.2831C71.2632 46.9174 67.5674 42.1621 62.2904 41.6399C55.692 40.9876 49.2842 45.7351 43.6715 52.4363ZM124.491 141.817C125.238 140.718 125.325 139.532 124.581 138.383C123.856 137.263 122.79 136.678 121.466 136.911C120.625 137.06 119.742 137.338 119.033 137.797C116.395 139.503 113.78 141.257 111.744 143.725C111.135 144.575 110.458 145.386 109.939 146.288C109.488 147.07 109.458 147.98 109.969 148.769C110.509 149.604 111.43 149.78 112.287 149.559C113.457 149.257 114.675 148.911 115.691 148.287" fill="#F0DADA"/>
<path d="M228.076 156.009C225.784 158.483 223.047 159.776 219.596 159.163C219.424 159.132 219.255 159.071 219.081 159.045C209.978 157.651 205.524 151.569 203.529 143.268C202.338 138.307 201.576 133.241 200.664 128.215C199.184 120.058 197.084 112.053 194.929 104.055C192.988 96.8501 188.44 91.6779 182.448 87.6111C178.519 84.9451 174.547 82.3311 170.49 79.8654C163.855 75.8314 156.89 72.4701 149.506 69.9978C139.151 66.53 128.826 62.9691 118.459 59.5383C116.13 58.768 113.695 58.2894 111.28 57.8181C107.984 57.1743 104.816 56.1154 101.602 55.1884C99.8789 54.6922 98.9259 53.6993 98.1145 52.2894C93.4904 44.2546 88.7635 36.2735 84.2418 28.1806C84.0487 27.8363 83.8503 27.4593 83.9053 27.0684C84.0977 25.7046 86.9156 27.1307 87.5509 27.3867C107.952 35.6134 128.265 44.165 148.583 52.6452C158.336 56.7852 167.903 60.7793 176.911 66.452C178.867 67.6845 180.79 68.9679 182.677 70.3039C199.754 82.3983 212.582 98.9165 221.846 117.548C222.416 118.695 222.973 119.85 223.516 121.011C226.831 128.098 229.316 135.381 230.067 143.207C230.39 146.567 230.446 149.884 229.424 153.163C229.105 154.19 228.792 155.173 228.076 156.009Z" fill="#F0DADA"/>
<path d="M371.72 289.3C374.144 291.591 376.675 293.737 378.727 296.459C382.43 301.371 383.943 306.786 383.419 312.82C383.176 315.627 382.739 318.418 382.334 321.208C381.404 327.606 378.097 332.697 373.581 337.147C371.59 339.11 369.254 340.147 366.487 340.221C362.108 340.337 359.411 338.307 358.603 334.008C357.983 330.706 357.737 327.342 358.661 324.028C360.127 318.765 361.563 313.491 363.152 308.264C363.722 306.391 364.258 304.544 364.261 302.586C364.264 300.354 363.589 299.34 361.526 298.588C360.371 298.166 359.165 297.867 357.964 297.583C346.797 294.948 335.488 293.096 324.167 291.254C314.414 289.668 304.596 288.606 294.833 287.145C289.772 286.387 284.737 285.523 279.615 285.336C277.855 285.271 276.092 285.165 274.335 285.211C268.297 285.37 262.386 284.333 256.475 283.338C254.306 282.973 253.954 282.147 255.061 280.524C257.742 276.591 260.352 272.619 262.607 268.419C263.103 267.495 263.88 266.727 264.463 265.846C265.444 264.364 266.85 263.81 268.547 263.897C272.422 264.097 276.327 264.092 280.163 264.595C286.979 265.488 293.764 266.634 300.542 267.788C308.018 269.061 315.485 270.394 322.929 271.834C327.602 272.738 332.296 273.656 336.86 274.977C344.646 277.232 352.513 279.224 360.112 282.127C364.475 283.794 368.394 286.024 371.72 289.3Z" fill="#F0DADA"/>
<path d="M141.468 221.712C142.299 222.518 142.62 223.67 142.586 224.951C142.513 227.764 142.266 230.586 142.396 233.391C142.6 237.786 143.026 242.174 143.415 246.559C143.897 251.998 144.469 257.43 144.934 262.87C145.068 264.439 145.016 266.03 144.96 267.608C144.926 268.582 144.327 269.289 143.368 269.437C142.477 269.575 141.579 269.341 141.084 268.481C140.561 267.572 140.014 266.644 139.703 265.653C139.126 263.808 138.59 261.935 138.253 260.035C136.588 250.653 135.693 241.189 135.528 231.663C135.491 229.562 135.725 227.441 136.016 225.355C136.159 224.339 136.601 223.311 137.122 222.413C137.886 221.097 140.265 220.717 141.468 221.712Z" fill="#F2F2F0"/>
<path d="M158.582 241.412C158.73 241.681 159.195 242.247 159.363 242.89C160.085 245.652 159.939 248.453 159.362 251.207C159.144 252.251 158.344 253.077 157.131 253.124C156.182 253.161 155.394 252.645 154.953 251.876C153.323 249.039 152.71 245.994 153.608 242.791C154.171 240.784 156.751 239.935 158.582 241.412Z" fill="#F2F2F0"/>
<path d="M64.6361 76.277C64.7898 76.6001 65.2146 77.1972 65.3477 77.8531C65.4826 78.5175 65.4264 79.2607 65.289 79.9359C62.5426 93.4547 62.2176 107.196 61.4806 120.9C61.405 122.305 61.3263 123.713 61.1817 125.112C61.1103 125.803 60.9088 126.485 60.7249 127.16C60.5167 127.92 59.9008 128.308 59.2049 128.451C58.2477 128.648 57.4508 128.226 57.0103 127.383C56.6085 126.614 56.2303 125.783 56.0881 124.939C55.71 122.685 55.2991 120.417 55.1938 118.141C54.6287 105.961 55.4292 93.8679 57.8078 81.8964C58.1823 80.0122 58.4123 78.0559 59.7029 76.4779C60.9088 75.0039 63.0774 74.7903 64.6361 76.277Z" fill="#F2F2F0"/>
<path d="M39.6579 99.9928C40.5982 99.0665 41.3739 98.3458 42.5883 98.5945C43.7555 98.8329 44.7708 99.8863 44.93 101.153C45.0171 101.846 45.057 102.57 44.9578 103.257C44.3261 107.617 43.6647 111.973 42.9713 116.324C42.8624 117.008 42.6276 117.708 42.2918 118.312C41.9312 118.96 41.2154 119.213 40.4887 119.222C39.7608 119.232 39.0552 119.019 38.7442 118.287C38.4017 117.482 38.0429 116.651 37.9074 115.797C37.1771 111.206 37.5347 106.653 38.6389 102.16C38.8434 101.327 39.3765 100.575 39.6579 99.9928Z" fill="#F2F2F0"/>
</g>
<defs>
<clipPath id="clip0_36_834">
<rect width="392" height="351" fill="white"/>
</clipPath>
</defs>
</svg>
