<svg width="1072" height="457" viewBox="0 0 1072 457" fill="none" xmlns="http://www.w3.org/2000/svg">
		<path vector-effect="non-scaling-stroke" fill-rule="evenodd" clip-rule="evenodd" d="M1071 228.832C1071 354.662 831.473 456.664 536 456.664C240.527 456.664 1 354.662 1 228.832C1 103.009 240.527 1 536 1C831.473 1 1071 103.009 1071 228.832Z" stroke="#252525" stroke-width="0.5"></path>
		<path vector-effect="non-scaling-stroke" fill-rule="evenodd" clip-rule="evenodd" d="M897.739 228.832C897.739 354.662 735.778 456.664 536.006 456.664C336.226 456.664 174.266 354.662 174.266 228.832C174.266 103.009 336.226 1 536.006 1C735.778 1 897.739 103.009 897.739 228.832Z" stroke="#252525" stroke-width="0.5"></path>
		<path vector-effect="non-scaling-stroke" fill-rule="evenodd" clip-rule="evenodd" d="M715.351 228.832C715.351 354.662 635.053 456.664 536 456.664C436.954 456.664 356.656 354.662 356.656 228.832C356.656 103.009 436.954 1 536 1C635.053 1 715.351 103.009 715.351 228.832Z" stroke="#252525" stroke-width="0.5"></path>
		<path vector-effect="non-scaling-stroke" d="M1 228.823L1071 228.823" stroke="#252525" stroke-width="0.5"></path>
		<path vector-effect="non-scaling-stroke" opacity="0.642601" d="M536 1L536 456.893" stroke="#252525"></path>
	</svg>